SplineFontDB: 3.0
FontName: Archicoco
FullName: Archicoco
FamilyName: Archicoco
Weight: Black

StartChar: .notdef
Encoding: 65536 -1 0
Width: 750
Flags: MW
HStem: 0 50<80 420 80 500> 650 50<80 420 80 80>
VStem: 0 50<95 95 95 605> 450 50<95 605 605 605>
LayerCount: 2
Fore
SplineSet
0 700 m 1
 500 700 l 1
 500 0 l 1
 0 0 l 1
 0 700 l 1
420 650 m 1
 80 650 l 1
 250 395 l 1
 420 650 l 1
450 95 m 1
 450 605 l 1
 280 350 l 1
 450 95 l 1
420 50 m 1
 250 305 l 1
 80 50 l 1
 420 50 l 1
50 95 m 1
 220 350 l 1
 50 605 l 1
 50 95 l 1
EndSplineSet
Validated: 1
EndChar

StartChar: exclam
Encoding: 33 33 4
Width: 333
Flags: MW
HStem: 0 185<67 265 67 265> 668 20G<47 286 286 286>
VStem: 67 198<0 185 0 185>
LayerCount: 2
Fore
SplineSet
286 688 m 1
 229 246 l 1
 102 246 l 1
 47 688 l 1
 286 688 l 1
265 185 m 1
 265 0 l 1
 67 0 l 1
 67 185 l 1
 265 185 l 1
EndSplineSet
Validated: 1
EndChar

StartChar: quotedbl
Encoding: 34 34 5
Width: 500
Flags: MW
HStem: 398 290<106 175 106 106 325 393 325 325> 668 20G<59 222 222 222 278 441 441 441>
VStem: 59 163<541 688 541 688> 278 163<541 688 541 688>
LayerCount: 2
Fore
SplineSet
441 688 m 1x70
 441 541 l 1
 393 398 l 1
 325 398 l 1xb0
 278 541 l 1
 278 688 l 1
 441 688 l 1x70
222 688 m 1
 222 541 l 1
 175 398 l 1
 106 398 l 1
 59 541 l 1
 59 688 l 1
 222 688 l 1
EndSplineSet
Validated: 1
EndChar

StartChar: numbersign
Encoding: 35 35 6
Width: 660
Flags: HMW
HStem: -11 21G<84 204 84 84 318 435 318 318> 159 109<20 120 20 146 20 355 20 240 500 606> 391 111<66 174 66 196 546 639> 680 20G<240 362 362 362 472 592 592 592>
VStem: 20 619<159 502 268 502>
LayerCount: 2
Fore
SplineSet
592 700 m 1
 546 502 l 1
 639 502 l 1
 639 391 l 1
 526 391 l 1
 500 268 l 1
 606 268 l 1
 606 159 l 1
 472 159 l 1
 435 -11 l 1
 318 -11 l 1
 379 267 l 1
 408 390 l 1
 348 390 l 1
 373.620915033 502 l 1
 428 502 l 1
 472 700 l 1
 592 700 l 1
298.773049645 159 m 1
 240 159 l 1
 204 -11 l 1
 84 -11 l 1
 120 159 l 1
 20 159 l 1
 20 268 l 1
 146 268 l 1
 174 391 l 1
 66 391 l 1
 66 502 l 1
 196 502 l 1
 240 700 l 1
 362 700 l 1
 317 502 l 1
 317.290322581 502 l 1
 292 390 l 1
 265 267 l 1
 322.134751773 267 l 1
 298.773049645 159 l 1
EndSplineSet
Validated: 1
EndChar

StartChar: dollar
Encoding: 36 36 7
Width: 667
Flags: MW
HStem: 70 118<326.5 389> 71 182<69 291> 279.18 140.83 451 168<389 601 389 416> 502 116<291 358.5>
VStem: 69 185<249 253 249 253> 83 190<430 485 430 502> 287.5 105.5 424 190<208.5 266.5>
LayerCount: 2
Fore
SplineSet
397 756 m 1x2d80
 389 619 l 1
 500 610 601 562 601 451 c 1
 416 451 l 1x3580
 415 493 372 502 345 502 c 0
 328 502 273 502 273 468 c 0x2b80
 273 392 614 471 614 256 c 0
 614 127 513 79 389 70 c 1
 397 -67 l 1
 284 -67 l 1xad80
 291 71 l 1
 176 83 69 137 69 253 c 1x6d80
 254 253 l 1
 254 249 l 2xad80
 255 198 312 188 341 188 c 0
 369 188 424 190 424 227 c 0
 424 306 83 234 83 442 c 0xab80
 83 562 176 608 291 618 c 1
 284 756 l 1
 397 756 l 1x2d80
EndSplineSet
Validated: 1
EndChar

StartChar: percent
Encoding: 37 37 8
Width: 1000
Flags: MW
HStem: -12 76<740.5 784 740.5 827> 0 21G<231 342 231 231> 270 76<740.5 784> 342 76<208.5 252 208.5 295> 624 76<208.5 252> 667 20G<650 759 759 759>
VStem: 46 124<480 505 505 537 480 574> 289 124<505 537 537 562> 578 124<126 151 151 183 126 220> 821 124<151 183 183 208>
LayerCount: 2
Fore
SplineSet
230 700 m 0x9bc0
 360 700 413 628 413 520 c 0
 413 414 360 342 230 342 c 0
 100 342 46 414 46 520 c 0
 46 628 100 700 230 700 c 0x9bc0
230 624 m 0
 187 624 170 587 170 537 c 2
 170 505 l 2
 170 455 187 418 230 418 c 0
 274 418 289 455 289 505 c 2
 289 537 l 2
 289 587 274 624 230 624 c 0
762 346 m 0xa7c0
 892 346 945 274 945 166 c 0
 945 60 892 -12 762 -12 c 0
 632 -12 578 60 578 166 c 0
 578 274 632 346 762 346 c 0xa7c0
762 270 m 0
 719 270 702 233 702 183 c 2
 702 151 l 2
 702 101 719 64 762 64 c 0
 806 64 821 101 821 151 c 2
 821 183 l 2
 821 233 806 270 762 270 c 0
759 687 m 1
 342 0 l 1
 231 0 l 1x5bc0
 650 687 l 1
 759 687 l 1
EndSplineSet
Validated: 1
EndChar

StartChar: ampersand
Encoding: 38 38 9
Width: 889
Flags: MW
HStem: -12 141<369.5 480.5 369.5 540> 289 123<328.5 474 370 474 370 474 751 751 751 888> 559 141<384.5 478.5>
VStem: 75 203<191.5 232.5> 95 204<470.5 496 453 556> 572 179<218 222 222 289 150.5 412>
LayerCount: 2
Fore
SplineSet
417 700 m 0xec
 627 700 749 615 749 512 c 2
 749 487 l 1
 572 487 l 1
 572 526 527 559 430 559 c 0
 339 559 299 517 299 475 c 0
 299 431 333 412 370 412 c 2xec
 474 412 l 1
 474 289 l 1
 348 289 l 2
 309 289 278 266 278 217 c 0
 278 166 317 129 422 129 c 0
 539 129 572 169 572 218 c 2
 572 412 l 1
 888 412 l 1
 888 289 l 1
 751 289 l 1
 751 222 l 2
 751 79 657 -12 423 -12 c 0
 180 -12 75 76 75 192 c 0xf4
 75 273 120 333 195 357 c 1
 195 361 l 1
 139 382 95 438 95 503 c 0
 95 609 203 700 417 700 c 0xec
EndSplineSet
Validated: 1
EndChar

StartChar: quotesingle
Encoding: 39 39 10
Width: 278
Flags: MW
HStem: 398 290<104 172 104 104> 668 20G<57 220 220 220>
VStem: 57 163<541 688 541 688>
LayerCount: 2
Fore
SplineSet
220 688 m 1x60
 220 541 l 1
 172 398 l 1
 104 398 l 1xa0
 57 541 l 1
 57 688 l 1
 220 688 l 1x60
EndSplineSet
Validated: 1
EndChar

StartChar: parenleft
Encoding: 40 40 11
Width: 389
Flags: MW
HStem: 717 20G<235 355 355 355>
VStem: 55 167<217 358.5 217 370>
LayerCount: 2
Fore
SplineSet
235 737 m 1
 355 737 l 1
 276 614 222 429 222 288 c 0
 222 146 276 -37 355 -160 c 1
 235 -160 l 1
 120 -37 55 125 55 288 c 0
 55 452 120 614 235 737 c 1
EndSplineSet
Validated: 1
EndChar

StartChar: parenright
Encoding: 41 41 12
Width: 389
Flags: MW
HStem: 717 20G<34 154 154 154>
VStem: 167 167<217 358.5>
LayerCount: 2
Fore
SplineSet
34 737 m 1
 154 737 l 1
 269 614 334 452 334 288 c 0
 334 125 269 -37 154 -160 c 1
 34 -160 l 1
 113 -37 167 146 167 288 c 0
 167 429 113 614 34 737 c 1
EndSplineSet
Validated: 1
EndChar

StartChar: asterisk
Encoding: 42 42 13
Width: 556
Flags: MW
HStem: 668 20G<231 324 324 324>
VStem: 237 81
LayerCount: 2
Fore
SplineSet
324 688 m 1
 312 567 l 1
 413 637 l 1
 460 557 l 1
 348 505 l 1
 460 454 l 1
 413 373 l 1
 312 444 l 1
 324 322 l 1
 231 322 l 1
 243 444 l 1
 142 373 l 1
 95 454 l 1
 207 505 l 1
 95 557 l 1
 142 637 l 1
 243 566 l 1
 231 688 l 1
 324 688 l 1
EndSplineSet
Validated: 1
EndChar

StartChar: plus
Encoding: 43 43 14
Width: 660
Flags: MW
HStem: 0 21G<264 396 264 264> 198 132<66 264 66 264 396 594> 508 20G<264 396 396 396>
VStem: 264 132<0 198 0 198 330 528>
LayerCount: 2
Fore
SplineSet
396 528 m 1
 396 330 l 1
 594 330 l 1
 594 198 l 1
 396 198 l 1
 396 0 l 1
 264 0 l 1
 264 198 l 1
 66 198 l 1
 66 330 l 1
 264 330 l 1
 264 528 l 1
 396 528 l 1
EndSplineSet
Validated: 1
EndChar

StartChar: comma
Encoding: 44 44 15
Width: 333
Flags: MW
HStem: 0 199<61 142 61 273>
VStem: 61 212<11 199 11 199 11 199>
LayerCount: 2
Fore
SplineSet
273 199 m 1
 273 11 l 1
 168 -183 l 1
 60 -183 l 1
 142 0 l 1
 61 0 l 1
 61 199 l 1
 273 199 l 1
EndSplineSet
Validated: 1
EndChar

StartChar: hyphen
Encoding: 45 45 16
Width: 333
Flags: MW
HStem: 196 158<39 294 39 294>
VStem: 39 255<196 354 196 354>
LayerCount: 2
Fore
SplineSet
294 354 m 1
 294 196 l 1
 39 196 l 1
 39 354 l 1
 294 354 l 1
EndSplineSet
Validated: 1
EndChar

StartChar: period
Encoding: 46 46 17
Width: 333
Flags: MW
HStem: 0 199<61 273 61 273>
VStem: 61 212<0 199 0 199>
LayerCount: 2
Fore
SplineSet
273 199 m 1
 273 0 l 1
 61 0 l 1
 61 199 l 1
 273 199 l 1
EndSplineSet
Validated: 1
EndChar

StartChar: slash
Encoding: 47 47 18
Width: 278
Flags: MW
HStem: 716 20G<158 279 279 279>
VStem: -2 281
LayerCount: 2
Fore
SplineSet
279 736 m 1
 120 -48 l 1
 -2 -48 l 1
 158 736 l 1
 279 736 l 1
EndSplineSet
Validated: 1
EndChar

StartChar: zero
Encoding: 48 48 19
Width: 667
Flags: HMW
HStem: -12 135<299 369 299 448> 565 135<299 369>
VStem: 41 197<237.5 295 295 394 234.5 450.5> 428 198<295 394 394 450.5 237.5 454.5>
LayerCount: 2
Fore
SplineSet
238 -1.63913426747 m 0
 87.133864826 34.7913983731 41 164.554387357 41 344 c 0
 41 523.445612643 87.133864826 653.208601627 238 689.639134267 c 1
 238 -1.63913426747 l 0
354 699.618981463 m 1
 565.767249003 691.392409256 626 550.635990329 626 344 c 0
 626 137.364009671 565.767249003 -3.39240925638 354 -11.6189814633 c 1
 354 124.61065198 l 1
 408.644510618 134.127442296 428 186.336965799 428 295 c 2
 428 394 l 2
 428 502.663034201 408.644510618 554.06607898 354 563.418414743 c 1
 354 699.618981463 l 1
EndSplineSet
Validated: 1
EndChar

StartChar: one
Encoding: 49 49 20
Width: 667
Flags: MW
HStem: 0 154<105 268 467 624 105 268> 465 116<105 268 105 105> 669 20G<400 467 467 467>
VStem: 268 199<154 465 465 465>
LayerCount: 2
Fore
SplineSet
467 689 m 1
 467 154 l 1
 624 154 l 1
 624 0 l 1
 105 0 l 1
 105 154 l 1
 268 154 l 1
 268 465 l 1
 105 465 l 1
 105 581 l 1
 198 587 322 638 400 689 c 1
 467 689 l 1
EndSplineSet
Validated: 1
EndChar

StartChar: two
Encoding: 50 50 21
Width: 667
Flags: HMW
HStem: 0 169<318 619 318 619> 559 141<296 357.5>
VStem: 51 179<463.5 465 445 537.5> 413 198<453.5 505>
LayerCount: 2
Fore
SplineSet
297 555.471029701 m 1
 253.831627996 544.585586304 230 509.559118751 230 465 c 2
 230 445 l 1
 52 445 l 1
 51 453 51 460 51 467 c 0
 51 595.777347699 132.746054901 683.681667948 297 697.954042972 c 1
 297 555.471029701 l 1
413 694.935999988 m 1
 536.462645712 675.288406095 611 599.855508118 611 493 c 0
 611 344 460 271 318 169 c 1
 619 169 l 1
 619 0 l 1
 49 0 l 1
 49 48 l 2
 49 123 89 176 145 226 c 0
 301 365 413 421 413 486 c 2
 413 694.935999988 l 1
EndSplineSet
Validated: 1
EndChar

StartChar: three
Encoding: 51 51 22
Width: 667
Flags: HMW
HStem: -12 137<282 360.5 282 434> 289 123<283 340 340 356 283 340> 563 137<292 350.5>
VStem: 42 176<186 207 184.5 207> 64 167<487 507.5 487 512 487 563.5> 283 222<357 361 357 412 357 412> 410 195<478.5 504.5> 426 199<190.5 229 187 241.5>
LayerCount: 2
Fore
SplineSet
294 560.12470771 m 1xe8
 252.381887335 550.962967659 231 521.050698733 231 487 c 1
 64 487 l 1
 64 512 l 2
 64 605.864071617 146.216601952 684.779670151 294 698.040568682 c 1
 294 560.12470771 l 1xe8
410 694.561844329 m 1xe2
 535.480913415 674.288072752 605 599.799372167 605 513 c 0xe2
 605 444 564 383 505 361 c 1
 505 357 l 1xe4
 581 333 625 271 625 187 c 0
 620.844843323 95.5865531099 560.059414057 18.6759809072 426 -4.70508110128 c 1
 426 217 l 2xe1
 426 266 395 289 356 289 c 2
 283 289 l 1
 283 412 l 1xe4
 340 412 l 2
 379 412 410 435 410 484 c 2
 410 694.561844329 l 1xe2
310 -11.5245075157 m 1
 126.35786154 -4.41079453125 42 81.6252699583 42 186 c 2
 42 207 l 1
 218 207 l 1xf0
 218 164.333895079 239.575069737 128.859480071 310 125.294534127 c 1
 310 -11.5245075157 l 1
EndSplineSet
Validated: 1
EndChar

StartChar: four
Encoding: 52 52 23
Width: 667
Flags: HMW
HStem: 0 21G<358 548 358 358> 141 147<160 358 160 358 23 358 548 644> 680 20G<215 411 411 411>
VStem: 358 190<0 141 0 141 288 431 431 431>
LayerCount: 2
Fore
SplineSet
242 288 m 1
 242 141 l 1
 23 141 l 1
 23 290 l 1
 88 385 215 700 215 700 c 1
 411 700 l 1
 396 591 255 385 160 288 c 1
 242 288 l 1
358 431 m 1
 392 480 449 577 463 634 c 1
 548 634 l 1
 548 288 l 1
 644 288 l 1
 644 141 l 1
 548 141 l 1
 548 0 l 1
 358 0 l 1
 358 431 l 1
EndSplineSet
Validated: 1
EndChar

StartChar: five
Encoding: 53 53 24
Width: 667
Flags: HMW
HStem: -12 138<286.5 357 286.5 429.5> 331 128<339.5 357> 518 170<247 574 247 247>
VStem: 39 176<196 222 196 222> 428 197<199 257.5>
LayerCount: 2
Fore
SplineSet
260 688 m 1
 239 414 l 1
 298 445 l 2
 321 453 351 459 386 459 c 0
 532 459 625 371 625 225 c 0
 625 117 551 26 428 -3 c 1
 428 228 l 2
 428 287 391 331 323 331 c 0
 256 331 238 294 227 281 c 1
 69 303 l 1
 98 688 l 1
 260 688 l 1
574 688 m 1
 574 518 l 1
 359 518 l 1
 373 688 l 1
 574 688 l 1
312 126 m 1
 312 -11 l 1
 132 -2 39 89 39 222 c 1
 215 222 l 1
 215 173 248 130 312 126 c 1
EndSplineSet
Validated: 1
EndChar

StartChar: six
Encoding: 54 54 25
Width: 667
Flags: HMW
HStem: -12 135<307.5 370.5 307.5 428> 319 120<365.5 371.5> 565 135<310 374>
VStem: 41 201<210.5 252.5 387 445 189.5 460.5> 436 178<468 475 475 499.5> 438 193<187.5 250.5>
LayerCount: 2
Fore
SplineSet
242 387 m 1xf4
 278 412 l 1
 314 431 355 439 387 439 c 0
 523 439 631 365 631 228 c 0
 631 105 558 15 438 -12 c 1
 438 219 l 2
 438 316.330275229 350.492046124 319.009090144 340.858142945 319.009090144 c 0
 340.296944702 319.009090144 340 319 340 319 c 0
 277 319 242 284 242 221 c 0
 242 164 270 130 322 124 c 1
 322 -12 l 1
 133 -6 41 101 41 327 c 0
 41 547 107 657 242 690 c 1
 242 387 l 1xf4
358 700 m 1
 511 694 614 614 614 468 c 1
 436 468 l 1
 436 475 l 2xf8
 436 520 411 558 358 564 c 1
 358 700 l 1
EndSplineSet
Validated: 1
EndChar

StartChar: seven
Encoding: 55 55 26
Width: 667
Flags: MW
HStem: 0 21G<158 380 158 158> 516 172<45 375 45 625>
VStem: 158 222<0 59 0 95>
LayerCount: 2
Fore
SplineSet
625 688 m 1
 625 597 l 1
 498 440 380 262 380 59 c 2
 380 0 l 1
 158 0 l 1
 158 190 250 370 375 516 c 1
 45 516 l 1
 45 688 l 1
 625 688 l 1
EndSplineSet
Validated: 1
EndChar

StartChar: eight
Encoding: 56 56 27
Width: 667
Flags: HMW
HStem: -12 135<305 359 305 421> 287 127<307 357> 565 135<305 359>
VStem: 41 199<178 230> 427 199<178 230 123.5 232>
LayerCount: 2
Fore
SplineSet
332 287 m 0
 282 287 240 259 240 205 c 0
 240 158.311527837 268.406347892 131.058977915 311 124.534990569 c 1
 311 -11.6660272824 l 1
 145.159611778 -6.3149609692 41 63.228642 41 189 c 0
 41 271 84 311 150 348 c 1
 150 352 l 1
 102 386 66 420 66 497 c 0
 66 599.309397451 137.973143244 665.63222328 240 689.775834459 c 1
 240 489 l 2
 240 435 282 414 332 414 c 0
 382 414 427 435 427 489 c 0
 427 534.655101065 397.692757756 557.436256964 356 563.38694153 c 1
 356 699.356941424 l 1
 492.758280957 691.953741237 600 620.840459883 600 497 c 0
 600 420 564 386 516 352 c 1
 516 348 l 1
 582 311 626 271 626 189 c 0
 626 83.0690848224 550.149081074 17.025290804 427 -4.37258925921 c 1
 427 205 l 2
 427 259 382 287 332 287 c 0
EndSplineSet
Validated: 1
EndChar

StartChar: nine
Encoding: 57 57 28
Width: 667
Flags: HMW
HStem: -12 135<293 357 293 428> 249 120<294.5 301.5> 565 135<295.5 358.5>
VStem: 36 193<435.5 498.5 435.5 537> 53 178<188.5 213 213 220> 425 201<243 301 301 301 433.5 477.5 227.5 496.5>
LayerCount: 2
Fore
SplineSet
425 -2 m 1xf4
 425 301 l 1
 406 286 l 2
 367 260 317 249 280 249 c 0
 144 249 36 323 36 460 c 0
 36 583 109 663 229 690 c 0
 229 467 l 2
 229 404 263 369 326 369 c 0
 389 369 425 402 425 465 c 0
 425 522 397 557 345 564 c 1
 345 700 l 1
 534 694 626 587 626 361 c 0
 626 141 560 31 425 -2 c 1xf4
309 -12 m 1
 156 -6 53 74 53 220 c 1
 231 220 l 1
 231 213 l 2xec
 231 168 256 130 309 124 c 1
 309 -12 l 1
EndSplineSet
Validated: 1
EndChar

StartChar: colon
Encoding: 58 58 29
Width: 333
Flags: MW
HStem: 0 199<61 273 61 273> 328 200<61 273 61 273>
VStem: 61 212<0 199 0 199 328 528>
LayerCount: 2
Fore
SplineSet
273 528 m 1
 273 328 l 1
 61 328 l 1
 61 528 l 1
 273 528 l 1
273 199 m 1
 273 0 l 1
 61 0 l 1
 61 199 l 1
 273 199 l 1
EndSplineSet
Validated: 1
EndChar

StartChar: semicolon
Encoding: 59 59 30
Width: 333
Flags: MW
HStem: 0 199<61 142 61 273> 328 200<61 273 61 273>
VStem: 61 212<11 199 11 199 11 199 328 528>
LayerCount: 2
Fore
SplineSet
273 199 m 1
 273 11 l 1
 168 -183 l 1
 60 -183 l 1
 142 0 l 1
 61 0 l 1
 61 199 l 1
 273 199 l 1
273 528 m 1
 273 328 l 1
 61 328 l 1
 61 528 l 1
 273 528 l 1
EndSplineSet
Validated: 1
EndChar

StartChar: less
Encoding: 60 60 31
Width: 660
Flags: MW
HStem: -13 21G<592 592> 515 20G<592 592>
VStem: 67 525<-13 332 -13 332>
LayerCount: 2
Fore
SplineSet
592 535 m 1
 592 392 l 1
 233 260 l 1
 592 129 l 1
 592 -13 l 1
 67 189 l 1
 67 332 l 1
 592 535 l 1
EndSplineSet
Validated: 1
EndChar

StartChar: equal
Encoding: 61 61 32
Width: 660
Flags: MW
HStem: 85 132<66 594 66 594> 311 132<66 594 66 594>
VStem: 66 528<85 217 85 217 311 443 85 443>
LayerCount: 2
Fore
SplineSet
594 443 m 1
 594 311 l 1
 66 311 l 1
 66 443 l 1
 594 443 l 1
594 217 m 1
 594 85 l 1
 66 85 l 1
 66 217 l 1
 594 217 l 1
EndSplineSet
Validated: 1
EndChar

StartChar: greater
Encoding: 62 62 33
Width: 660
Flags: MW
HStem: -13 21G<68 68> 515 20G<68 68>
VStem: 68 525<-13 332 129 332 189 535 189 535>
LayerCount: 2
Fore
SplineSet
68 535 m 1
 593 332 l 1
 593 189 l 1
 68 -13 l 1
 68 129 l 1
 427 260 l 1
 68 392 l 1
 68 535 l 1
EndSplineSet
Validated: 1
EndChar

StartChar: question
Encoding: 63 63 34
Width: 611
Flags: HMW
HStem: 0 185<212 410 212 410> 562 138<261 309>
VStem: 37 186<482.5 499 473.5 554> 212 198<0 185 0 185> 224 171<246 267 246 296 246 332.5> 354 212<451.5 510.5>
LayerCount: 2
Fore
SplineSet
410 185 m 1xd0
 410 0 l 1
 212 0 l 1
 212 185 l 1
 410 185 l 1xd0
298 561 m 2
 295 562 291 562 288 562 c 0
 234 562 223 520 223 478 c 0
 223 469 223 460 224 451 c 1
 40 451 l 1
 39 464 37 476 37 489 c 0xe8
 37 616 147 696 298 700 c 1
 298 561 l 2
354 698 m 1xc4
 482 684 566 608 566 496 c 0xc4
 566 360 395 320 395 267 c 2
 395 246 l 1
 224 246 l 1
 224 296 l 2xc8
 224 369 354 411 354 492 c 2
 354 698 l 1xc4
EndSplineSet
Validated: 1
EndChar

StartChar: at
Encoding: 64 64 35
Width: 740
Flags: HMW
HStem: -149 61<261 369> 51 94<261 372> 51 103<516 609> 236 73<382 420> 339 135<308 322> 639 61<285 460>
VStem: 20 68<148 391 148 424.5> 161 151<168 199 168 225.5> 172 150<347.5 354.5 339 386> 420 153<202 236 236 236 309 329 329 343> 652 68<248 435.5>
LayerCount: 2
Fore
SplineSet
437 104 m 1xbee0
 427 120 420 206 420 309 c 1
 420 329 l 2
 420 361 399 378 372 378 c 0
 349 378 322 370 322 339 c 1
 173 339 l 1
 172 343 172 346 172 349 c 0
 172 423 242 474 374 474 c 0
 479 474 573 442 573 343 c 2
 573 184 l 2
 573 160 587 154 602 154 c 0
 616 154 652 172 652 324 c 0
 652 547 540 639 380 639 c 0
 190 639 88 517 88 265 c 0
 88 31 172 -88 350 -88 c 0
 391 -88 463 -74 495 -56 c 1
 495 -122 l 1
 458 -138 388 -149 350 -149 c 0
 146 -149 20 -23 20 266 c 0
 20 700 381 700 381 700 c 0
 575 700 720 591 720 323 c 0
 720 114 626 51 546 51 c 0
 486 51 455 74 437 104 c 1xbee0
364 60 m 1
 346 54 326 51 303 51 c 0
 219 51 161 80 161 165 c 0
 161 272 233 302 364 308 c 1
 364 231 l 1
 328 222 312 205 312 184 c 0
 312 152 334 145 354 145 c 0xdf60
 357 145 361 145 364 146 c 2
 364 60 l 1
EndSplineSet
Validated: 1
EndChar

StartChar: A
Encoding: 65 65 36
Width: 778
Flags: HMW
LayerCount: 2
Fore
SplineSet
440 688 m 1
 236 0 l 1
 10 0 l 1
 261 688 l 1
 440 688 l 1
539 630 m 1
 769 0 l 1
 535 0 l 1
 506 97 l 1
 381 97 l 1
 427 251 l 1
 460 251 l 1
 444 307 l 1
 539 630 l 1
EndSplineSet
Validated: 1
EndChar

StartChar: B
Encoding: 66 66 37
Width: 778
Flags: HMW
LayerCount: 2
Fore
SplineSet
295 688 m 1
 295 0 l 1
 74 0 l 1
 74 688 l 1
 295 688 l 1
411 537 m 1
 411 688 l 1
 532 688 l 2
 636 688 722 618 722 519 c 0
 722 419 669 377 607 359 c 1
 607 355 l 1
 678 339 738 293 738 183 c 0
 738 73 649 0 538 0 c 2
 411 0 l 1
 411 160 l 1
 463 160 l 2
 492 160 514 183 514 214 c 2
 514 224 l 2
 514 254 492 278 463 278 c 2
 411 278 l 1
 411 420 l 1
 447 420 l 2
 476 420 498 444 498 474 c 2
 498 484 l 2
 498 513 475 537 447 537 c 2
 411 537 l 1
EndSplineSet
Validated: 1
EndChar

StartChar: C
Encoding: 67 67 38
Width: 778
Flags: HMW
HStem: -12 165<354 442.5 354 507> 535 165<354 440.5>
VStem: 45 226<265 312 312 376 265 461.5> 529 204<239.5 279>
LayerCount: 2
Fore
SplineSet
402 700 m 0
 602 700 733 597 733 405 c 1
 522 405 l 1
 522 484 480 535 401 535 c 0
 396 535 392 535 387 534 c 1
 387 700 l 1
 392 700 397 700 402 700 c 0
271 376 m 1
 271 312 l 1
 271 3 l 1
 122 43 45 158 45 344 c 0
 45 530 122 645 271 685 c 1
 271 376 l 1
387 153 m 2
 391 153 395 153 399 153 c 0
 486 153 529 200 529 279 c 1
 733 279 l 1
 733 90 612 -12 402 -12 c 0
 397 -12 392 -12 387 -12 c 1
 387 153 l 2
EndSplineSet
Validated: 1
EndChar

StartChar: D
Encoding: 68 68 39
Width: 778
Flags: HMW
HStem: 0 165<295 368 368 372> 523 165<295 368 295 295>
VStem: 74 221<165 523 165 688 165 688> 507 226<314 374 374 421>
LayerCount: 2
Fore
SplineSet
295 688 m 1
 295 0 l 1
 74 0 l 1
 74 688 l 1
 295 688 l 1
411 519 m 1
 411 687 l 0
 621 675 733 566 733 344 c 0
 733 122 621 13 411 1 c 1
 411 169 l 1
 478 184 507 235 507 314 c 2
 507 374 l 2
 507 453 478 504 411 519 c 1
EndSplineSet
Validated: 1
EndChar

StartChar: E
Encoding: 69 69 40
Width: 722
Flags: HMW
HStem: 0 165<295 676 295 676> 270 158<295 615 295 615> 523 165<295 669 295 295>
VStem: 74 221<165 270 428 523>
LayerCount: 2
Fore
SplineSet
295 0 m 1
 74 0 l 1
 74 688 l 1
 295 688 l 1
 295 0 l 1
411 0 m 1
 411 165 l 1
 676 165 l 1
 676 0 l 1
 411 0 l 1
411 688 m 1
 669 688 l 1
 669 523 l 1
 411 523 l 1
 411 688 l 1
411 270 m 1
 411 428 l 1
 615 428 l 1
 615 270 l 1
 411 270 l 1
EndSplineSet
Validated: 1
EndChar

StartChar: F
Encoding: 70 70 41
Width: 667
Flags: HMW
HStem: 0 21G<74 295 74 74> 247 158<295 583 295 583> 523 165<295 630 295 295>
VStem: 74 221<0 247 405 523>
LayerCount: 2
Fore
SplineSet
295 688 m 1
 295 0 l 1
 74 0 l 1
 74 688 l 1
 295 688 l 1
411 688 m 1
 630 688 l 1
 630 523 l 1
 411 523 l 1
 411 688 l 1
583 405 m 1
 583 247 l 1
 411 247 l 1
 411 405 l 1
 583 405 l 1
EndSplineSet
Validated: 1
EndChar

StartChar: G
Encoding: 71 71 42
Width: 833
Flags: HMW
HStem: -12 165<376.5 440.5> 0 21G<656 770 656 656> 244 140<403 559 403 770> 535 165<376.5 464>
VStem: 45 226<262 312 312 376 262 461.5> 559 211<216.5 244 439 468.5>
LayerCount: 2
Fore
SplineSet
271 376 m 1xbc
 271 340 l 1
 271 312 l 2
 271 212 324 153 429 153 c 0
 446 153 462 155 477 159 c 1
 536 11 l 1
 493 -4 444 -12 388 -12 c 0
 159 -12 45 109 45 344 c 0
 45 524 126 638 271 681 c 1
 271 376 l 1xbc
420 700 m 0
 613 700 770 612 770 439 c 1
 559 439 l 1
 559 498 499 535 429 535 c 0
 414 535 400 534 387 531 c 1
 387 699 l 1
 398 700 409 700 420 700 c 0
656 0 m 1x7c
 559 244 l 1
 443 244 l 1
 403 244 l 1
 403 384 l 1
 770 384 l 1
 770 0 l 1
 656 0 l 1x7c
EndSplineSet
Validated: 1
EndChar

StartChar: H
Encoding: 72 72 43
Width: 833
Flags: HMW
HStem: 0 21G<74 295 74 74 538 759 538 538> 261 176<295 538 295 538> 668 20G<74 295 295 295 538 759 759 759>
VStem: 74 221<0 261 0 437 437 688> 538 221<0 261 261 261 437 688 0 688>
LayerCount: 2
Fore
SplineSet
759 688 m 1
 759 0 l 1
 538 0 l 1
 538 261 l 1
 411 261 l 1
 411 437 l 1
 538 437 l 1
 538 688 l 1
 759 688 l 1
295 0 m 1
 74 0 l 1
 74 688 l 1
 295 688 l 1
 295 0 l 1
EndSplineSet
Validated: 1
EndChar

StartChar: I
Encoding: 73 73 44
Width: 389
Flags: HMW
HStem: 0 21G<84 305 84 84> 668 20G<84 305 305 305>
VStem: 84 221<0 688 0 688>
LayerCount: 2
Fore
SplineSet
305 688 m 1
 305 0 l 1
 84 0 l 1
 84 688 l 1
 305 688 l 1
EndSplineSet
Validated: 1
EndChar

StartChar: J
Encoding: 74 74 45
Width: 667
Flags: HMW
HStem: -12 165<277.5 324.5 277.5 397> 668 20G<372 593 593 593>
VStem: 23 207<239 240 240 248 208 248> 372 221<240 688>
LayerCount: 2
Fore
SplineSet
372 688 m 1
 593 688 l 1
 593 239 l 2
 593 85.2383783842 511.331544352 8.56567284776 372 -8.3553260698 c 1
 372 688 l 1
256 -9.65186025185 m 1
 109.369158205 4.27633088251 23 80.875151522 23 239 c 2
 23 248 l 1
 230 248 l 1
 230 240 l 2
 230 201.378595477 238.739919262 177.68788636 256 164.972232523 c 1
 256 -9.65186025185 l 1
EndSplineSet
Validated: 1
EndChar

StartChar: K
Encoding: 75 75 46
Width: 833
Flags: HMW
HStem: 0 21G<74 295 74 74 558 819 558 558> 668 20G<74 295 295 295 540 814 814 814>
VStem: 74 221<0 154 394 688>
LayerCount: 2
Fore
SplineSet
295 0 m 1
 74 0 l 1
 74 688 l 1
 295 688 l 1
 295 0 l 1
411 533.2 m 1
 540 688 l 1
 814 688 l 1
 567 405 l 1
 819 0 l 1
 558 0 l 1
 415 252 l 1
 411 248.733333333 l 1
 411 533.2 l 1
EndSplineSet
Validated: 1
EndChar

StartChar: L
Encoding: 76 76 47
Width: 667
Flags: HMW
HStem: 0 176<295 648 295 648> 668 20G<74 295 295 295>
VStem: 74 221<176 688 176 688 176 688>
LayerCount: 2
Fore
SplineSet
295 0 m 1
 74 0 l 1
 74 688 l 1
 295 688 l 1
 295 0 l 1
411 0 m 1
 411 176 l 1
 648 176 l 1
 648 0 l 1
 411 0 l 1
EndSplineSet
Validated: 1
EndChar

StartChar: M
Encoding: 77 77 48
Width: 944
Flags: HMW
HStem: 0 21G<60 263 60 60 377 550 377 377 665 884 665 665> 668 20G<60 372 372 372 583 884 884 884>
VStem: 60 203<0 248 0 688> 665 219<0 248 248 300>
LayerCount: 2
Fore
SplineSet
884 688 m 1
 884 0 l 1
 665 0 l 1
 665 248 l 2
 665 352 681 466 681 466 c 1
 677 466 l 1
 550 0 l 1
 377 0 l 1
 249 465 l 1
 245 465 l 1
 245 465 263 352 263 248 c 2
 263 0 l 1
 60 0 l 1
 60 688 l 1
 372 688 l 1
 476 291 l 1
 480 291 l 1
 583 688 l 1
 884 688 l 1
EndSplineSet
Validated: 1
EndChar

StartChar: N
Encoding: 78 78 49
Width: 833
Flags: HMW
HStem: 0 21G<74 277 74 74 566 759 566 566> 668 20G<74 267 267 267 556 759 759 759>
VStem: 74 203<0 334 0 688> 556 203<349 688 0 688>
LayerCount: 2
Fore
SplineSet
759 688 m 1
 759 0 l 1
 566 0 l 1
 393 200 l 1
 393 540 l 1
 556 349 l 1
 556 688 l 1
 759 688 l 1
277 334 m 1
 277 0 l 1
 74 0 l 1
 74 688 l 1
 267 688 l 1
 277 676 l 1
 277 334 l 1
EndSplineSet
Validated: 1
EndChar

StartChar: O
Encoding: 79 79 50
Width: 833
Flags: HMW
VStem: 45 226<265 312 312 376 265 461.5> 562 226<312 376 376 423>
LayerCount: 2
Fore
SplineSet
271 7 m 0
 126 49 45 163 45 344 c 0
 45 525 126 639 271 681 c 0
 271 7 l 0
387 533 m 1
 387 700 l 1
 416 700 l 2
 651 700 788 579 788 344 c 0
 788 109 651 -12 416 -12 c 0
 406 -12 396 -12 387 -11 c 1
 387 155 l 1
 396 154 406 153 416 153 c 0
 513 153 562 218 562 312 c 2
 562 376 l 2
 562 470 513 535 416 535 c 0
 406 535 396 534 387 533 c 1
EndSplineSet
EndChar

StartChar: P
Encoding: 80 80 51
Width: 722
Flags: HMW
HStem: 0 21G<74 295 74 74> 222 161<295 386 386 409.5 295 460 295 386> 525 163<295 386 295 295>
VStem: 74 221<0 222 0 383 383 525> 456 224<450 458 458 462 384 478.5>
LayerCount: 2
Fore
SplineSet
295 688 m 1
 295 0 l 1
 74 0 l 1
 74 688 l 1
 295 688 l 1
411 522 m 1
 411 688 l 1
 460 688 l 2
 590 688 680 592 680 462 c 2
 680 449 l 2
 680 319 590 222 460 222 c 2
 411 222 l 1
 411 386 l 1
 441 394 456 417 456 450 c 2
 456 458 l 2
 456 491 442 514 411 522 c 1
EndSplineSet
Validated: 1
EndChar

StartChar: Q
Encoding: 81 81 52
Width: 833
Flags: HMW
HStem: -131 284<367.5 775 367.5 512> 535 165<367.5 464.5>
VStem: 45 226<265 312 312 376 265 461.5> 562 226<312 376 376 423>
LayerCount: 2
Fore
SplineSet
562 312 m 2
 562 376 l 2
 562 470 513 535 416 535 c 0
 406 535 396 534 387 533 c 1
 387 699 l 1
 396 700 406 700 416 700 c 0
 651 700 788 579 788 344 c 0
 788 188 727 82 618 28 c 1
 775 -131 l 1
 512 -131 l 1
 406 -12 l 1
 400 -12 393 -12 387 -11 c 1
 387 155 l 1
 396 154 406 153 416 153 c 0
 513 153 562 218 562 312 c 2
271 681 m 0
 271 7 l 1
 126 49 45 162 45 344 c 0
 45 525 126 639 271 681 c 0
EndSplineSet
Validated: 1
EndChar

StartChar: R
Encoding: 82 82 53
Width: 778
Flags: HMW
HStem: 0 21G<74 295 74 74 499 747 499 499> 251 153<295 377 295 440> 531 157<295 440 295 295>
VStem: 74 221<0 251 0 404 404 531> 502 225<449.5 486.5>
LayerCount: 2
Fore
SplineSet
502 468 m 0
 502 505 474 531 440 531 c 2
 377 531 l 1
 377 688 l 1
 495 688 l 2
 648 688 727 589 727 477 c 0
 727 397 683 321 594 288 c 1
 747 0 l 1
 499 0 l 1
 377 251 l 1
 377 404 l 1
 440 404 l 2
 474 404 502 431 502 468 c 0
261 0 m 1
 74 0 l 1
 74 688 l 1
 261 688 l 1
 261 0 l 1
EndSplineSet
Validated: 1
EndChar

StartChar: S
Encoding: 83 83 54
Width: 722
Flags: HMW
HStem: -12 158<329 383 329 469.5> 256.85 178.13 550 150
VStem: 43 209<196 233 196 233> 54 226<453.5 517 453.5 560> 460 207<476 480 480 488 476 498> 460 226<170.5 228 142.5 241.5>
LayerCount: 2
Fore
SplineSet
396 699 m 1xe4
 547 691 664 625 667 488 c 2
 667 476 l 1
 460 476 l 1
 460 480 l 2
 460 511 442 540 396 548 c 1
 396 699 l 1xe4
280 694 m 1xea
 280 505 l 2
 280 402 681 483 686 228 c 0
 686 83 593 12 460 -7 c 1
 460 192 l 2
 460 291 54 212 54 480 c 0
 54 612 154 676 280 694 c 1xea
344 146 m 1
 344 -11 l 1
 171 -5 43 50 43 233 c 1xf0
 252 233 l 1
 252 166 287 149 344 146 c 1
EndSplineSet
Validated: 1
EndChar

StartChar: T
Encoding: 84 84 55
Width: 722
Flags: HMW
HStem: 0 21G<249 470 249 249> 512 176<23 249 23 695 470 695 470 470>
VStem: 249 221<0 512 0 512>
LayerCount: 2
Fore
SplineSet
695 688 m 1
 695 512 l 1
 586 512 l 1
 586 688 l 1
 695 688 l 1
470 512 m 1
 470 0 l 1
 249 0 l 1
 249 512 l 1
 23 512 l 1
 23 688 l 1
 470 688 l 1
 470 512 l 1
EndSplineSet
Validated: 1
EndChar

StartChar: U
Encoding: 85 85 56
Width: 833
Flags: HMW
HStem: -12 165<375.5 456.5 375.5 525> 668 20G<74 295 295 295 538 759 759 759>
VStem: 74 221<277 280 280 688> 538 221<280 688>
LayerCount: 2
Fore
SplineSet
759 688 m 1
 759 277 l 2
 759 87 633 -12 417 -12 c 0
 414.992300651 -12 412.992290479 -11.9914468705 411 -11.9743470357 c 2
 411 153.0684688 l 1
 412.648942983 153.022918852 414.315606653 153 416 153 c 0
 497 153 538 206 538 280 c 2
 538 688 l 1
 759 688 l 1
295 0.573334664238 m 0
 153.999328099 32.7268194775 74 126.202233136 74 277 c 2
 74 688 l 1
 295 688 l 1
 295 0.573334664238 l 0
EndSplineSet
Validated: 1
EndChar

StartChar: V
Encoding: 86 86 57
Width: 778
Flags: HMW
HStem: 0 21G<261 517 261 261> 668 20G<17 253 253 253 534 760 760 760>
VStem: 17 743<688 688>
LayerCount: 2
Fore
SplineSet
460 0 m 1
 261 0 l 1
 17 688 l 1
 253 688 l 1
 391 228 l 1
 391 228 l 1
 460 0 l 1
549 90 m 5
 760 688 l 1
 534 688 l 1
 451 414 l 1
 549 90 l 5
EndSplineSet
Validated: 5
EndChar

StartChar: W
Encoding: 87 87 58
Width: 1000
Flags: HMW
HStem: 0 21G<166 409 166 166 591 834 591 591> 668 20G<5 235 235 235 396 614 614 614 775 995 995 995>
VStem: 5 990<688 688>
LayerCount: 2
Fore
SplineSet
375 0 m 1
 314 298 l 1
 314 298 l 1
 235 688 l 1
 5 688 l 1
 166 0 l 1
 375 0 l 1
396 688 m 1
 614 688 l 1
 697 298 l 1
 697 298 l 1
 761 0 l 1
 591 0 l 1
 396 688 l 1
857 96 m 1
 995 688 l 1
 775 688 l 1
 857 96 l 1
EndSplineSet
Validated: 5
EndChar

StartChar: X
Encoding: 88 88 59
Width: 778
Flags: MW
HStem: 0 21G<4 252 4 4 510 778 510 510> 668 20G<28 295 295 295 508 755 755 755>
VStem: 4 774<0 0>
LayerCount: 2
Fore
SplineSet
755 688 m 1
 532 363 l 1
 778 0 l 1
 510 0 l 1
 383 214 l 1
 379 214 l 1
 252 0 l 1
 4 0 l 1
 250 364 l 1
 28 688 l 1
 295 688 l 1
 399 512 l 1
 403 512 l 1
 508 688 l 1
 755 688 l 1
EndSplineSet
Validated: 1
EndChar

StartChar: Y
Encoding: 89 89 60
Width: 778
Flags: HMW
HStem: 0 21G<280 501 280 280> 668 20G<7 261 261 261 529 770 770 770>
VStem: 280 221<0 267 0 267>
LayerCount: 2
Fore
SplineSet
502 268 m 1
 501 267 l 1
 501 0 l 1
 280 0 l 1
 280 267 l 1
 7 688 l 1
 261 688 l 1
 502 268 l 1
563 364 m 1
 453 556 l 1
 529 688 l 1
 770 688 l 1
 563 364 l 1
EndSplineSet
Validated: 1
EndChar

StartChar: Z
Encoding: 90 90 61
Width: 722
Flags: HMW
HStem: 0 165<364 691 364 691> 523 165<48 343 48 683>
VStem: 24 667<0 71 71 71>
LayerCount: 2
Fore
SplineSet
228 523 m 1
 345 688 l 1
 48 688 l 1
 48 523 l 1
 228 523 l 1
364 165 m 1
 364 165 l 1
 683 617 l 1
 683 688 l 1
 461 688 l 1
 24 71 l 1
 24 0 l 1
 248 0 l 1
 364 165 l 1
480 165 m 1
 691 165 l 1
 691 0 l 1
 364 0 l 1
 480 165 l 1
EndSplineSet
Validated: 5
EndChar

StartChar: bracketleft
Encoding: 91 91 62
Width: 389
Flags: MW
HStem: -160 103<225 339 225 339> 634 103<225 339 225 225>
VStem: 66 159<-57 634 -57 737 -57 737>
LayerCount: 2
Fore
SplineSet
339 737 m 1
 339 634 l 1
 225 634 l 1
 225 -57 l 1
 339 -57 l 1
 339 -160 l 1
 66 -160 l 1
 66 737 l 1
 339 737 l 1
EndSplineSet
Validated: 1
EndChar

StartChar: backslash
Encoding: 92 92 63
Width: 278
Flags: MW
HStem: 716 20G<-2 119 119 119>
VStem: -2 281
LayerCount: 2
Fore
SplineSet
119 736 m 1
 279 -48 l 1
 157 -48 l 1
 -2 736 l 1
 119 736 l 1
EndSplineSet
Validated: 1
EndChar

StartChar: bracketright
Encoding: 93 93 64
Width: 389
Flags: MW
HStem: -160 103<66 180 66 339 66 180> 634 103<66 180 66 339>
VStem: 180 159<-57 634 634 634>
LayerCount: 2
Fore
SplineSet
339 737 m 1
 339 -160 l 1
 66 -160 l 1
 66 -57 l 1
 180 -57 l 1
 180 634 l 1
 66 634 l 1
 66 737 l 1
 339 737 l 1
EndSplineSet
Validated: 1
EndChar

StartChar: asciicircum
Encoding: 94 94 65
Width: 660
Flags: MW
HStem: 549 139<331 331> 668 20G<258 401 401 401>
VStem: 55 549<337 337>
LayerCount: 2
Fore
SplineSet
401 688 m 1x60
 604 337 l 1
 462 337 l 1
 331 549 l 1xa0
 199 337 l 1
 55 337 l 1
 258 688 l 1
 401 688 l 1x60
EndSplineSet
Validated: 1
EndChar

StartChar: underscore
Encoding: 95 95 66
Width: 500
Flags: MW
HStem: -126 62<0 500 0 500>
VStem: 0 500<-126 -64 -126 -64>
LayerCount: 2
Fore
SplineSet
500 -64 m 1
 500 -126 l 1
 0 -126 l 1
 0 -64 l 1
 500 -64 l 1
EndSplineSet
Validated: 1
EndChar

StartChar: grave
Encoding: 96 96 67
Width: 333
Flags: MW
HStem: 592 133<183 218 25 310 183 183>
VStem: 23 287<592 721>
LayerCount: 2
Fore
SplineSet
218 725 m 1
 310 592 l 1
 183 592 l 1
 23 721 l 1
 25 725 l 1
 218 725 l 1
EndSplineSet
Validated: 1
EndChar

StartChar: a
Encoding: 97 97 68
Width: 667
Flags: HMW
HStem: -12 124<161 322.5> -12 135<518 662> 230 94<336 395> 363 177<230.5 242> 413 127<300.5 339.5>
VStem: 30 199<141.5 181.5 141.5 215> 45 197<363 425.5> 395 199<185 230 230 230 324 350 350 368>
LayerCount: 2
Fore
SplineSet
394 230 m 1x6b
 277 230 229 201 229 162 c 0
 229 121 263 112 297 112 c 0
 311 112 325 114 338 119 c 1
 338 10 l 1
 305 -3 265 -12 216 -12 c 0
 106 -12 30 26 30 136 c 0
 30 294 164 324 395 324 c 1
 395 350 l 2
 395 393 361 413 318 413 c 0xad
 283 413 242 402 242 367 c 2
 242 363 l 1
 46 363 l 1x33
 45 368 45 372 45 377 c 0
 45 474 140 540 321 540 c 0
 466 540 594 498 594 368 c 2
 594 162 l 2
 594 140 604 123 626 123 c 2
 662 123 l 1
 662 8 l 1
 662 8 625 -12 558 -12 c 0
 478 -12 429 14 411 54 c 1
 396.486765282 80.5024286161 395.511442449 143.6368541 395.511442449 186.62037393 c 0
 395.511442449 193.294604557 395.534957551 199.482995443 395.534957551 204.97297007 c 0
 395.534957551 220.158164807 395.355051026 230 394 230 c 1x6b
EndSplineSet
Validated: 1
EndChar

StartChar: b
Encoding: 98 98 69
Width: 667
Flags: HMW
HStem: -12 147<372.5 377 315 478> 0 21G<61 223 61 61> 393 147<315 478> 705 20G<61 260 260 260>
VStem: 61 199<479 725 479 725 479 725> 432 199<237 290 290 321>
LayerCount: 2
Fore
SplineSet
343 -3 m 1xbc
 363 -9 385 -12 408 -12 c 0
 548 -12 631 79 631 265 c 0
 631 449 548 540 408 540 c 0
 397 540 386 539 376 538 c 1
 376 389 l 1
 416 377 432 341 432 290 c 2
 432 237 l 2
 432 186 416 150 376 139 c 1
 376 -3 l 1
 343 -3 l 1xbc
260 479 m 1
 260 308 l 2
 259 299 258 290 258 280 c 2
 258 247 l 2
 258 237 259 228 260 219 c 2
 260 160 l 1
 240 75 l 2
 240 75 l 2
 223 0 l 1
 61 0 l 1x7c
 61 725 l 1
 260 725 l 1
 260 479 l 1
EndSplineSet
Validated: 5
EndChar

StartChar: c
Encoding: 99 99 70
Width: 667
Flags: HMW
HStem: -12 135<300.5 369.5 300.5 413.5> 405 135<298 364>
VStem: 36 199<200 235 235 292 200 356.5> 439 185<182.5 215>
LayerCount: 2
Fore
SplineSet
333 540 m 0
 494 540 624 476 624 315 c 1
 431 315 l 1
 431 377 395 405 333 405 c 0
 317 405 303 403 291 398 c 1
 291 538 l 1
 305 539 319 540 333 540 c 0
235 292 m 1
 235 235 l 1
 235 -2 l 1
 112 27 36 115 36 264 c 0
 36 413 112 501 235 530 c 1
 235 292 l 1
291 130 m 1
 304 126 319 123 337 123 c 0
 402 123 439 150 439 215 c 1
 624 215 l 1
 624 54 494 -12 333 -12 c 0
 319 -12 305 -11 291 -10 c 1
 291 130 l 1
EndSplineSet
Validated: 1
EndChar

StartChar: d
Encoding: 100 100 71
Width: 667
Flags: HMW
HStem: -12 147<290 294.5> 0 21G<444 606 444 444> 393 147<189 352> 705 20G<407 606 606 606>
VStem: 36 199<206 237 237 290 206 357> 407 199<479 725 0 725>
LayerCount: 2
Fore
SplineSet
407 725 m 1x7c
 606 725 l 1
 606 0 l 1
 444 0 l 1
 427 75 l 2
 427 75 l 2
 407 161 l 1
 407 725 l 1x7c
321 393 m 0
 332 393 342 391 351 388 c 1
 351 520 l 1
 324 534 293 540 259 540 c 0
 119 540 36 449 36 265 c 0
 36 79 119 -12 259 -12 c 0
 293 -12 324 -6 351 7 c 1
 351 140 l 1
 342 137 332 135 321 135 c 0xbc
 259 135 235 175 235 237 c 2
 235 290 l 2
 235 352 259 393 321 393 c 0
EndSplineSet
Validated: 5
EndChar

StartChar: e
Encoding: 101 101 72
Width: 667
Flags: HMW
HStem: -12 127<303 376.5 303 440> 230 94<236 430 236 631 235 430> 413 127<307.5 369>
VStem: 36 199<193.5 230 193.5 356.5> 430 201<129 351.5> 438 193<170.5 192>
LayerCount: 2
Fore
SplineSet
333 540 m 0xf8
 523 540 631 454 631 264 c 2
 631 230 l 1
 291 230 l 1
 291 324 l 1
 430 324 l 1
 430 379 397 413 341 413 c 0
 321 413 305 410 291 405 c 1
 291 538 l 1
 305 539 319 540 333 540 c 0xf8
235 530 m 1
 235 230 l 2
 235 157 265 115 341 115 c 0
 412 115 438 149 438 192 c 1xf4
 631 192 l 1xf8
 631 66 535 -12 345 -12 c 0
 155 -12 36 74 36 264 c 0
 36 413 112 501 235 530 c 1
EndSplineSet
Validated: 1
EndChar

StartChar: f
Encoding: 102 102 73
Width: 389
Flags: MW
HStem: 0 21G<82 281 82 82> 393 135<8 82 8 82 281 383> 602 135<218 337 218 383>
VStem: 82 199<0 393 0 393 528 549 0 550 0 622>
LayerCount: 2
Fore
SplineSet
275 737 m 0
 304 737 356 729 383 719 c 1
 383 602 l 1
 337 602 l 2
 293 602 281 586 281 549 c 2
 281 528 l 1
 383 528 l 1
 383 393 l 1
 281 393 l 1
 281 0 l 1
 82 0 l 1
 82 393 l 1
 8 393 l 1
 8 528 l 1
 82 528 l 1
 82 550 l 2
 82 694 161 737 275 737 c 0
EndSplineSet
Validated: 1
EndChar

StartChar: g
Encoding: 103 103 74
Width: 667
Flags: HMW
HStem: -210 111<101.5 402 246 402 402 416.5 246 432> 0 140<231.5 476 296 402> 200 104<273 346.5 299.5 346.5 299.5 372> 436 104<302 345 251 346.5> 514 20G
VStem: 5 189<-63.5 -53.5> 53 195<347.5 392.5 347.5 434.5> 400 194<347.5 392 311 392.5> 455 199<-64.5 -33.5>
LayerCount: 2
Fore
SplineSet
490 627 m 1xeb
 654 627 l 1xe880
 654 541 608 504 532 484 c 1
 571 455 594 414 594 370 c 0xe9
 594 252 490 200 372 200 c 2
 296 200 l 2
 250 200 233 188 233 171 c 0
 233 154 245 140 296 140 c 2
 476 140 l 2
 598 140 654 69 654 -29 c 0
 654 -139 563 -202 455 -209 c 1
 455 -49 l 2
 455 -18 431 0 402 0 c 2
 246 0 l 2
 217 0 194 -17 194 -48 c 0
 194 -79 217 -99 246 -99 c 2
 399 -99 l 1
 399 -210 l 1
 138 -210 l 2
 65 -210 5 -154 5 -81 c 0xec80
 5 -26 45 17 89 37 c 1
 57 59 37 92 37 130 c 0
 37 183 82 229 138 243 c 1
 90 274 53 318 53 369 c 0
 53 476 136 523 248 536 c 1
 248 370 l 2
 248 325 276 304 323 304 c 0
 370 304 400 325 400 370 c 0
 400 415 370 436 323 436 c 0
 316 436 310 435 304 434 c 1
 304 540 l 1
 311 540 318 540 325 540 c 0xf3
 365 540 390 538 412 534 c 1
 489.049382716 581.790123457 490.000609663 624.824112178 490.000609663 626.920111546 c 0
 490.000609663 626.973174821 490 627 490 627 c 1xeb
EndSplineSet
Validated: 1
EndChar

StartChar: h
Encoding: 104 104 75
Width: 667
Flags: HMW
HStem: 0 21G<60 259 60 60 409 608 409 409> 393 147<317 486.5> 705 20G<60 259 259 259>
VStem: 60 199<0 310 473 725> 409 199<0 318 318 340>
LayerCount: 2
Fore
SplineSet
315 514 m 1
 348 531 385 540 424 540 c 0
 549 540 608 467 608 342 c 2
 608 0 l 1
 409 0 l 1
 409 318 l 2
 409 362 386 393 342 393 c 0
 332 393 323 392 315 389 c 1
 315 514 l 1
259 725 m 1
 259 0 l 1
 60 0 l 1
 60 725 l 1
 259 725 l 1
EndSplineSet
Validated: 1
EndChar

StartChar: i
Encoding: 105 105 76
Width: 333
Flags: MW
HStem: 0 21G<67 266 67 67> 508 20G<67 266 266 266> 590 135<67 266 67 266>
VStem: 67 199<0 528 0 528 590 725 0 725>
LayerCount: 2
Fore
SplineSet
266 528 m 1
 266 0 l 1
 67 0 l 1
 67 528 l 1
 266 528 l 1
266 725 m 1
 266 590 l 1
 67 590 l 1
 67 725 l 1
 266 725 l 1
EndSplineSet
Validated: 1
EndChar

StartChar: j
Encoding: 106 106 77
Width: 333
Flags: MW
HStem: -210 137<-41 147> 508 20G<67 266 266 266> 590 135<67 266 67 266>
VStem: 67 199<-9 528 590 725>
LayerCount: 2
Fore
SplineSet
266 528 m 1
 266 -29 l 2
 266 -157 211 -210 83 -210 c 0
 51 -210 -10 -203 -41 -192 c 1
 -41 -73 l 1
 11 -73 l 2
 51 -73 67 -50 67 -9 c 2
 67 528 l 1
 266 528 l 1
266 725 m 1
 266 590 l 1
 67 590 l 1
 67 725 l 1
 266 725 l 1
EndSplineSet
Validated: 1
EndChar

StartChar: k
Encoding: 107 107 78
Width: 667
Flags: HMW
HStem: 0 21G<60 259 60 60 439 665 439 439> 508 20G<428 660 660 660> 706 20G<60 259 259 259>
VStem: 60 199<0 114 326 726>
LayerCount: 2
Fore
SplineSet
315 393 m 1
 428 528 l 1
 660 528 l 1
 465 315 l 1
 665 0 l 1
 439 0 l 1
 315 203 l 1
 315 393 l 1
259 0 m 1
 60 0 l 1
 60 726 l 1
 259 726 l 1
 259 0 l 1
EndSplineSet
Validated: 1
EndChar

StartChar: l
Encoding: 108 108 79
Width: 333
Flags: MW
HStem: 0 21G<67 266 67 67> 705 20G<67 266 266 266>
VStem: 67 199<0 725 0 725>
LayerCount: 2
Fore
SplineSet
266 725 m 1
 266 0 l 1
 67 0 l 1
 67 725 l 1
 266 725 l 1
EndSplineSet
Validated: 1
EndChar

StartChar: m
Encoding: 109 109 80
Width: 1000
Flags: HMW
HStem: 0 21G<60 259 60 60 401 600 401 401 742 941 742 742> 393 147<314 460.5> 508 20G<60 223 223 223>
VStem: 60 199<0 310 0 528> 401 199<0 310 0 318 0 340> 742 199<0 318 318 340>
CounterMasks: 1 1c
LayerCount: 2
Fore
SplineSet
259 311 m 1xbc
 259 310 l 1
 259 0 l 1
 60 0 l 1
 60 528 l 1
 223 528 l 1
 236 449 l 1
 259 311 l 1xbc
580 449 m 1
 592 422 600 370 600 310 c 1
 600 0 l 1
 401 0 l 1
 401 318 l 2
 401 362 379 393 338 393 c 0xdc
 330 393 322 392 315 390 c 1
 315 514 l 1
 347 530 383 540 420 540 c 0
 501 540 554 507 580 449 c 1
656 513 m 1
 688 530 724 540 761 540 c 0
 883 540 941 467 941 342 c 2
 941 0 l 1
 742 0 l 1
 742 318 l 2
 742 362 720 393 679 393 c 0
 671 393 663 392 656 390 c 1
 656 513 l 1
EndSplineSet
Validated: 1
EndChar

StartChar: n
Encoding: 110 110 81
Width: 667
Flags: HMW
HStem: 0 21G<60 259 60 60 409 608 409 409> 393 147<317 486.5> 508 20G<60 223 223 223>
VStem: 60 199<0 310 0 528> 409 199<0 318 318 340>
LayerCount: 2
Fore
SplineSet
424 540 m 0xd8
 386 540 348 530 315 514 c 1
 315 389 l 1
 323 392 332 393 342 393 c 0
 386 393 409 362 409 318 c 2
 409 0 l 1
 608 0 l 1
 608 342 l 2
 608 467 549 540 424 540 c 0xd8
259 312 m 1
 236 448 l 2
 236 448 l 2
 223 528 l 1
 60 528 l 1
 60 -0 l 1
 259 -0 l 1
 259 310 l 1
 259 312 l 1
EndSplineSet
Validated: 5
EndChar

StartChar: o
Encoding: 111 111 82
Width: 667
Flags: HMW
HStem: -12 135<298 368 298 423> 405 135<298 368>
VStem: 36 199<200 235 235 292 200 356.5> 432 199<235 292 292 327>
LayerCount: 2
Fore
SplineSet
333 540 m 0
 513 540 631 449 631 264 c 0
 631 79 513 -12 333 -12 c 0
 318.586820269 -12 304.577578941 -11.4165334183 291 -10.2480600336 c 1
 291 129.565795892 l 1
 302.869123244 125.246320505 316.811401369 123 333 123 c 0
 403 123 432 165 432 235 c 2
 432 292 l 2
 432 362 403 405 333 405 c 0
 316.811401369 405 302.869123244 402.700195673 291 398.29849059 c 1
 291 538.248060034 l 1
 304.577578941 539.416533418 318.586820269 540 333 540 c 0
235 -1.53015087647 m 0
 111.701389584 27.2008747182 36 115.190477441 36 264 c 0
 36 412.809522559 111.701389584 500.799125282 235 529.530150876 c 1
 235 -1.53015087647 l 0
EndSplineSet
Validated: 1
EndChar

StartChar: p
Encoding: 112 112 83
Width: 667
Flags: HMW
HStem: -197 21G<61 260 61 61> -12 147<315 478> 393 147<372.5 377> 508 20G<61 223 223 223>
VStem: 61 199<-197 48 -197 528> 432 199<238 291 291 322>
LayerCount: 2
Fore
SplineSet
260 48 m 1xdc
 260 220 l 2
 259 229 258 238 258 248 c 2
 258 281 l 2
 258 291 259 300 260 309 c 2
 260 367 l 1
 240 453 l 2
 240 453 l 2
 223 528 l 1
 61 528 l 1
 61 -197 l 1
 260 -197 l 1
 260 48 l 1xdc
408 540 m 0xec
 374 540 343 534 316 521 c 1
 316 388 l 1
 325 391 335 393 346 393 c 0
 408 393 432 353 432 291 c 2
 432 238 l 2
 432 176 408 135 346 135 c 0
 335 135 325 137 316 140 c 1
 316 7 l 1
 343 -6 374 -12 408 -12 c 0
 548 -12 631 79 631 263 c 0
 631 449 548 540 408 540 c 0xec
EndSplineSet
Validated: 5
EndChar

StartChar: q
Encoding: 113 113 84
Width: 667
Flags: HMW
HStem: -197 21G<407 606 407 407> -12 147<189 352> 393 147<290 294.5 189 352> 508 20G<444 606 606 606>
VStem: 36 199<207 238 238 291 207 356> 407 199<-197 48 48 48>
LayerCount: 2
Fore
SplineSet
321 393 m 0xec
 259 393 235 353 235 291 c 2
 235 238 l 2
 235 176 259 135 321 135 c 0
 332 135 342 137 351 140 c 1
 351 7 l 1
 324 -6 293 -12 259 -12 c 0
 119 -12 36 79 36 263 c 0
 36 449 119 540 259 540 c 0
 293 540 324 534 351 521 c 1
 351 388 l 1
 342 391 332 393 321 393 c 0xec
407 363 m 1
 444 528 l 1xdc
 606 528 l 1
 606 -197 l 1
 407 -197 l 1
 407 363 l 1
EndSplineSet
Validated: 1
EndChar

StartChar: r
Encoding: 114 114 85
Width: 444
Flags: HMW
HStem: 0 21G<60 259 60 60> 362 166<60 376 60 440> 362 179<349.5 376 376 399.5 349.5 440>
VStem: 60 199<0 235 0 528>
LayerCount: 2
Fore
SplineSet
381 541 m 0xb0
 418 541 440 529 440 529 c 1
 440 362 l 1xd0
 376 362 l 2
 351 362 331 358 315 351 c 1
 315 529 l 1
 335 537 358 541 381 541 c 0xb0
259 304 m 1
 259 235 l 1
 259 0 l 1
 60 0 l 1
 60 528 l 1
 223 528 l 1
 259 304 l 1
EndSplineSet
Validated: 1
EndChar

StartChar: s
Encoding: 115 115 86
Width: 611
Flags: HMW
HStem: -12 119<289.5 318 289.5 376.5> 198.18 140.83 370 170<241.5 564 241.5 379> 421 119<299.5 315>
VStem: 32 185<168 172 168 172> 46 190<349 404 349 430.5> 387 190<127.5 185.5>
LayerCount: 2
Fore
SplineSet
311 540 m 0xe2
 436 540 564 495 564 370 c 1
 379 370 l 1xe2
 379 391 368 404 353 411 c 0
 339 419 322 421 308 421 c 0xd2
 304 421 299 421 292 421 c 1
 292 540 l 1
 298 540 305 540 311 540 c 0xe2
236 536 m 1xc6
 236 387 l 2
 236 311 577 390 577 175 c 0
 577 59 495 9 387 -7 c 1
 387 146 l 2
 387 225 46 153 46 361 c 0
 46 474 130 522 236 536 c 1xc6
331 -11 m 1
 322 -12 313 -12 304 -12 c 0
 172 -12 32 40 32 172 c 1
 217 172 l 1
 217 168 l 2xca
 218 117 275 107 304 107 c 0
 312 107 321 107 331 108 c 1
 331 -11 l 1
EndSplineSet
Validated: 1
EndChar

StartChar: t
Encoding: 116 116 87
Width: 444
Flags: MW
HStem: -12 135<230 412> 393 135<27 101 27 109 300 412> 668 20G<152 300 300 300>
VStem: 101 199<169.5 192 192 393>
LayerCount: 2
Fore
SplineSet
300 688 m 1
 300 528 l 1
 412 528 l 1
 412 393 l 1
 300 393 l 1
 300 192 l 2
 300 147 311 123 356 123 c 2
 412 123 l 1
 412 6 l 1
 379 -5 319 -12 284 -12 c 0
 176 -12 101 21 101 129 c 2
 101 393 l 1
 27 393 l 1
 27 528 l 1
 109 528 l 1
 152 688 l 1
 300 688 l 1
EndSplineSet
Validated: 1
EndChar

StartChar: u
Encoding: 117 117 88
Width: 667
Flags: HMW
HStem: -12 147<179.5 349> 0 21G<443 606 443 443> 508 20G<58 257 257 257 407 606 606 606>
VStem: 58 199<188 210 210 528> 407 199<218 528 0 528>
LayerCount: 2
Fore
SplineSet
351 14 m 1xb8
 318 -3 280 -12 242 -12 c 0
 117 -12 58 61 58 186 c 2
 58 528 l 1
 257 528 l 1
 257 210 l 2
 257 166 280 135 324 135 c 0
 334 135 343 136 351 139 c 1
 351 14 l 1xb8
407 528 m 1
 606 528 l 1
 606 0 l 1
 443 0 l 1x78
 407 223 l 1
 407 528 l 1
EndSplineSet
Validated: 1
EndChar

StartChar: v
Encoding: 118 118 89
Width: 611
Flags: HMW
HStem: 0 21G<200 409 200 200> 0 199<311 318 311 409 200 318> 508 20G<0 214 214 214 415 611 611 611>
VStem: 0 611<528 528>
LayerCount: 2
Fore
SplineSet
368.181818182 -1.42108547152e-14 m 1xb0
 200 0 l 1
 0 528 l 1
 214 528 l 1
 368.181818182 -1.42108547152e-14 l 1xb0
417.610005105 22.5053598775 m 1
 611 528 l 1
 415 528 l 1
 342.151387601 280.915531141 l 1
 417.610005105 22.5053598775 l 1
EndSplineSet
Validated: 9
EndChar

StartChar: w
Encoding: 119 119 90
Width: 944
Flags: HMW
HStem: 0 21G<193 387 193 193 556 750 556 556> 0 216<294 301 294 387 193 301 662 669> 508 20G<0 214 214 214 384 582 582 582 750 944 944 944>
VStem: 0 944<528 528>
LayerCount: 2
Fore
SplineSet
349 0 m 1xb0
 193 0 l 1
 0 528 l 1
 214 528 l 1
 349 0 l 1xb0
556 0 m 1
 718 0 l 1xb0
 662 216 l 1
 662 216 l 1x70
 582 528 l 1
 384 528 l 1
 556 0 l 1
764 38 m 1
 944 528 l 1
 750 528 l 1
 764 38 l 1
EndSplineSet
Validated: 5
EndChar

StartChar: x
Encoding: 120 120 91
Width: 667
Flags: MW
HStem: 0 21G<4 225 4 4 430 662 430 430> 508 20G<24 258 258 258 430 650 650 650>
VStem: 4 658<0 0>
LayerCount: 2
Fore
SplineSet
650 528 m 1
 464 275 l 1
 662 0 l 1
 430 0 l 1
 330 166 l 1
 326 166 l 1
 225 0 l 1
 4 0 l 1
 207 280 l 1
 24 528 l 1
 258 528 l 1
 342 388 l 1
 346 388 l 1
 430 528 l 1
 650 528 l 1
EndSplineSet
Validated: 1
EndChar

StartChar: y
Encoding: 121 121 92
Width: 611
Flags: HMW
HStem: -210 137<132 156 41 233> 508 20G<0 214 214 214 415 611 611 611>
VStem: 0 611<528 528>
LayerCount: 2
Fore
SplineSet
611 528 m 1
 423 16 l 2
 421.55316504 12.0513462544 420.090884492 8.13540081187 418.611186543 4.25377946391 c 2
 344.982621009 263.740859938 l 1
 415 528 l 1
 611 528 l 1
384.20248289 -71.8398183422 m 1
 338.382844919 -155.370602248 272.780982459 -210 156 -210 c 0
 108 -210 66 -201 41 -192 c 1
 41 -73 l 1
 121 -73 l 2
 191 -73 205 -26 210 0 c 1
 0 528 l 1
 214 528 l 1
 384.20248289 -71.8398183422 l 1
EndSplineSet
Validated: 1
EndChar

StartChar: z
Encoding: 122 122 93
Width: 556
Flags: HMW
HStem: 0 135<302 535 302 535> 393 135<32 242 32 526>
VStem: 20 515<0 65 65 65>
LayerCount: 2
Fore
SplineSet
185.896602659 393 m 1
 32 393 l 1
 32 528 l 1
 277.225997046 528 l 1
 185.896602659 393 l 1
20 65 m 1
 242 393 l 1
 241.896602659 393 l 1
 333.225997046 528 l 1
 526 528 l 1
 526 466 l 1
 209.943217666 0 l 1
 20 0 l 1
 20 65 l 1
357.504731861 135 m 1
 535 135 l 1
 535 0 l 1
 265.943217666 0 l 1
 357.504731861 135 l 1
EndSplineSet
Validated: 1
EndChar

StartChar: braceleft
Encoding: 123 123 94
Width: 389
Flags: MW
HStem: -160 98<224 349 334.5 349 334.5 349> 250 79<30 50 30 52.5> 639 98<335 349>
VStem: 117 151
LayerCount: 2
Fore
SplineSet
349 737 m 1
 349 639 l 1
 321 639 275 635 273 598 c 2
 263 397 l 2
 260 332 229 294 162 294 c 1
 162 285 l 1
 229 285 260 247 263 182 c 2
 273 -20 l 2
 275 -58 320 -62 349 -62 c 1
 349 -160 l 1
 258 -160 l 2
 190 -160 117 -125 117 -48 c 2
 117 195 l 2
 117 235 75 250 30 250 c 1
 30 329 l 1
 70 329 117 346 117 386 c 2
 117 625 l 2
 117 702 190 737 258 737 c 2
 349 737 l 1
EndSplineSet
Validated: 1
EndChar

StartChar: bar
Encoding: 124 124 95
Width: 278
Flags: MW
HStem: -211 21G<77 201 77 77> 706 20G<77 201 201 201>
VStem: 77 124<-211 726 -211 726>
LayerCount: 2
Fore
SplineSet
201 726 m 1
 201 -211 l 1
 77 -211 l 1
 77 726 l 1
 201 726 l 1
EndSplineSet
Validated: 1
EndChar

StartChar: braceright
Encoding: 125 125 96
Width: 389
Flags: MW
HStem: -160 98<40 54.5 40 131 40 54.5> 250 79<339 359 339 359> 639 98<40 54>
VStem: 121 151
LayerCount: 2
Fore
SplineSet
40 737 m 1
 131 737 l 2
 199 737 272 702 272 625 c 2
 272 386 l 2
 272 346 319 329 359 329 c 1
 359 250 l 1
 314 250 272 235 272 195 c 2
 272 -48 l 2
 272 -125 199 -160 131 -160 c 2
 40 -160 l 1
 40 -62 l 1
 69 -62 114 -58 116 -20 c 2
 126 182 l 2
 129 247 160 285 227 285 c 1
 227 294 l 1
 160 294 129 332 126 397 c 2
 116 598 l 2
 114 635 68 639 40 639 c 1
 40 737 l 1
EndSplineSet
Validated: 1
EndChar

StartChar: asciitilde
Encoding: 126 126 97
Width: 660
Flags: MW
HStem: 199 130<431 502> 267 130<158 229 158 230>
VStem: 39 582<279 317 317 317>
LayerCount: 2
Fore
SplineSet
621 409 m 1xa0
 621 279 l 1
 621 279 551 199 453 199 c 0xa0
 409 199 370 216 331 233 c 0
 292 250 253 267 207 267 c 0
 109 267 39 187 39 187 c 1
 39 317 l 1
 39 317 109 397 207 397 c 0x60
 251 397 290 380 329 363 c 0
 368 346 408 329 453 329 c 0
 551 329 621 409 621 409 c 1xa0
EndSplineSet
Validated: 1
EndChar

StartChar: Euro
Encoding: 8364 8364 98
Width: 667
Flags: MW
HStem: -12 139<462 501.5> 227 93<23 113 23 126 23 113 332 540 332 332> 368 93<23 113 23 126 331 540> 561 139<461.5 506.5 406.5 541>
VStem: 113 196<341.5 346 346 368 341.5 368>
LayerCount: 2
Fore
SplineSet
474 700 m 0
 539 700 593 691 628 681 c 1
 628 536 l 1
 628 536 577 561 505 561 c 0
 418 561 360 523 331 461 c 1
 540 461 l 1
 540 368 l 1
 309 368 l 1
 309 346 l 2
 309 337 309 328 310 320 c 1
 540 320 l 1
 540 227 l 1
 332 227 l 1
 362 165 419 127 505 127 c 0
 577 127 628 154 628 154 c 1
 628 13 l 1
 586 0 532 -12 471 -12 c 0
 345 -12 177 42 126 227 c 1
 23 227 l 1
 23 320 l 1
 113 320 l 1
 113 368 l 1
 23 368 l 1
 23 461 l 1
 126 461 l 1
 177 645 339 700 474 700 c 0
EndSplineSet
Validated: 1
EndChar

StartChar: quotesinglbase
Encoding: 8218 8218 99
Width: 278
Flags: MW
HStem: 0 175<44 115 44 230>
VStem: 44 186<10 175 10 175 10 175>
LayerCount: 2
Fore
SplineSet
230 175 m 1
 230 10 l 1
 139 -182 l 1
 44 -182 l 1
 115 0 l 1
 44 0 l 1
 44 175 l 1
 230 175 l 1
EndSplineSet
Validated: 1
EndChar

StartChar: florin
Encoding: 402 402 100
Width: 667
Flags: MW
HStem: -210 21G<125.5 197> -210 135<125.5 129 61 197> 354 135<209 254 180 283 482 555> 602 135<540 543.5 472 562 472 608> 717 20G<472 543.5>
VStem: 36 597
LayerCount: 2
Fore
SplineSet
529 737 m 0xb4
 558 737 608 729 633 719 c 1xac
 608 602 l 1
 562 602 l 2
 518 602 503 586 495 549 c 2
 482 489 l 1
 584 489 l 1
 555 354 l 1
 453 354 l 1
 373 -23 l 2
 342 -167 254 -210 140 -210 c 0x74
 111 -210 61 -202 36 -192 c 1xb4
 61 -75 l 1
 107 -75 l 2
 151 -75 166 -59 174 -22 c 2x74
 254 354 l 1
 180 354 l 1
 209 489 l 1
 283 489 l 1
 296 550 l 2
 327 694 415 737 529 737 c 0xb4
EndSplineSet
Validated: 1
EndChar

StartChar: quotedblbase
Encoding: 8222 8222 101
Width: 500
Flags: MW
HStem: 0 175<44 115 44 230 44 273 273 344>
VStem: 44 186<10 175 10 175 10 175> 273 186<10 175 10 175 10 175>
LayerCount: 2
Fore
SplineSet
230 175 m 1
 230 10 l 1
 139 -182 l 1
 44 -182 l 1
 115 0 l 1
 44 0 l 1
 44 175 l 1
 230 175 l 1
459 175 m 1
 459 10 l 1
 368 -182 l 1
 273 -182 l 1
 344 0 l 1
 273 0 l 1
 273 175 l 1
 459 175 l 1
EndSplineSet
Validated: 1
EndChar

StartChar: ellipsis
Encoding: 8230 8230 102
Width: 1000
Flags: MW
HStem: 0 199<61 273 61 273 61 394 394 606 728 940>
VStem: 61 212<0 199 0 199> 394 212<0 199 0 199> 728 212<0 199 0 199>
LayerCount: 2
Fore
SplineSet
273 199 m 1
 273 0 l 1
 61 0 l 1
 61 199 l 1
 273 199 l 1
606 199 m 1
 606 0 l 1
 394 0 l 1
 394 199 l 1
 606 199 l 1
940 199 m 1
 940 0 l 1
 728 0 l 1
 728 199 l 1
 940 199 l 1
EndSplineSet
Validated: 1
EndChar

StartChar: dagger
Encoding: 8224 8224 103
Width: 667
Flags: MW
HStem: 668 20G<263 410 410 410>
VStem: 273 127
LayerCount: 2
Fore
SplineSet
410 688 m 1
 390 486 l 1
 604 507 l 1
 604 360 l 1
 390 381 l 1
 410 -185 l 1
 263 -185 l 1
 283 381 l 1
 69 360 l 1
 69 507 l 1
 283 486 l 1
 263 688 l 1
 410 688 l 1
EndSplineSet
Validated: 1
EndChar

StartChar: daggerdbl
Encoding: 8225 8225 104
Width: 667
Flags: MW
HStem: -199 21G<263 410 263 263> 668 20G<263 410 410 410>
VStem: 69 535<-17 130 -17 130 360 507 -17 507>
LayerCount: 2
Fore
SplineSet
410 688 m 1
 390 486 l 1
 604 507 l 1
 604 360 l 1
 390 381 l 1
 410 246 l 1
 390 109 l 1
 604 130 l 1
 604 -17 l 1
 390 4 l 1
 410 -199 l 1
 263 -199 l 1
 283 4 l 1
 69 -17 l 1
 69 130 l 1
 283 109 l 1
 263 246 l 1
 283 381 l 1
 69 360 l 1
 69 507 l 1
 283 486 l 1
 263 688 l 1
 410 688 l 1
EndSplineSet
Validated: 1
EndChar

StartChar: circumflex
Encoding: 710 710 105
Width: 333
Flags: MW
HStem: 580 145<-35 232 -35 232 104 371 104 241> 657 68<167 167>
VStem: -35 406<580 580>
LayerCount: 2
Fore
SplineSet
232 725 m 1xa0
 371 580 l 1
 241 580 l 1xa0
 167 657 l 1x60
 93 580 l 1
 -35 580 l 1
 104 725 l 1
 232 725 l 1xa0
EndSplineSet
Validated: 1
EndChar

StartChar: perthousand
Encoding: 8240 8240 106
Width: 1000
Flags: MW
HStem: -12 68<504.5 539.5 504.5 579.5 835.5 870.5> 0 21G<167 253 167 167> 278 68<504.5 539.5 835.5 870.5> 342 68<129.5 164.5 129.5 204.5> 632 68<129.5 164.5> 668 20G<417 504 504 504>
VStem: 0 99<467.5 496 496 546 465.5 574.5> 194 100<496 546 546 574.5 467.5 576.5> 375 99<113.5 142 142 192 111.5 220.5> 569 100<142 192 192 220.5 113.5 222.5> 706 99<113.5 142 142 192 111.5 220.5> 900 100<142 192 192 220.5 113.5 222.5>
LayerCount: 2
Fore
SplineSet
147 632 m 0xabf0
 112 632 99 607 99 546 c 2
 99 496 l 2
 99 435 112 410 147 410 c 0
 182 410 194 435 194 496 c 2x1b
 194 546 l 2
 194 607 182 632 147 632 c 0xabf0
147 700 m 0
 262 700 294 628 294 521 c 0
 294 414 262 342 147 342 c 0x13
 33 342 0 414 0 521 c 0
 0 628 33 700 147 700 c 0
522 278 m 0
 487 278 474 253 474 192 c 2
 474 142 l 2
 474 81 487 56 522 56 c 0
 557 56 569 81 569 142 c 2
 569 192 l 2
 569 253 557 278 522 278 c 0
522 346 m 0
 637 346 669 274 669 167 c 0
 669 60 637 -12 522 -12 c 0
 408 -12 375 60 375 167 c 0
 375 274 408 346 522 346 c 0
853 278 m 0
 818 278 805 253 805 192 c 2
 805 142 l 2
 805 81 818 56 853 56 c 0
 888 56 900 81 900 142 c 2
 900 192 l 2
 900 253 888 278 853 278 c 0
853 346 m 0
 968 346 1000 274 1000 167 c 0
 1000 60 968 -12 853 -12 c 0
 739 -12 706 60 706 167 c 0
 706 274 739 346 853 346 c 0
504 688 m 1x4480
 253 0 l 1
 167 0 l 1
 417 688 l 1
 504 688 l 1x4480
EndSplineSet
Validated: 1
EndChar

StartChar: Scaron
Encoding: 352 352 107
Width: 722
Flags: MW
HStem: -12 158<329 383 329 469.5> 256.85 178.13 550 150 740 145
VStem: 43 209<196 233 196 233> 54 226<453.5 517 453.5 560> 460 207<476 480 480 488 476 498> 460 226<170.5 228 142.5 241.5>
LayerCount: 2
Fore
SplineSet
363 700 m 0xf6
 529 700 664 635 667 488 c 2
 667 476 l 1
 460 476 l 1
 460 480 l 2xf6
 460 516 435 550 371 550 c 0
 310 550 280 529 280 505 c 0xf5
 280 402 681 483 686 228 c 0
 686 57 556 -12 383 -12 c 0
 190 -12 43 37 43 233 c 1
 252 233 l 1xf9
 252 159 295 146 363 146 c 0
 403 146 460 149 460 192 c 0xf5
 460 291 54 212 54 480 c 0
 54 640 200 700 363 700 c 0xf6
564 885 m 1
 425 740 l 1
 297 740 l 1
 158 885 l 1
 286 885 l 1
 360 808 l 1
 435 885 l 1
 564 885 l 1
EndSplineSet
Validated: 1
EndChar

StartChar: guilsinglleft
Encoding: 8249 8249 108
Width: 333
Flags: MW
HStem: 508 20G<178 321 321 321>
VStem: 11 310<119 324>
LayerCount: 2
Fore
SplineSet
321 528 m 1
 183 324 l 1
 321 119 l 1
 178 119 l 1
 11 324 l 1
 178 528 l 1
 321 528 l 1
EndSplineSet
Validated: 1
EndChar

StartChar: OE
Encoding: 338 338 109
Width: 1000
Flags: MW
HStem: -12 165<327.5 347.5> 0 153<327.5 973 327.5 495> 0 165<689 973 689 973> 270 158<689 912 689 912> 523 165<689 966 689 689> 535 153<327.5 966> 535 165<327.5 347.5 221.5 412.5>
VStem: 35 209<265 312 312 376 265 456.5> 496 193<165 376 165 423>
LayerCount: 2
Fore
SplineSet
973 0 m 1x3980
 495 0 l 1x3980
 495 62 l 1
 449 14 386 -12 309 -12 c 0
 134 -12 35 119 35 344 c 0
 35 569 134 700 309 700 c 0
 386 700 449 674 495 625 c 1x9380
 495 688 l 1
 966 688 l 1
 966 523 l 1
 689 523 l 1
 689 428 l 1
 912 428 l 1
 912 270 l 1
 689 270 l 1
 689 165 l 1
 973 165 l 1
 973 0 l 1x3980
496 312 m 2
 496 376 l 2
 496 470 455 535 370 535 c 0
 285 535 244 470 244 376 c 2
 244 312 l 2
 244 218 285 153 370 153 c 0x5580
 455 153 496 218 496 312 c 2
EndSplineSet
Validated: 1
EndChar

StartChar: Zcaron
Encoding: 381 381 110
Width: 722
Flags: MW
HStem: 0 165<364 691 364 691> 523 165<48 343 48 683> 740 145<158 425 158 297>
VStem: 24 667<0 71 71 71>
LayerCount: 2
Fore
SplineSet
683 688 m 1
 683 617 l 1
 364 165 l 1
 691 165 l 1
 691 0 l 1
 24 0 l 1
 24 71 l 1
 343 523 l 1
 48 523 l 1
 48 688 l 1
 683 688 l 1
564 885 m 1
 425 740 l 1
 297 740 l 1
 158 885 l 1
 286 885 l 1
 360 808 l 1
 435 885 l 1
 564 885 l 1
EndSplineSet
Validated: 1
EndChar

StartChar: quoteleft
Encoding: 8216 8216 111
Width: 278
Flags: MW
HStem: 331 175<159 230 159 230 44 230> 668 20G<135 230 230 230>
VStem: 44 186<331 496 496 496>
LayerCount: 2
Fore
SplineSet
230 688 m 1
 159 506 l 1
 230 506 l 1
 230 331 l 1
 44 331 l 1
 44 496 l 1
 135 688 l 1
 230 688 l 1
EndSplineSet
Validated: 1
EndChar

StartChar: quoteright
Encoding: 8217 8217 112
Width: 278
Flags: MW
HStem: 513 175<48 119 48 234>
VStem: 48 186<523 688 523 688 523 688>
LayerCount: 2
Fore
SplineSet
234 688 m 1
 234 523 l 1
 143 331 l 1
 48 331 l 1
 119 513 l 1
 48 513 l 1
 48 688 l 1
 234 688 l 1
EndSplineSet
Validated: 1
EndChar

StartChar: quotedblleft
Encoding: 8220 8220 113
Width: 500
Flags: MW
HStem: 331 175<156 227 156 227 41 227 156 270 385 456> 668 20G<132 227 227 227 361 456 456 456>
VStem: 41 186<331 496 496 496> 270 186<331 496 496 496>
LayerCount: 2
Fore
SplineSet
227 688 m 1
 156 506 l 1
 227 506 l 1
 227 331 l 1
 41 331 l 1
 41 496 l 1
 132 688 l 1
 227 688 l 1
456 688 m 1
 385 506 l 1
 456 506 l 1
 456 331 l 1
 270 331 l 1
 270 496 l 1
 361 688 l 1
 456 688 l 1
EndSplineSet
Validated: 1
EndChar

StartChar: quotedblright
Encoding: 8221 8221 114
Width: 500
Flags: MW
HStem: 513 175<44 115 44 230 44 273 273 344>
VStem: 44 186<523 688 523 688 523 688> 273 186<523 688 523 688 523 688>
LayerCount: 2
Fore
SplineSet
230 688 m 1
 230 523 l 1
 139 331 l 1
 44 331 l 1
 115 513 l 1
 44 513 l 1
 44 688 l 1
 230 688 l 1
459 688 m 1
 459 523 l 1
 368 331 l 1
 273 331 l 1
 344 513 l 1
 273 513 l 1
 273 688 l 1
 459 688 l 1
EndSplineSet
Validated: 1
EndChar

StartChar: bullet
Encoding: 8226 8226 115
Width: 500
Flags: MW
HStem: 183 324<205.5 294.5>
VStem: 88 324<300.5 389.5>
LayerCount: 2
Fore
SplineSet
250 507 m 0
 339 507 412 434 412 345 c 0
 412 256 339 183 250 183 c 0
 161 183 88 256 88 345 c 0
 88 434 161 507 250 507 c 0
EndSplineSet
Validated: 1
EndChar

StartChar: endash
Encoding: 8211 8211 116
Width: 500
Flags: MW
HStem: 196 138<0 500 0 500>
VStem: 0 500<196 334 196 334>
LayerCount: 2
Fore
SplineSet
500 334 m 1
 500 196 l 1
 0 196 l 1
 0 334 l 1
 500 334 l 1
EndSplineSet
Validated: 1
EndChar

StartChar: emdash
Encoding: 8212 8212 117
Width: 1000
Flags: MW
HStem: 196 138<0 1002 0 1002>
VStem: 0 1002<196 334 196 334>
LayerCount: 2
Fore
SplineSet
1002 334 m 1
 1002 196 l 1
 0 196 l 1
 0 334 l 1
 1002 334 l 1
EndSplineSet
Validated: 1
EndChar

StartChar: tilde
Encoding: 732 732 118
Width: 333
Flags: MW
HStem: 582 103<230 269.5 230 290> 582 143<-56 116 -56 116 42 290> 622 103<62.5 102>
VStem: -56 444<582 725>
LayerCount: 2
Fore
SplineSet
307 725 m 1x50
 388 725 l 1x50
 388 653 332 582 248 582 c 0x90
 184 582 129 622 75 622 c 0x30
 50 622 32 605 25 582 c 1
 -56 582 l 1
 -56 654 0 725 84 725 c 0x50
 148 725 203 685 257 685 c 0x90
 282 685 300 702 307 725 c 1x50
EndSplineSet
Validated: 1
EndChar

StartChar: trademark
Encoding: 8482 8482 119
Width: 950
Flags: MW
HStem: 290 168<438 682 677 682 677 721 621 682 677 914 677 788> 586 102<18 149 18 407 277 407 277 277>
VStem: 149 128<290 586 290 586> 438 117<290 414 290 688> 788 126<290 414 414 447.5>
LayerCount: 2
Fore
SplineSet
914 688 m 1
 914 290 l 1
 788 290 l 1
 788 414 l 2
 788 481 799 560 799 560 c 1
 795 560 l 1
 721 290 l 1
 621 290 l 1
 547 559 l 1
 543 559 l 1
 543 559 555 481 555 414 c 2
 555 290 l 1
 438 290 l 1
 438 688 l 1
 618 688 l 1
 677 458 l 1
 682 458 l 1
 740 688 l 1
 914 688 l 1
407 688 m 1
 407 586 l 1
 277 586 l 1
 277 290 l 1
 149 290 l 1
 149 586 l 1
 18 586 l 1
 18 688 l 1
 407 688 l 1
EndSplineSet
Validated: 1
EndChar

StartChar: scaron
Encoding: 353 353 120
Width: 611
Flags: MW
HStem: -12 119<289.5 318 289.5 376.5> 198.18 140.83 370 170<241.5 564 241.5 379> 421 119<299.5 315> 580 145<103 370 103 242>
VStem: 32 185<168 172 168 172> 46 190<349 404 349 430.5> 387 190<127.5 185.5>
LayerCount: 2
Fore
SplineSet
311 540 m 0xdb
 436 540 564 495 564 370 c 1
 379 370 l 1xeb
 379 391 368 404 353 411 c 0
 339 419 322 421 308 421 c 0
 291 421 236 421 236 387 c 0xdb
 236 311 577 390 577 175 c 0
 577 30 449 -12 304 -12 c 0
 172 -12 32 40 32 172 c 1
 217 172 l 1
 217 168 l 2xdd
 218 117 275 107 304 107 c 0
 332 107 387 109 387 146 c 0
 387 225 46 153 46 361 c 0
 46 500 172 540 311 540 c 0xdb
509 725 m 1
 370 580 l 1
 242 580 l 1
 103 725 l 1
 230 725 l 1
 305 648 l 1
 379 725 l 1
 509 725 l 1
EndSplineSet
Validated: 1
EndChar

StartChar: guilsinglright
Encoding: 8250 8250 121
Width: 333
Flags: MW
HStem: 508 20G<12 155 155 155>
VStem: 12 310<119 324 324 528>
LayerCount: 2
Fore
SplineSet
150 324 m 1
 12 528 l 1
 155 528 l 1
 322 324 l 1
 155 119 l 1
 12 119 l 1
 150 324 l 1
EndSplineSet
Validated: 1
EndChar

StartChar: oe
Encoding: 339 339 122
Width: 1000
Flags: MW
HStem: -12 127<659.5 726 659.5 789.5> -12 135<284.5 347.5 284.5 353> 230 94<599 773 599 974 598 773> 405 135<284.5 347.5> 413 127<663.5 719>
VStem: 29 199<200 235 235 292 200 356.5> 405 193<193.5 292 193.5 327> 773 201<129 351.5> 781 193<170.5 192>
LayerCount: 2
Fore
SplineSet
686 540 m 0xaf
 870 540 974 454 974 264 c 2
 974 230 l 1xaf
 598 230 l 1
 598 157 625 115 694 115 c 0
 758 115 781 149 781 192 c 1
 974 192 l 1xae80
 974 66 881 -12 698 -12 c 0
 618 -12 552 4 502 38 c 1
 453 4 390 -12 316 -12 c 0
 142 -12 29 79 29 264 c 0
 29 449 142 540 316 540 c 0
 390 540 454 523 502 490 c 1
 550 523 612 540 686 540 c 0xaf
316 405 m 0x77
 253 405 228 362 228 292 c 2
 228 235 l 2
 228 165 253 123 316 123 c 0
 379 123 405 165 405 235 c 2
 405 292 l 2
 405 362 379 405 316 405 c 0x77
694 413 m 0xaf
 633 413 605 379 599 324 c 1
 773 324 l 1
 773 379 744 413 694 413 c 0xaf
EndSplineSet
Validated: 1
EndChar

StartChar: zcaron
Encoding: 382 382 123
Width: 556
Flags: MW
HStem: 0 135<302 535 302 535> 393 135<32 242 32 526> 580 145<75 342 75 214>
VStem: 20 515<0 65 65 65>
LayerCount: 2
Fore
SplineSet
526 528 m 1
 526 466 l 1
 302 135 l 1
 535 135 l 1
 535 0 l 1
 20 0 l 1
 20 65 l 1
 242 393 l 1
 32 393 l 1
 32 528 l 1
 526 528 l 1
481 725 m 1
 342 580 l 1
 214 580 l 1
 75 725 l 1
 203 725 l 1
 277 648 l 1
 352 725 l 1
 481 725 l 1
EndSplineSet
Validated: 1
EndChar

StartChar: Ydieresis
Encoding: 376 376 124
Width: 778
Flags: MW
HStem: 0 21G<280 501 280 280> 668 20G<7 261 261 261 529 770 770 770> 746 139<203 355 203 355 423 575 203 423>
VStem: 203 152<746 885 746 885> 280 221<0 267 0 267> 423 152<746 885 746 885>
LayerCount: 2
Fore
SplineSet
770 688 m 1xe8
 501 267 l 1
 501 0 l 1
 280 0 l 1
 280 267 l 1
 7 688 l 1
 261 688 l 1
 393 459 l 1
 397 459 l 1
 529 688 l 1
 770 688 l 1xe8
575 885 m 1xf4
 575 746 l 1
 423 746 l 1
 423 885 l 1
 575 885 l 1xf4
355 885 m 1
 355 746 l 1
 203 746 l 1
 203 885 l 1
 355 885 l 1
EndSplineSet
Validated: 1
EndChar

StartChar: exclamdown
Encoding: 161 161 126
Width: 333
Flags: MW
HStem: 343 185<67 265 67 265>
VStem: 67 198<343 528 343 528>
LayerCount: 2
Fore
SplineSet
229 282 m 1
 286 -160 l 1
 47 -160 l 1
 102 282 l 1
 229 282 l 1
265 528 m 1
 265 343 l 1
 67 343 l 1
 67 528 l 1
 265 528 l 1
EndSplineSet
Validated: 1
EndChar

StartChar: cent
Encoding: 162 162 127
Width: 667
Flags: MW
HStem: -67 271<300.5 369.5 300.5 392 279 369.5> 486 270<298 364>
VStem: 36 199<281 316 316 373 281 429> 282.5 105.5 439 185<263.5 296>
LayerCount: 2
Fore
SplineSet
392 756 m 1
 384 618 l 1
 521 605 624 539 624 396 c 1
 431 396 l 1
 431 458 395 486 333 486 c 0
 263 486 235 443 235 373 c 2
 235 316 l 2
 235 246 264 204 337 204 c 0
 402 204 439 231 439 296 c 1
 624 296 l 1
 624 152 521 84 384 71 c 1
 392 -67 l 1
 279 -67 l 1
 286 71 l 1
 133 86 36 176 36 345 c 0
 36 513 133 604 286 619 c 1
 279 756 l 1
 392 756 l 1
EndSplineSet
Validated: 1
EndChar

StartChar: sterling
Encoding: 163 163 128
Width: 667
Flags: MW
HStem: 0 147<61 125 302 584 61 125> 276 127<31 125 31 125 323 419> 552 148<365 397>
VStem: 125 198<147 494 276 494 403 493 493 494 403 550.5> 439 199<466 494 466 510>
LayerCount: 2
Fore
SplineSet
381 700 m 0
 550 700 638 608 638 494 c 2
 638 466 l 1
 439 466 l 1
 439 494 l 2
 439 526 413 552 381 552 c 0
 349 552 323 526 323 494 c 2
 323 403 l 1
 419 403 l 1
 419 276 l 1
 322 276 l 1
 302 147 l 1
 584 147 l 1
 584 0 l 1
 61 0 l 1
 61 147 l 1
 125 147 l 1
 125 276 l 1
 31 276 l 1
 31 403 l 1
 125 403 l 1
 125 493 l 2
 125 608 203 700 381 700 c 0
EndSplineSet
Validated: 1
EndChar

StartChar: currency
Encoding: 164 164 129
Width: 660
Flags: MW
HStem: 91 110<301 357.5> 477 110<302.5 357 302.5 367.5>
VStem: 81 120<311 366> 457 120<312 367 312 376>
LayerCount: 2
Fore
SplineSet
523 603 m 1
 591 535 l 1
 535 479 l 1
 561 451 577 395 577 339 c 0
 577 285 561 231 533 197 c 1
 589 141 l 1
 529 81 l 1
 471 139 l 1
 441 109 386 91 329 91 c 0
 273 91 219 108 187 137 c 1
 130 80 l 1
 69 141 l 1
 127 199 l 1
 98 232 81 283 81 339 c 0
 81 393 96 449 127 479 c 1
 69 537 l 1
 132 600 l 1
 189 543 l 1
 219 569 276 587 329 587 c 0
 385 587 439 569 465 545 c 1
 523 603 l 1
329 477 m 0
 255 477 201 415 201 339 c 0
 201 262 256 201 329 201 c 0
 406 201 457 265 457 339 c 0
 457 413 406 477 329 477 c 0
EndSplineSet
Validated: 1
EndChar

StartChar: yen
Encoding: 165 165 130
Width: 667
Flags: MW
HStem: 0 21G<235 436 235 235> 225 93<32 207 32 235 32 207 463 638> 366 93<32 129 32 180 32 129 540 638> 668 20G<2 232 232 232 448 665 665 665>
VStem: 235 201<0 225 0 225>
LayerCount: 2
Fore
SplineSet
665 688 m 1
 540 459 l 1
 638 459 l 1
 638 366 l 1
 489 366 l 1
 463 318 l 1
 638 318 l 1
 638 225 l 1
 436 225 l 1
 436 0 l 1
 235 0 l 1
 235 225 l 1
 32 225 l 1
 32 318 l 1
 207 318 l 1
 180 366 l 1
 32 366 l 1
 32 459 l 1
 129 459 l 1
 2 688 l 1
 232 688 l 1
 338 459 l 1
 342 459 l 1
 448 688 l 1
 665 688 l 1
EndSplineSet
Validated: 1
EndChar

StartChar: brokenbar
Encoding: 166 166 131
Width: 278
Flags: MW
HStem: -210 21G<78 202 78 78> 706 20G<78 202 202 202>
VStem: 78 124<-210 180 -210 180 336 726>
LayerCount: 2
Fore
SplineSet
202 726 m 1
 202 336 l 1
 78 336 l 1
 78 726 l 1
 202 726 l 1
202 180 m 1
 202 -210 l 1
 78 -210 l 1
 78 180 l 1
 202 180 l 1
EndSplineSet
Validated: 1
EndChar

StartChar: section
Encoding: 167 167 132
Width: 667
Flags: MW
HStem: -184 163<77 392.5> 537 163<274.5 590 274.5 409> 582 118<322 354.5>
VStem: 54 167<270 295> 69 194<502.5 559.5 500 594.5> 77 181<-31 -21 -37.5 -21> 404 194<-43.5 13.5 -78.5 16> 409 181<537 547 537 553.5> 446 167<220.5 246>
LayerCount: 2
Fore
SplineSet
330 700 m 0xc9
 439 700 590 666 590 547 c 2
 590 537 l 1
 409 537 l 1xc9
 409 570 370 582 339 582 c 0
 305 582 263 573 263 546 c 0
 263 454 613 457 613 261 c 0xa880
 613 180 553 130 522 109 c 1
 567 78 598 40 598 -13 c 0
 598 -144 448 -184 337 -184 c 0
 228 -184 77 -150 77 -31 c 2
 77 -21 l 1
 258 -21 l 1xc6
 258 -54 297 -66 328 -66 c 0
 362 -66 404 -57 404 -30 c 0
 404 62 54 59 54 255 c 0xd2
 54 335 113 386 144 407 c 1
 100 437 69 476 69 529 c 0
 69 660 219 700 330 700 c 0xc9
252 351 m 1xd080
 237 339 221 322 221 301 c 0
 221 239 319 206 415 165 c 1
 430 177 446 193 446 215 c 0
 446 277 348 310 252 351 c 1xd080
EndSplineSet
Validated: 1
EndChar

StartChar: dieresis
Encoding: 168 168 133
Width: 333
Flags: MW
HStem: 586 139<-20 132 -20 132 200 352 -20 200>
VStem: -20 152<586 725 586 725> 200 152<586 725 586 725>
LayerCount: 2
Fore
SplineSet
352 725 m 1
 352 586 l 1
 200 586 l 1
 200 725 l 1
 352 725 l 1
132 725 m 1
 132 586 l 1
 -20 586 l 1
 -20 725 l 1
 132 725 l 1
EndSplineSet
Validated: 1
EndChar

StartChar: copyright
Encoding: 169 169 134
Width: 800
Flags: MW
HStem: -12 65<314.5 485.5 314.5 505> 130 99<376 429 376 468> 459 99<375.5 427.5> 636 64<314.5 485.5>
VStem: 44 77<257 433 257 444.5> 190 136<296.5 325 325 363 296.5 414.5> 481 123<281 305> 681 77<257 433>
LayerCount: 2
Fore
SplineSet
400 700 m 0
 610 700 758 544 758 345 c 0
 758 146 610 -12 400 -12 c 0
 190 -12 44 146 44 345 c 0
 44 544 190 700 400 700 c 0
405 558 m 0
 525 558 604 496 604 381 c 1
 477 381 l 1
 477 428 451 459 404 459 c 0
 347 459 326 420 326 363 c 2
 326 325 l 2
 326 268 349 229 403 229 c 0
 455 229 481 257 481 305 c 1
 604 305 l 1
 604 191 531 130 405 130 c 0
 263 130 190 203 190 344 c 0
 190 485 263 558 405 558 c 0
400 636 m 0
 229 636 121 521 121 345 c 0
 121 169 229 53 400 53 c 0
 571 53 681 169 681 345 c 0
 681 521 571 636 400 636 c 0
EndSplineSet
Validated: 1
EndChar

StartChar: ordfeminine
Encoding: 170 170 135
Width: 400
Flags: MW
HStem: 405 75<98 203.5> 405 81<331.5 406.5> 551 56<212.5 251> 630 107<143.5 151> 660 77<189.5 215>
VStem: 12 131<497.5 521.5 497.5 541.5> 22 129<637.5 642 630 668> 251 130<524 551 551 551 607 623 623 633 503.5 635.5>
LayerCount: 2
Fore
SplineSet
203 737 m 0x95
 297 737 381 711 381 633 c 2
 381 510 l 2
 381 497 388 486 402 486 c 0
 411 486 426 489 426 489 c 1
 426 420 l 1
 426 420 401 405 358 405 c 0x55
 305 405 274 421 262 445 c 1
 233 424 194 405 134 405 c 0
 62 405 12 428 12 494 c 0xb5
 12 589 100 607 251 607 c 1
 251 623 l 2
 251 648 229 660 201 660 c 0xab
 178 660 151 654 151 630 c 1
 23 630 l 2
 22 633 22 636 22 639 c 0x93
 22 697 84 737 203 737 c 0x95
251 524 m 2
 251 551 l 1xb5
 174 551 143 533 143 510 c 0
 143 485 165 480 187 480 c 0
 220 480 251 498 251 524 c 2
EndSplineSet
Validated: 1
EndChar

StartChar: guillemotleft
Encoding: 171 171 136
Width: 667
Flags: MW
HStem: 324 204<60 370 232 232 296 296 468 468> 508 20G<227 370 370 370 463 606 606 606>
VStem: 60 546<119 324>
LayerCount: 2
Fore
SplineSet
606 528 m 1x60
 468 324 l 1
 606 119 l 1
 463 119 l 1
 296 324 l 1xa0
 463 528 l 1
 606 528 l 1x60
370 528 m 1
 232 324 l 1
 370 119 l 1
 227 119 l 1
 60 324 l 1
 227 528 l 1
 370 528 l 1
EndSplineSet
Validated: 1
EndChar

StartChar: logicalnot
Encoding: 172 172 137
Width: 660
Flags: MW
HStem: 335 155<50 450 50 604>
VStem: 450 154<154 335 335 335>
LayerCount: 2
Fore
SplineSet
604 490 m 1
 604 154 l 1
 450 154 l 1
 450 335 l 1
 50 335 l 1
 50 490 l 1
 604 490 l 1
EndSplineSet
Validated: 1
EndChar

StartChar: uni00AD
Encoding: 173 173 138
Width: 333
Flags: MW
HStem: 196 158<39 294 39 294>
VStem: 39 255<196 354 196 354>
LayerCount: 2
Fore
SplineSet
294 354 m 1
 294 196 l 1
 39 196 l 1
 39 354 l 1
 294 354 l 1
EndSplineSet
Validated: 1
EndChar

StartChar: registered
Encoding: 174 174 139
Width: 800
Flags: MW
HStem: -12 65<314.5 485.5 314.5 505> 284 92<365 384 365 400> 457 94<365 400 365 365> 636 64<314.5 485.5>
VStem: 44 77<257 433 257 444.5> 232 133<138 284 138 376 376 457> 438 135<177.5 265 416 428.5> 681 77<257 433>
LayerCount: 2
Fore
SplineSet
400 700 m 0
 610 700 758 544 758 345 c 0
 758 146 610 -12 400 -12 c 0
 190 -12 44 146 44 345 c 0
 44 544 190 700 400 700 c 0
400 636 m 0
 229 636 121 521 121 345 c 0
 121 169 229 53 400 53 c 0
 571 53 681 169 681 345 c 0
 681 521 571 636 400 636 c 0
232 551 m 1
 458 551 l 2
 521 551 573 510 573 447 c 0
 573 385 533 355 506 344 c 1
 506 339 l 1
 553 326 573 288 573 242 c 0
 573 217 574 176 604 168 c 1
 604 143 l 1
 582 134 554 131 531 131 c 0
 471 131 438 150 438 205 c 0
 438 240 436 284 384 284 c 2
 365 284 l 1
 365 138 l 1
 232 138 l 1
 232 551 l 1
400 457 m 2
 365 457 l 1
 365 376 l 1
 400 376 l 2
 421 376 438 393 438 417 c 0
 438 440 421 457 400 457 c 2
EndSplineSet
Validated: 1
EndChar

StartChar: macron
Encoding: 175 175 140
Width: 333
Flags: MW
HStem: 605 100<9 325 9 325>
VStem: 9 316<605 705 605 705>
LayerCount: 2
Fore
SplineSet
325 705 m 1
 325 605 l 1
 9 605 l 1
 9 705 l 1
 325 705 l 1
EndSplineSet
Validated: 1
EndChar

StartChar: degree
Encoding: 176 176 141
Width: 400
Flags: MW
HStem: 400 87<182 216 182 241> 611 89<182 215.5>
VStem: 50 87<550 566 532 591> 261 89<532 566>
LayerCount: 2
Fore
SplineSet
200 700 m 0
 282 700 350 632 350 550 c 0
 350 467 282 400 200 400 c 0
 117 400 51 467 50 550 c 0
 50 632 117 700 200 700 c 0
198 611 m 0
 166 611 137 583 137 549 c 0
 137 515 165 487 199 487 c 0
 233 487 261 515 261 549 c 0
 261 583 233 611 198 611 c 0
EndSplineSet
Validated: 1
EndChar

StartChar: plusminus
Encoding: 177 177 142
Width: 660
Flags: MW
HStem: 0 132<66 594 66 594> 358 132<66 264 66 264 396 594>
VStem: 264 132<176 358 176 358 490 672>
LayerCount: 2
Fore
SplineSet
396 672 m 1
 396 490 l 1
 594 490 l 1
 594 358 l 1
 396 358 l 1
 396 176 l 1
 264 176 l 1
 264 358 l 1
 66 358 l 1
 66 490 l 1
 264 490 l 1
 264 672 l 1
 396 672 l 1
594 132 m 1
 594 0 l 1
 66 0 l 1
 66 132 l 1
 594 132 l 1
EndSplineSet
Validated: 1
EndChar

StartChar: twosuperior
Encoding: 178 178 143
Width: 400
Flags: MW
HStem: 317 102<193 390 193 390> 652 85<178 218>
VStem: 17 118<595 596 584 639> 255 130<589 619.5>
LayerCount: 2
Fore
SplineSet
211 737 m 0
 318 737 385 687 385 613 c 0
 385 523 286 480 193 419 c 1
 390 419 l 1
 390 317 l 1
 16 317 l 1
 16 346 l 2
 16 391 42 423 79 453 c 0
 181 536 255 570 255 608 c 0
 255 631 238 652 198 652 c 0
 158 652 135 628 135 596 c 2
 135 584 l 1
 18 584 l 1
 17 589 17 593 17 597 c 0
 17 681 82 737 211 737 c 0
EndSplineSet
Validated: 1
EndChar

StartChar: threesuperior
Encoding: 179 179 144
Width: 400
Flags: MW
HStem: 311 82<172.5 224 172.5 272> 491 74<173 211 211 221 173 211> 511 20G<319 319> 610 127<30 266 30 266> 655 82<179.5 217.5>
VStem: 15 116<429 442 428.5 442> 30 109<610 622 610 625 610 655.5> 173 146<531 535 531 565 531 565> 257 128<604.5 620> 267 131<432 455 430 462.5>
LayerCount: 2
Fore
SplineSet
210 737 m 0xaa80
 322 737 385 686 385 625 c 0xaa80
 385 584 358 548 319 535 c 1
 319 531 l 1xab
 369 516 398 480 398 430 c 0
 394 364 337 311 207 311 c 0
 76 311 15 364 15 429 c 2
 15 442 l 1
 131 442 l 1
 131 415 146 393 199 393 c 0
 249 393 267 416 267 448 c 0
 267 477 247 491 221 491 c 2xcc40
 173 491 l 1
 173 565 l 1
 211 565 l 2
 236 565 257 578 257 608 c 0
 257 632 236 655 199 655 c 0xca80
 160 655 139 634 139 610 c 1
 30 610 l 1xb240
 30 625 l 2
 30 686 95 737 210 737 c 0xaa80
EndSplineSet
Validated: 1
EndChar

StartChar: acute
Encoding: 180 180 145
Width: 333
Flags: MW
HStem: 592 133<122 157 30 315>
VStem: 30 287<592 721>
LayerCount: 2
Fore
SplineSet
315 725 m 1
 317 721 l 1
 157 592 l 1
 30 592 l 1
 122 725 l 1
 315 725 l 1
EndSplineSet
Validated: 1
EndChar

StartChar: mu
Encoding: 181 181 146
Width: 667
Flags: MW
HStem: -196 21G<58 257 58 58> -11 21G<257 257> 0 21G<443 606 443 443> 0 135<302 606 302 443> 508 20G<58 257 257 257 407 606 606 606>
VStem: 58 199<-196 -11 188 210 210 528> 407 199<218 528 0 528>
LayerCount: 2
Fore
SplineSet
606 528 m 1xae
 606 0 l 1
 443 0 l 1xae
 430 80 l 1
 391 27 326 -7 257 -11 c 1xce
 257 -196 l 1
 58 -196 l 1
 58 528 l 1
 257 528 l 1
 257 210 l 2
 257 166 280 135 324 135 c 0
 374 135 407 173 407 218 c 2x9e
 407 528 l 1
 606 528 l 1xae
EndSplineSet
Validated: 1
EndChar

StartChar: paragraph
Encoding: 182 182 147
Width: 850
Flags: MW
HStem: 567 121<444 550 444 444 678 744 678 678>
VStem: 316 128<-161 255 255 255> 550 128<-161 567 -161 567>
LayerCount: 2
Fore
SplineSet
744 688 m 1
 744 567 l 1
 678 567 l 1
 678 -161 l 1
 550 -161 l 1
 550 567 l 1
 444 567 l 1
 444 -161 l 1
 316 -161 l 1
 316 255 l 1
 200 259 109 354 109 471 c 0
 109 591 205 688 325 688 c 2
 744 688 l 1
EndSplineSet
Validated: 1
EndChar

StartChar: periodcentered
Encoding: 183 183 148
Width: 333
Flags: MW
HStem: 235 183<71 262 71 262>
VStem: 71 191<235 418 235 418>
LayerCount: 2
Fore
SplineSet
262 418 m 1
 262 235 l 1
 71 235 l 1
 71 418 l 1
 262 418 l 1
EndSplineSet
Validated: 1
EndChar

StartChar: cedilla
Encoding: 184 184 149
Width: 333
Flags: MW
HStem: -211 62<150 176 138 196> -86 125<147 166 128 209>
VStem: 204 87<-129.5 -108>
LayerCount: 2
Fore
SplineSet
209 39 m 1
 198 -29 l 1
 247 -34 291 -56 291 -118 c 0
 291 -194 219 -211 173 -211 c 0
 127 -211 76 -205 47 -195 c 1
 47 -141 l 1
 47 -141 112 -149 164 -149 c 0
 188 -149 204 -141 204 -118 c 0
 204 -98 195 -86 166 -86 c 2
 128 -86 l 1
 147 39 l 1
 209 39 l 1
EndSplineSet
Validated: 1
EndChar

StartChar: onesuperior
Encoding: 185 185 150
Width: 400
Flags: MW
HStem: 316 92<30 137 268 371 30 137> 595 69<30 137 30 30> 709 20G<224 268 268 268>
VStem: 137 131<408 595 595 595>
LayerCount: 2
Fore
SplineSet
268 729 m 1
 268 408 l 1
 371 408 l 1
 371 316 l 1
 30 316 l 1
 30 408 l 1
 137 408 l 1
 137 595 l 1
 30 595 l 1
 30 664 l 1
 91 668 173 698 224 729 c 1
 268 729 l 1
EndSplineSet
Validated: 1
EndChar

StartChar: ordmasculine
Encoding: 186 186 151
Width: 400
Flags: MW
HStem: 405 81<183 229 183 265> 656 81<183 229>
VStem: 12 130<533 554 554 588 533 626.5> 271 130<554 588 588 609>
LayerCount: 2
Fore
SplineSet
206 737 m 0
 324 737 401 682 401 571 c 0
 401 460 324 405 206 405 c 0
 89 405 12 460 12 571 c 0
 12 682 89 737 206 737 c 0
206 656 m 0
 160 656 142 630 142 588 c 2
 142 554 l 2
 142 512 160 486 206 486 c 0
 252 486 271 512 271 554 c 2
 271 588 l 2
 271 630 252 656 206 656 c 0
EndSplineSet
Validated: 1
EndChar

StartChar: guillemotright
Encoding: 187 187 152
Width: 667
Flags: MW
HStem: 324 204<199 199 371 371 435 435>
VStem: 61 546<119 324 324 528>
LayerCount: 2
Fore
SplineSet
199 324 m 1
 61 528 l 1
 204 528 l 1
 371 324 l 1
 204 119 l 1
 61 119 l 1
 199 324 l 1
435 324 m 1
 297 528 l 1
 440 528 l 1
 607 324 l 1
 440 119 l 1
 297 119 l 1
 435 324 l 1
EndSplineSet
Validated: 1
EndChar

StartChar: onequarter
Encoding: 188 188 153
Width: 1000
Flags: MW
HStem: -12 21G<260 355 260 260> 0 173<661 915 661 791> 85 88<661 791 661 791 915 978> 280 92<38 145 276 379 38 145> 559 69<38 145 38 38> 673 20G<232 276 276 276> 680 20G<670 766 766 766>
VStem: 145 131<372 559 559 559> 791 124<0 85 0 85 173 258 258 258>
LayerCount: 2
Fore
SplineSet
766 700 m 1x5b80
 355 -12 l 1
 260 -12 l 1xbd80
 670 700 l 1
 766 700 l 1x5b80
276 693 m 1
 276 372 l 1
 379 372 l 1
 379 280 l 1
 38 280 l 1
 38 372 l 1
 145 372 l 1
 145 559 l 1
 38 559 l 1
 38 628 l 1
 99 632 181 662 232 693 c 1
 276 693 l 1
697 420 m 1
 825 420 l 1
 816 354 723 231 661 173 c 1
 791 173 l 1
 791 258 l 1
 813 288 850 346 859 380 c 1
 915 380 l 1
 915 173 l 1
 978 173 l 1x5b80
 978 85 l 1
 915 85 l 1x3b80
 915 0 l 1
 791 0 l 1x5b80
 791 85 l 1
 571 85 l 1
 571 174 l 1
 613 231 667 326 697 420 c 1
EndSplineSet
Validated: 1
EndChar

StartChar: onehalf
Encoding: 189 189 154
Width: 1000
Flags: MW
HStem: -12 21G<260 355 260 260> 0 102<778 975 778 975> 281 92<38 145 276 379 38 145> 335 85<763 803> 560 69<38 145 38 38> 674 20G<232 276 276 276> 680 20G<670 766 766 766>
VStem: 145 131<373 560 560 560> 602 118<278 279 267 322> 840 130<272 302.5>
LayerCount: 2
Fore
SplineSet
766 700 m 1x6b
 355 -12 l 1
 260 -12 l 1xad
 670 700 l 1
 766 700 l 1x6b
276 694 m 1
 276 373 l 1
 379 373 l 1
 379 281 l 1
 38 281 l 1
 38 373 l 1
 145 373 l 1
 145 560 l 1
 38 560 l 1
 38 629 l 1
 99 633 181 663 232 694 c 1
 276 694 l 1
796 420 m 0x5bc0
 903 420 970 370 970 296 c 0
 970 206 871 163 778 102 c 1
 975 102 l 1
 975 0 l 1
 601 0 l 1
 601 29 l 2
 601 74 627 106 664 136 c 0
 766 219 840 253 840 291 c 0
 840 314 823 335 783 335 c 0
 743 335 720 311 720 279 c 2
 720 267 l 1
 603 267 l 1
 602 272 602 276 602 280 c 0
 602 364 667 420 796 420 c 0x5bc0
EndSplineSet
Validated: 1
EndChar

StartChar: threequarters
Encoding: 190 190 155
Width: 1000
Flags: MW
HStem: -12 21G<260 355 260 260> 0 173<653 907 653 783> 85 88<653 783 653 783 907 970> 275 82<185.5 237 185.5 285> 455 74<186 224 224 234 186 224> 574 127<43 279 43 279> 619 82<192.5 230.5>
VStem: 28 116<393 406 392.5 406> 43 109<574 586 574 589 574 619.5> 186 146<495 499 495 529 495 529> 270 128<568.5 584> 280 131<396 419 394 426.5> 783 124<0 85 0 85 173 258 258 258>
LayerCount: 2
Fore
SplineSet
766 700 m 1x5a08
 355 -12 l 1
 260 -12 l 1x9aa8
 670 700 l 1
 766 700 l 1x5a08
223 701 m 0
 335 701 398 650 398 589 c 0x5a28
 398 548 371 512 332 499 c 1
 332 495 l 1x5a48
 382 480 411 444 411 394 c 0
 407 328 350 275 220 275 c 0
 89 275 28 328 28 393 c 2
 28 406 l 1
 144 406 l 1
 144 379 159 357 212 357 c 0
 262 357 280 380 280 412 c 0
 280 441 260 455 234 455 c 2x5b18
 186 455 l 1
 186 529 l 1
 224 529 l 2
 249 529 270 542 270 572 c 0
 270 596 249 619 212 619 c 0x5aa8
 173 619 152 598 152 574 c 1
 43 574 l 1x5c88
 43 589 l 2
 43 650 108 701 223 701 c 0
689 420 m 1
 817 420 l 1
 808 354 715 231 653 173 c 1
 783 173 l 1
 783 258 l 1
 805 288 842 346 851 380 c 1
 907 380 l 1
 907 173 l 1
 970 173 l 1x5a08
 970 85 l 1
 907 85 l 1x3a08
 907 0 l 1
 783 0 l 1x5a08
 783 85 l 1
 563 85 l 1
 563 174 l 1x3a08
 605 231 659 326 689 420 c 1
EndSplineSet
Validated: 1
EndChar

StartChar: questiondown
Encoding: 191 191 156
Width: 611
Flags: MW
HStem: -173 138<303 351 303 380.5> 342 185<202 400 202 400>
VStem: 46 212<16.5 75.5 16.5 99> 202 198<342 527 342 527> 217 171<260 281> 389 186<28 44.5 -27 53.5>
LayerCount: 2
Fore
SplineSet
388 281 m 1xd0
 388 231 l 2xd0
 388 158 258 116 258 35 c 0
 258 -2 282 -35 324 -35 c 0
 378 -35 389 7 389 49 c 0
 389 58 389 67 388 76 c 1
 572 76 l 1
 573 63 575 51 575 38 c 0
 575 -92 459 -173 302 -173 c 0
 149 -173 46 -93 46 31 c 0xe4
 46 167 217 207 217 260 c 2
 217 281 l 1xc8
 388 281 l 1xd0
400 527 m 1
 400 342 l 1
 202 342 l 1
 202 527 l 1
 400 527 l 1
EndSplineSet
Validated: 1
EndChar

StartChar: Agrave
Encoding: 192 192 157
Width: 778
Flags: HMW
HStem: 0 21G<10 236 10 10 535 769 535 535> 97 154<311 460 311 506 265 460> 496 192<384 384 384 388> 668 20G<261 518 518 518> 752 133<358 393 200 485 358 358>
VStem: 10 759<0 0>
LayerCount: 2
Fore
SplineSet
485 752 m 1xcc
 358 752 l 1
 198 881 l 1
 200 885 l 1
 393 885 l 1
 485 752 l 1xcc
769 0 m 1
 535 0 l 1
 506 97 l 1
 381 97 l 1
 427 251 l 1
 460 251 l 1
 444 307 l 1
 539 630 l 1
 769 0 l 1
440 688 m 1xdc
 236 0 l 1
 10 0 l 1
 261 688 l 1
 440 688 l 1xdc
EndSplineSet
Validated: 1
EndChar

StartChar: Aacute
Encoding: 193 193 158
Width: 778
Flags: HMW
HStem: 0 21G<10 236 10 10 535 769 535 535> 97 154<311 460 311 506 265 460> 496 192<384 384 384 388> 668 20G<261 518 518 518> 752 133<385 420 293 578>
VStem: 10 759<0 0>
LayerCount: 2
Fore
SplineSet
580 881 m 1xcc
 420 752 l 1
 293 752 l 1
 385 885 l 1
 578 885 l 1
 580 881 l 1xcc
769 0 m 1
 535 0 l 1
 506 97 l 1
 381 97 l 1
 427 251 l 1
 460 251 l 1
 444 307 l 1
 539 630 l 1
 769 0 l 1
440 688 m 1xdc
 236 0 l 1
 10 0 l 1
 261 688 l 1
 440 688 l 1xdc
EndSplineSet
Validated: 1
EndChar

StartChar: Acircumflex
Encoding: 194 194 159
Width: 778
Flags: HMW
HStem: 0 21G<10 236 10 10 535 769 535 535> 97 154<311 460 311 506 265 460> 496 192<384 388 384 384> 668 20G<261 518 518 518> 740 145<186 453 186 453 325 592 325 462>
VStem: 10 759<0 0>
LayerCount: 2
Fore
SplineSet
453 885 m 1xcc
 592 740 l 1
 462 740 l 1
 388 817 l 1
 314 740 l 1
 186 740 l 1
 325 885 l 1
 453 885 l 1xcc
440 688 m 1xdc
 236 0 l 1
 10 0 l 1
 261 688 l 1
 440 688 l 1xdc
539 630 m 1
 769 0 l 1
 535 0 l 1
 506 97 l 1
 381 97 l 1
 427 251 l 1
 460 251 l 1
 444 307 l 1
 539 630 l 1
EndSplineSet
Validated: 1
EndChar

StartChar: Atilde
Encoding: 195 195 160
Width: 778
Flags: HMW
HStem: 0 21G<10 236 10 10 535 769 535 535> 97 154<311 460 311 506 265 460> 496 192<384 388 384 384> 668 20G<261 518 518 518> 742 143<167 339 167 339 265 513>
VStem: 10 759<0 0>
LayerCount: 2
Fore
SplineSet
530 885 m 1xcc
 611 885 l 1
 611 813 555 742 471 742 c 0
 407 742 352 782 298 782 c 0
 273 782 255 765 248 742 c 1
 167 742 l 1
 167 814 223 885 307 885 c 0
 371 885 426 845 480 845 c 0
 505 845 523 862 530 885 c 1xcc
440 688 m 1xdc
 236 0 l 1
 10 0 l 1
 261 688 l 1
 440 688 l 1xdc
539 630 m 1
 769 0 l 1
 535 0 l 1
 506 97 l 1
 381 97 l 1
 427 251 l 1
 460 251 l 1
 444 307 l 1
 539 630 l 1
EndSplineSet
Validated: 1
EndChar

StartChar: Adieresis
Encoding: 196 196 161
Width: 778
Flags: HMW
HStem: 0 21G<10 236 10 10 535 769 535 535> 97 154<311 460 311 506 265 460> 496 192<384 388 384 384> 668 20G<261 518 518 518> 746 139<203 355 203 355 423 575 203 423>
VStem: 203 152<746 885 746 885> 423 152<746 885 746 885>
LayerCount: 2
Fore
SplineSet
355 885 m 1xce
 355 746 l 1
 203 746 l 1
 203 885 l 1
 355 885 l 1xce
575 885 m 1
 575 746 l 1
 423 746 l 1
 423 885 l 1
 575 885 l 1
440 688 m 1xde
 236 0 l 1
 10 0 l 1
 261 688 l 1
 440 688 l 1xde
539 630 m 1
 769 0 l 1
 535 0 l 1
 506 97 l 1
 381 97 l 1
 427 251 l 1
 460 251 l 1
 444 307 l 1
 539 630 l 1
EndSplineSet
Validated: 1
EndChar

StartChar: Aring
Encoding: 197 197 162
Width: 778
Flags: HMW
HStem: 0 21G<10 236 10 10 535 769 535 535> 97 154<311 460 311 506 265 460> 496 192<384 388 384 384> 668 20G<261 518 518 518> 737 68<377.5 401 377.5 419> 885 69<377 400.5>
VStem: 280 69<832.5 856 832.5 875> 429 69<834 857.5>
LayerCount: 2
Fore
SplineSet
440 688 m 1xdf
 236 0 l 1
 10 0 l 1
 261 688 l 1
 440 688 l 1xdf
539 630 m 1
 769 0 l 1
 535 0 l 1
 506 97 l 1
 381 97 l 1
 427 251 l 1
 460 251 l 1
 444 307 l 1
 539 630 l 1
349 745 m 0
 309 760 280 799 280 845 c 0
 280 891 309 930 349 946 c 1
 349 745 l 0
405 808 m 1
 420 814 429 828 429 846 c 0
 429 863 419 877 405 882 c 1
 405 953 l 1
 457 945 498 900 498 845 c 0
 498 791 457 746 405 738 c 1
 405 808 l 1
EndSplineSet
Validated: 1
EndChar

StartChar: AE
Encoding: 198 198 163
Width: 1000
Flags: MW
HStem: 0 165<673 962 673 962> 97 154<300 445 300 479 245 445> 270 158<649 899 649 649> 523 165<590 955 590 590>
VStem: -15 977<0 165>
LayerCount: 2
Fore
SplineSet
501 0 m 1xb8
 479 97 l 1
 245 97 l 1x78
 211 0 l 1
 -15 0 l 1
 276 688 l 1
 955 688 l 1
 955 523 l 1
 590 523 l 1
 612 428 l 1
 899 428 l 1
 899 270 l 1
 649 270 l 1
 673 165 l 1
 962 165 l 1
 962 0 l 1
 501 0 l 1xb8
387 496 m 1
 300 251 l 1
 445 251 l 1
 391 496 l 1
 387 496 l 1
EndSplineSet
Validated: 1
EndChar

StartChar: Ccedilla
Encoding: 199 199 164
Width: 778
Flags: HMW
HStem: -211 62<370 396 358 416> -86 57<348 418> -12 21G<421 421> -11 21G<359 359> -11 164<359 359> 535 165<354 440.5>
VStem: 45 226<265 312 312 376 265 461.5> 424 87<-129.5 -108> 529 204<239.5 279>
LayerCount: 2
Fore
SplineSet
271 376 m 1xc780
 271 312 l 2
 271 290 273 269 278 251 c 1
 245 11 l 1
 113 56 45 169 45 344 c 0
 45 530 122 645 271 685 c 1
 271 376 l 1xc780
402 700 m 0
 602 700 733 597 733 405 c 1
 522 405 l 1
 522 484 480 535 401 535 c 0
 396 535 392 535 387 534 c 1
 387 700 l 1
 392 700 397 700 402 700 c 0
358 -11 m 2
 381 154 l 1
 386 153 393 153 399 153 c 0xcf80
 486 153 529 200 529 279 c 1
 733 279 l 1
 733 96 619 -6 421 -12 c 1xe780
 418 -29 l 1
 467 -34 511 -56 511 -118 c 0
 511 -194 439 -211 393 -211 c 0
 347 -211 296 -205 267 -195 c 1
 267 -141 l 1
 267 -141 332 -149 384 -149 c 0
 408 -149 424 -141 424 -118 c 0
 424 -98 415 -86 386 -86 c 2
 348 -86 l 1
 359 -11 l 2xd780
 358 -11 l 2
EndSplineSet
Validated: 1
EndChar

StartChar: Egrave
Encoding: 200 200 165
Width: 722
Flags: HMW
HStem: 0 165<295 676 295 676> 270 158<295 615 295 615> 523 165<295 669 295 295> 752 133<355 390 197 482 355 355>
VStem: 74 221<165 270 428 523>
LayerCount: 2
Fore
SplineSet
482 752 m 1
 355 752 l 1
 195 881 l 1
 197 885 l 1
 390 885 l 1
 482 752 l 1
295 0 m 1
 74 0 l 1
 74 688 l 1
 295 688 l 1
 295 0 l 1
411 0 m 1
 411 165 l 1
 676 165 l 1
 676 0 l 1
 411 0 l 1
411 523 m 1
 411 688 l 1
 669 688 l 1
 669 523 l 1
 411 523 l 1
411 270 m 1
 411 428 l 1
 615 428 l 1
 615 270 l 1
 411 270 l 1
EndSplineSet
Validated: 1
EndChar

StartChar: Eacute
Encoding: 201 201 166
Width: 722
Flags: HMW
HStem: 0 165<295 676 295 676> 270 158<295 615 295 615> 523 165<295 669 295 295> 752 133<382 417 290 575>
VStem: 74 221<165 270 428 523>
LayerCount: 2
Fore
SplineSet
577 881 m 1
 417 752 l 1
 290 752 l 1
 382 885 l 1
 575 885 l 1
 577 881 l 1
295 0 m 1
 74 0 l 1
 74 688 l 1
 295 688 l 1
 295 0 l 1
411 0 m 1
 411 165 l 1
 676 165 l 1
 676 0 l 1
 411 0 l 1
411 523 m 1
 411 688 l 1
 669 688 l 1
 669 523 l 1
 411 523 l 1
615 428 m 1
 615 270 l 1
 411 270 l 1
 411 428 l 1
 615 428 l 1
EndSplineSet
Validated: 1
EndChar

StartChar: Ecircumflex
Encoding: 202 202 167
Width: 722
Flags: MW
HStem: 0 165<295 676 295 676> 270 158<295 615 295 615> 523 165<295 669 295 295> 740 145<183 450 183 450 322 589 322 459>
VStem: 74 221<165 270 428 523>
LayerCount: 2
Fore
SplineSet
450 885 m 1
 589 740 l 1
 459 740 l 1
 385 817 l 1
 311 740 l 1
 183 740 l 1
 322 885 l 1
 450 885 l 1
676 0 m 1
 74 0 l 1
 74 688 l 1
 669 688 l 1
 669 523 l 1
 295 523 l 1
 295 428 l 1
 615 428 l 1
 615 270 l 1
 295 270 l 1
 295 165 l 1
 676 165 l 1
 676 0 l 1
EndSplineSet
Validated: 1
EndChar

StartChar: Edieresis
Encoding: 203 203 168
Width: 722
Flags: MW
HStem: 0 165<295 676 295 676> 270 158<295 615 295 615> 523 165<295 669 295 295> 746 139<200 352 200 352 420 572 200 420>
VStem: 74 221<165 270 428 523> 200 152<746 885 746 885> 420 152<746 885 746 885>
LayerCount: 2
Fore
SplineSet
572 885 m 1xfa
 572 746 l 1
 420 746 l 1
 420 885 l 1
 572 885 l 1xfa
352 885 m 1xf6
 352 746 l 1
 200 746 l 1
 200 885 l 1
 352 885 l 1xf6
676 0 m 1
 74 0 l 1
 74 688 l 1
 669 688 l 1
 669 523 l 1
 295 523 l 1
 295 428 l 1
 615 428 l 1
 615 270 l 1
 295 270 l 1
 295 165 l 1xfa
 676 165 l 1
 676 0 l 1
EndSplineSet
Validated: 1
EndChar

StartChar: Igrave
Encoding: 204 204 169
Width: 389
Flags: MW
HStem: 0 21G<84 305 84 84> 668 20G<84 305 305 305> 752 133<164 199 6 291 164 164>
VStem: 84 221<0 688>
LayerCount: 2
Fore
SplineSet
305 0 m 1
 84 0 l 1
 84 688 l 1
 305 688 l 1
 305 0 l 1
291 752 m 1
 164 752 l 1
 4 881 l 1
 6 885 l 1
 199 885 l 1
 291 752 l 1
EndSplineSet
Validated: 1
EndChar

StartChar: Iacute
Encoding: 205 205 170
Width: 389
Flags: MW
HStem: 0 21G<84 305 84 84> 668 20G<84 305 305 305> 752 133<191 226 99 384>
VStem: 84 221<0 688>
LayerCount: 2
Fore
SplineSet
305 0 m 1
 84 0 l 1
 84 688 l 1
 305 688 l 1
 305 0 l 1
386 881 m 1
 226 752 l 1
 99 752 l 1
 191 885 l 1
 384 885 l 1
 386 881 l 1
EndSplineSet
Validated: 1
EndChar

StartChar: Icircumflex
Encoding: 206 206 171
Width: 389
Flags: MW
HStem: 0 21G<84 305 84 84> 668 20G<84 305 305 305> 740 145<-8 259 -8 259 131 398 131 268>
VStem: 84 221<0 688 0 688>
LayerCount: 2
Fore
SplineSet
305 688 m 1
 305 0 l 1
 84 0 l 1
 84 688 l 1
 305 688 l 1
259 885 m 1
 398 740 l 1
 268 740 l 1
 194 817 l 1
 120 740 l 1
 -8 740 l 1
 131 885 l 1
 259 885 l 1
EndSplineSet
Validated: 1
EndChar

StartChar: Idieresis
Encoding: 207 207 172
Width: 389
Flags: MW
HStem: 0 21G<84 305 84 84> 668 20G<84 305 305 305> 746 139<9 161 9 161 229 381 9 229>
VStem: 9 152<746 885 746 885> 84 221<0 688 0 688> 229 152<746 885 746 885>
LayerCount: 2
Fore
SplineSet
305 688 m 1xe8
 305 0 l 1
 84 0 l 1
 84 688 l 1
 305 688 l 1xe8
381 885 m 1xe4
 381 746 l 1xe4
 229 746 l 1
 229 885 l 1xe8
 381 885 l 1xe4
161 885 m 1xe8
 161 746 l 1xe8
 9 746 l 1
 9 885 l 1xf0
 161 885 l 1xe8
EndSplineSet
Validated: 1
EndChar

StartChar: Eth
Encoding: 208 208 173
Width: 778
Flags: MW
HStem: 0 165<295 368 368 372> 304 98<1 74 1 74 295 392> 523 165<295 368 295 295>
VStem: 74 221<165 304 165 304 165 304 402 523 165 688> 507 226<314 374 374 421>
LayerCount: 2
Fore
SplineSet
1 304 m 1
 1 402 l 1
 74 402 l 1
 74 688 l 1
 372 688 l 2
 607 688 733 579 733 344 c 0
 733 109 607 0 372 0 c 2
 74 0 l 1
 74 304 l 1
 1 304 l 1
392 304 m 1
 295 304 l 1
 295 165 l 1
 368 165 l 2
 465 165 507 220 507 314 c 2
 507 374 l 2
 507 468 465 523 368 523 c 2
 295 523 l 1
 295 402 l 1
 392 402 l 1
 392 304 l 1
EndSplineSet
Validated: 1
EndChar

StartChar: Ntilde
Encoding: 209 209 174
Width: 833
Flags: MW
HStem: 0 21G<74 277 74 74 566 759 566 566> 668 20G<74 267 267 267 556 759 759 759> 742 143<194 366 194 366 292 541>
VStem: 74 203<0 334 0 688> 556 203<349 688 0 688>
LayerCount: 2
Fore
SplineSet
759 688 m 1
 759 0 l 1
 566 0 l 1
 277 334 l 1
 277 0 l 1
 74 0 l 1
 74 688 l 1
 267 688 l 1
 556 349 l 1
 556 688 l 1
 759 688 l 1
558 885 m 1
 639 885 l 1
 639 813 583 742 499 742 c 0
 435 742 379 782 326 782 c 0
 300 782 283 765 275 742 c 1
 194 742 l 1
 194 814 250 885 334 885 c 0
 398 885 454 845 507 845 c 0
 533 845 550 862 558 885 c 1
EndSplineSet
Validated: 1
EndChar

StartChar: Ograve
Encoding: 210 210 175
Width: 833
Flags: MW
HStem: -12 165<367.5 464.5 367.5 533.5> 535 165<367.5 464.5> 752 133<386 420 228 513 386 386>
VStem: 45 226<265 312 312 376 265 461.5> 562 226<312 376 376 423>
LayerCount: 2
Fore
SplineSet
416 700 m 0
 651 700 788 579 788 344 c 0
 788 109 651 -12 416 -12 c 0
 181 -12 45 109 45 344 c 0
 45 579 181 700 416 700 c 0
416 535 m 0
 319 535 271 470 271 376 c 2
 271 312 l 2
 271 218 319 153 416 153 c 0
 513 153 562 218 562 312 c 2
 562 376 l 2
 562 470 513 535 416 535 c 0
513 752 m 1
 386 752 l 1
 226 881 l 1
 228 885 l 1
 420 885 l 1
 513 752 l 1
EndSplineSet
Validated: 1
EndChar

StartChar: Oacute
Encoding: 211 211 176
Width: 833
Flags: MW
HStem: -12 165<367.5 464.5 367.5 533.5> 535 165<367.5 464.5> 752 133<413 448 320 605>
VStem: 45 226<265 312 312 376 265 461.5> 562 226<312 376 376 423>
LayerCount: 2
Fore
SplineSet
416 700 m 0
 651 700 788 579 788 344 c 0
 788 109 651 -12 416 -12 c 0
 181 -12 45 109 45 344 c 0
 45 579 181 700 416 700 c 0
416 535 m 0
 319 535 271 470 271 376 c 2
 271 312 l 2
 271 218 319 153 416 153 c 0
 513 153 562 218 562 312 c 2
 562 376 l 2
 562 470 513 535 416 535 c 0
607 881 m 1
 448 752 l 1
 320 752 l 1
 413 885 l 1
 605 885 l 1
 607 881 l 1
EndSplineSet
Validated: 1
EndChar

StartChar: Ocircumflex
Encoding: 212 212 177
Width: 833
Flags: MW
HStem: -12 165<367.5 464.5 367.5 533.5> 535 165<367.5 464.5> 740 145<213 480 213 480 353 620 353 490>
VStem: 45 226<265 312 312 376 265 461.5> 562 226<312 376 376 423>
LayerCount: 2
Fore
SplineSet
416 700 m 0
 651 700 788 579 788 344 c 0
 788 109 651 -12 416 -12 c 0
 181 -12 45 109 45 344 c 0
 45 579 181 700 416 700 c 0
416 535 m 0
 319 535 271 470 271 376 c 2
 271 312 l 2
 271 218 319 153 416 153 c 0
 513 153 562 218 562 312 c 2
 562 376 l 2
 562 470 513 535 416 535 c 0
480 885 m 1
 620 740 l 1
 490 740 l 1
 416 817 l 1
 341 740 l 1
 213 740 l 1
 353 885 l 1
 480 885 l 1
EndSplineSet
Validated: 1
EndChar

StartChar: Otilde
Encoding: 213 213 178
Width: 833
Flags: MW
HStem: -12 165<367.5 464.5 367.5 533.5> 535 165<367.5 464.5> 742 143<194 366 194 366 292 541>
VStem: 45 226<265 312 312 376 265 461.5> 562 226<312 376 376 423>
LayerCount: 2
Fore
SplineSet
416 700 m 0
 651 700 788 579 788 344 c 0
 788 109 651 -12 416 -12 c 0
 181 -12 45 109 45 344 c 0
 45 579 181 700 416 700 c 0
416 535 m 0
 319 535 271 470 271 376 c 2
 271 312 l 2
 271 218 319 153 416 153 c 0
 513 153 562 218 562 312 c 2
 562 376 l 2
 562 470 513 535 416 535 c 0
558 885 m 1
 639 885 l 1
 639 813 583 742 499 742 c 0
 435 742 379 782 326 782 c 0
 300 782 283 765 275 742 c 1
 194 742 l 1
 194 814 250 885 334 885 c 0
 398 885 454 845 507 845 c 0
 533 845 550 862 558 885 c 1
EndSplineSet
Validated: 1
EndChar

StartChar: Odieresis
Encoding: 214 214 179
Width: 833
Flags: MW
HStem: -12 165<367.5 464.5 367.5 533.5> 535 165<367.5 464.5> 746 139<230 382 230 382 451 603 230 451>
VStem: 45 226<265 312 312 376 265 461.5> 230 152<746 885 746 885> 451 152<746 885 746 885> 562 226<312 376 376 423>
LayerCount: 2
Fore
SplineSet
416 700 m 0xf2
 651 700 788 579 788 344 c 0
 788 109 651 -12 416 -12 c 0
 181 -12 45 109 45 344 c 0
 45 579 181 700 416 700 c 0xf2
416 535 m 0
 319 535 271 470 271 376 c 2
 271 312 l 2
 271 218 319 153 416 153 c 0
 513 153 562 218 562 312 c 2
 562 376 l 2
 562 470 513 535 416 535 c 0
603 885 m 1xec
 603 746 l 1
 451 746 l 1
 451 885 l 1
 603 885 l 1xec
382 885 m 1
 382 746 l 1
 230 746 l 1
 230 885 l 1
 382 885 l 1
EndSplineSet
Validated: 1
EndChar

StartChar: multiply
Encoding: 215 215 180
Width: 660
Flags: MW
HStem: 2 524<162 162 162 498>
VStem: 68 524<96 96 96 432>
LayerCount: 2
Fore
SplineSet
498 526 m 1
 592 432 l 1
 423 264 l 1
 592 96 l 1
 498 2 l 1
 330 171 l 1
 162 2 l 1
 68 96 l 1
 237 264 l 1
 68 432 l 1
 162 526 l 1
 330 357 l 1
 498 526 l 1
EndSplineSet
Validated: 1
EndChar

StartChar: Oslash
Encoding: 216 216 181
Width: 833
Flags: MW
HStem: -12 165<399 464.5 399 533.5> 535 165<367.5 432.5> 612 113<687 687> 705 20G<671 779 779 779>
VStem: 45 226<299.5 312 312 376 299.5 461.5> 562 226<312 376 376 388.5>
LayerCount: 2
Fore
SplineSet
779 725 m 1x9c
 687 612 l 1xac
 753 553 788 463 788 344 c 0
 788 109 651 -12 416 -12 c 0
 337 -12 269 1 214 28 c 1
 162 -36 l 1
 54 -36 l 1
 144 76 l 1
 80 135 45 225 45 344 c 0
 45 579 181 700 416 700 c 0
 495 700 562 686 618 659 c 1xcc
 671 725 l 1
 779 725 l 1x9c
551 444 m 1
 333 175 l 1
 355 161 382 153 416 153 c 0
 513 153 562 218 562 312 c 2
 562 376 l 2
 562 401 558 424 551 444 c 1
416 535 m 0xcc
 319 535 271 470 271 376 c 2
 271 312 l 2
 271 287 274 264 281 244 c 1
 499 513 l 1
 477 527 449 535 416 535 c 0xcc
EndSplineSet
Validated: 1
EndChar

StartChar: Ugrave
Encoding: 217 217 182
Width: 833
Flags: MW
HStem: -12 165<375.5 456.5 375.5 525> 668 20G<74 295 295 295 538 759 759 759> 752 133<386 420 228 513 386 386>
VStem: 74 221<277 280 280 688> 538 221<280 688>
LayerCount: 2
Fore
SplineSet
759 688 m 1
 759 277 l 2
 759 87 633 -12 417 -12 c 0
 201 -12 74 87 74 277 c 2
 74 688 l 1
 295 688 l 1
 295 280 l 2
 295 206 335 153 416 153 c 0
 497 153 538 206 538 280 c 2
 538 688 l 1
 759 688 l 1
513 752 m 1
 386 752 l 1
 226 881 l 1
 228 885 l 1
 420 885 l 1
 513 752 l 1
EndSplineSet
Validated: 1
EndChar

StartChar: Uacute
Encoding: 218 218 183
Width: 833
Flags: MW
HStem: -12 165<375.5 456.5 375.5 525> 668 20G<74 295 295 295 538 759 759 759> 752 133<413 448 320 605>
VStem: 74 221<277 280 280 688> 538 221<280 688>
LayerCount: 2
Fore
SplineSet
759 688 m 1
 759 277 l 2
 759 87 633 -12 417 -12 c 0
 201 -12 74 87 74 277 c 2
 74 688 l 1
 295 688 l 1
 295 280 l 2
 295 206 335 153 416 153 c 0
 497 153 538 206 538 280 c 2
 538 688 l 1
 759 688 l 1
607 881 m 1
 448 752 l 1
 320 752 l 1
 413 885 l 1
 605 885 l 1
 607 881 l 1
EndSplineSet
Validated: 1
EndChar

StartChar: Ucircumflex
Encoding: 219 219 184
Width: 833
Flags: MW
HStem: -12 165<375.5 456.5 375.5 525> 668 20G<74 295 295 295 538 759 759 759> 740 145<213 480 213 480 353 620 353 490>
VStem: 74 221<277 280 280 688> 538 221<280 688>
LayerCount: 2
Fore
SplineSet
759 688 m 1
 759 277 l 2
 759 87 633 -12 417 -12 c 0
 201 -12 74 87 74 277 c 2
 74 688 l 1
 295 688 l 1
 295 280 l 2
 295 206 335 153 416 153 c 0
 497 153 538 206 538 280 c 2
 538 688 l 1
 759 688 l 1
480 885 m 1
 620 740 l 1
 490 740 l 1
 416 817 l 1
 341 740 l 1
 213 740 l 1
 353 885 l 1
 480 885 l 1
EndSplineSet
Validated: 1
EndChar

StartChar: Udieresis
Encoding: 220 220 185
Width: 833
Flags: MW
HStem: -12 165<375.5 456.5 375.5 525> 668 20G<74 295 295 295 538 759 759 759> 746 139<230 382 230 382 451 603 230 451>
VStem: 74 221<277 280 280 688> 230 152<746 885 746 885> 451 152<746 885 746 885> 538 221<280 688>
LayerCount: 2
Fore
SplineSet
759 688 m 1xf2
 759 277 l 2
 759 87 633 -12 417 -12 c 0
 201 -12 74 87 74 277 c 2
 74 688 l 1
 295 688 l 1
 295 280 l 2
 295 206 335 153 416 153 c 0
 497 153 538 206 538 280 c 2
 538 688 l 1
 759 688 l 1xf2
603 885 m 1
 603 746 l 1xea
 451 746 l 1
 451 885 l 1xf4
 603 885 l 1
382 885 m 1
 382 746 l 1xea
 230 746 l 1
 230 885 l 1xf2
 382 885 l 1
EndSplineSet
Validated: 1
EndChar

StartChar: Yacute
Encoding: 221 221 186
Width: 778
Flags: MW
HStem: 0 21G<280 501 280 280> 668 20G<7 261 261 261 529 770 770 770> 752 133<385 420 293 578>
VStem: 280 221<0 267 0 267>
LayerCount: 2
Fore
SplineSet
501 267 m 1
 501 0 l 1
 280 0 l 1
 280 267 l 1
 7 688 l 1
 261 688 l 1
 393 459 l 1
 397 459 l 1
 529 688 l 1
 770 688 l 1
 501 267 l 1
580 881 m 1
 420 752 l 1
 293 752 l 1
 385 885 l 1
 578 885 l 1
 580 881 l 1
EndSplineSet
Validated: 1
EndChar

StartChar: Thorn
Encoding: 222 222 187
Width: 722
Flags: MW
HStem: 0 21G<74 295 74 74> 122 161<295 386 386 409.5 295 460 295 386> 425 163<295 386 295 460> 668 20G<74 295 295 295>
VStem: 74 221<0 122 0 283 283 425 588 688> 456 224<350 358 358 362 284 378.5>
LayerCount: 2
Fore
SplineSet
295 688 m 1
 295 588 l 1
 460 588 l 2
 590 588 680 492 680 362 c 2
 680 349 l 2
 680 219 590 122 460 122 c 2
 295 122 l 1
 295 0 l 1
 74 0 l 1
 74 688 l 1
 295 688 l 1
386 425 m 2
 295 425 l 1
 295 283 l 1
 386 283 l 2
 433 283 456 309 456 350 c 2
 456 358 l 2
 456 399 434 425 386 425 c 2
EndSplineSet
Validated: 1
EndChar

StartChar: germandbls
Encoding: 223 223 188
Width: 667
Flags: MW
HStem: 0 136<67 342 314 342 342 365 314 378 314 342> 325 141<314 341 341 342 314 341> 603 134<314.5 358>
VStem: 67 199<0 517 517 534 0 596> 314 189<395 400 395 466 395 466> 406 191<516 553.5> 425 199<204 254 142 255.5>
LayerCount: 2
Fore
SplineSet
336 737 m 0xf4
 458 737 597 694 597 548 c 0xf4
 597 484 561 424 503 400 c 1
 503 395 l 1xf8
 574 369 624 294 624 214 c 0
 624 70 520 0 378 0 c 2
 314 0 l 1
 314 136 l 1
 342 136 l 2
 388 136 425 179 425 229 c 0
 425 282 387 325 342 325 c 2xf2
 314 325 l 1
 314 466 l 1xf8
 341 466 l 2
 378 466 406 496 406 534 c 0
 406 573 380 603 336 603 c 0
 293 603 266 573 266 534 c 2
 266 0 l 1
 67 0 l 1
 67 517 l 2
 67 675 206 737 336 737 c 0xf4
EndSplineSet
Validated: 1
EndChar

StartChar: agrave
Encoding: 224 224 189
Width: 667
Flags: HMW
HStem: -12 124<161 322.5> -12 135<518 662> 230 94<336 395> 363 177<230.5 242> 413 127<300.5 339.5> 592 133<291 325 132 417 291 291>
VStem: 30 199<141.5 181.5 141.5 215> 45 197<363 425.5> 395 199<185 230 230 230 324 350 350 368>
LayerCount: 2
Fore
SplineSet
417 592 m 1x2480
 291 592 l 1
 130 721 l 1
 132 725 l 1
 325 725 l 1
 417 592 l 1x2480
411 54 m 1
 402 74 395 187 395 324 c 1
 395 350 l 2
 395 393 361 413 318 413 c 0x2d80
 283 413 242 402 242 367 c 2
 242 363 l 1x3580
 46 363 l 1
 45 368 45 372 45 377 c 0
 45 534 321 540 321 540 c 0x6d80
 466 540 594 498 594 368 c 2
 594 162 l 2
 594 140 604 123 626 123 c 2
 662 123 l 1
 662 8 l 1
 662 8 625 -12 558 -12 c 0
 478 -12 429 14 411 54 c 1
339 11 m 1
 306 -3 266 -12 216 -12 c 0
 106 -12 30 26 30 136 c 0
 30 281 142 318 339 323 c 1
 339 227 l 1
 262 219 229 194 229 162 c 0
 229 121 263 112 297 112 c 0xa680
 312 112 326 114 339 119 c 1
 339 11 l 1
EndSplineSet
Validated: 1
EndChar

StartChar: aacute
Encoding: 225 225 190
Width: 667
Flags: HMW
HStem: -12 124<161 322.5> -12 135<518 662> 230 94<336 395> 363 177<230.5 242> 413 127<300.5 339.5> 592 133<317 353 225 510>
VStem: 30 199<141.5 181.5 141.5 215> 45 197<363 425.5> 395 199<185 230 230 230 324 350 350 368>
LayerCount: 2
Fore
SplineSet
512 721 m 1x2480
 353 592 l 1
 225 592 l 1
 317 725 l 1
 510 725 l 1
 512 721 l 1x2480
411 54 m 1
 402 74 395 187 395 324 c 1
 395 350 l 2
 395 393 361 413 318 413 c 0x2d80
 283 413 242 402 242 367 c 2
 242 363 l 1x3580
 46 363 l 1
 45 368 45 372 45 377 c 0
 45 538.094674556 308.089527678 540.001120409 320.543469816 540.001120409 c 0
 320.845383565 540.001120409 321 540 321 540 c 0x6d80
 466 540 594 498 594 368 c 2
 594 162 l 2
 594 140 604 123 626 123 c 2
 662 123 l 1
 662 8 l 1
 662 8 625 -12 558 -12 c 0
 478 -12 429 14 411 54 c 1
339 11 m 1
 306 -3 266 -12 216 -12 c 0
 106 -12 30 26 30 136 c 0
 30 281 142 318 339 323 c 1
 339 227 l 1
 262 219 229 194 229 162 c 0
 229 121 263 112 297 112 c 0xa680
 312 112 326 114 339 119 c 1
 339 11 l 1
EndSplineSet
Validated: 1
EndChar

StartChar: acircumflex
Encoding: 226 226 191
Width: 667
Flags: HMW
HStem: -12 124<161 322.5> -12 135<518 662> 230 94<336 395> 363 177<230.5 242> 413 127<300.5 339.5> 580 145<130 397 130 397 270 537 270 407> 657 68<333 333>
VStem: 30 199<141.5 181.5 141.5 215> 45 197<363 425.5> 395 199<185 230 230 230 324 350 350 368>
LayerCount: 2
Fore
SplineSet
397 725 m 1x2440
 537 580 l 1
 407 580 l 1
 333 657 l 1x2240
 258 580 l 1x2440
 130 580 l 1
 270 725 l 1
 397 725 l 1x2440
411 54 m 1
 402 74 395 187 395 324 c 1
 395 350 l 2
 395 393 361 413 318 413 c 0x28c0
 283 413 242 402 242 367 c 2
 242 363 l 1x30c0
 46 363 l 1
 45 368 45 372 45 377 c 0
 45 534 321 540 321 540 c 0x68c0
 466 540 594 498 594 368 c 2
 594 162 l 2
 594 140 604 123 626 123 c 2
 662 123 l 1
 662 8 l 1
 662 8 625 -12 558 -12 c 0
 478 -12 429 14 411 54 c 1
339 11 m 1
 306 -3 266 -12 216 -12 c 0
 106 -12 30 26 30 136 c 0
 30 281 142 318 339 323 c 1
 339 227 l 1
 262 219 229 194 229 162 c 0
 229 121 263 112 297 112 c 0xa140
 312 112 326 114 339 119 c 1
 339 11 l 1
EndSplineSet
Validated: 1
EndChar

StartChar: atilde
Encoding: 227 227 192
Width: 667
Flags: HMW
VStem: 30 199<141.5 181.5 141.5 215> 45 197<363 425.5> 395 199<185 230 230 230 324 350 350 368>
LayerCount: 2
Fore
SplineSet
475 725 m 1x20
 556 725 l 1
 556 653 500 582 416 582 c 0
 352 582 296 622 243 622 c 0
 217 622 200 605 192 582 c 1
 111 582 l 1
 111 654 167 725 251 725 c 0
 315 725 371 685 424 685 c 0
 450 685 467 702 475 725 c 1x20
411 54 m 1
 402 75 395 126 395 185 c 2
 395 335 l 1
 395 350 l 2
 395 393 361 413 318 413 c 0
 283 413 242 402 242 367 c 2
 242 363 l 1
 46 363 l 1
 45 368 45 372 45 377 c 0x60
 45 539.024096386 314.38946146 540.000145159 320.880773785 540.000145159 c 0
 321 540 l 0
 466 540 594 498 594 368 c 2
 594 162 l 2
 594 140 604 123 626 123 c 2
 662 123 l 1
 662 8 l 1
 662 8 625 -12 558 -12 c 0
 478 -12 429 14 411 54 c 1
339 227 m 1
 262 219 229 194 229 162 c 0
 229 121 263 112 297 112 c 0
 312 112 326 114 339 119 c 1
 339 11 l 1
 306 -3 266 -12 216 -12 c 0
 106 -12 30 26 30 136 c 0xa0
 30 281 142 318 339 323 c 1
 339 227 l 1
EndSplineSet
Validated: 1
EndChar

StartChar: adieresis
Encoding: 228 228 193
Width: 667
Flags: HMW
HStem: -12 124<161 322.5> -12 135<518 662> 230 94<336 395> 363 177<230.5 242> 413 127<300.5 339.5> 586 139<147 299 147 299 368 520 147 368>
VStem: 30 199<141.5 181.5 141.5 215> 45 197<363 425.5> 147 152<586 725 586 725> 368 152<586 725 586 725> 395 199<185 230 230 230 324 350 350 368>
LayerCount: 2
Fore
SplineSet
299 725 m 1x2480
 299 586 l 1
 147 586 l 1
 147 725 l 1
 299 725 l 1x2480
520 725 m 1x2440
 520 586 l 1
 368 586 l 1
 368 725 l 1
 520 725 l 1x2440
411 54 m 1
 402 75 395 126 395 185 c 1
 395 350 l 2
 395 393 361 413 318 413 c 0x6d20
 283 413 242 402 242 367 c 2
 242 363 l 1
 46 363 l 1x3520
 45 368 45 372 45 377 c 0
 45 378 l 0
 45 538 321 540 321 540 c 0
 466 540 594 498 594 368 c 2
 594 162 l 2
 594 140 604 123 626 123 c 2
 662 123 l 1
 662 8 l 1
 662 8 625 -12 558 -12 c 0x6d20
 478 -12 429 14 411 54 c 1
339 11 m 1
 306 -3 266 -12 216 -12 c 0
 106 -12 30 26 30 136 c 0
 30 281 142 318 339 323 c 1
 339 227 l 1
 262 219 229 194 229 162 c 0
 229 121 263 112 297 112 c 0xa6
 312 112 326 114 339 119 c 1
 339 11 l 1
EndSplineSet
Validated: 1
EndChar

StartChar: aring
Encoding: 229 229 194
Width: 667
Flags: HMW
HStem: -12 124<161 322.5> -12 135<518 662> 230 94<336 395> 363 177<230.5 242> 413 127<300.5 339.5> 577 68<322 345 322 363.5> 725 69<321.5 344.5>
VStem: 30 199<141.5 181.5 141.5 215> 45 197<363 425.5> 225 68<672.5 696 672.5 715> 374 68<674 697.5> 395 199<185 230 230 230 324 350 350 368>
LayerCount: 2
Fore
SplineSet
411 54 m 1x6e90
 402 75 395 126 395 185 c 1
 395 350 l 2
 395 393 361 413 318 413 c 0x6e90
 283 413 242 402 242 367 c 2
 242 363 l 1
 46 363 l 1x3690
 45 368 45 372 45 377 c 0
 47 537 321 540 321 540 c 0
 466 540 594 498 594 368 c 2
 594 162 l 2
 594 140 604 123 626 123 c 2
 662 123 l 1
 662 8 l 1
 662 8 625 -12 558 -12 c 0
 478 -12 429 14 411 54 c 1x6e90
339 11 m 1
 306 -3 266 -12 216 -12 c 0
 106 -12 30 26 30 136 c 0
 30 281 142 318 339 323 c 1
 339 227 l 1
 262 219 229 194 229 162 c 0
 229 121 263 112 297 112 c 0xa7
 312 112 326 114 339 119 c 1
 339 11 l 1
293 585 m 1x2640
 253 601 225 639 225 685 c 0
 225 731 253 770 293 786 c 1
 293 684 l 1
 293 585 l 1x2640
349 793 m 1
 401 785 442 740 442 685 c 0
 442 631 402 586 349 578 c 1
 349 648 l 1
 364 654 374 668 374 686 c 0x2620
 374 703 364 717 349 722 c 1
 349 793 l 1
EndSplineSet
Validated: 1
EndChar

StartChar: ae
Encoding: 230 230 195
Width: 1000
Flags: MW
HStem: -12 124<280 303> -12 127<657.5 724 657.5 794> 230 94<336 395 597 771> 363 177<230.5 242> 413 127<303.5 342.5 660 714.5>
VStem: 30 199<141.5 181.5 141.5 220.5> 45 197<363 425.5> 395 201<193.5 230 193.5 230 193.5 230 193.5 350 193.5 371.5> 771 201<129 351.5> 779 193<170.5 192>
LayerCount: 2
Fore
SplineSet
694 540 m 0x6d80
 872 540 972 454 972 264 c 2
 972 230 l 1x6d80
 596 230 l 1
 596 157 623 115 692 115 c 0
 756 115 779 149 779 192 c 1
 972 192 l 1
 972 66 882 -12 706 -12 c 0
 606 -12 525 11 472 61 c 1
 421 23 350 -12 256 -12 c 0
 117 -12 30 24 30 146 c 0x6d40
 30 295 163 324 395 324 c 1
 395 350 l 2
 395 393 363 413 322 413 c 0x6b80
 285 413 242 402 242 367 c 2
 242 363 l 1
 46 363 l 1x7380
 45 368 45 372 45 377 c 0x6b80
 45 474 140 540 321 540 c 0
 396 540 468 527 518 492 c 1
 566 524 626 540 694 540 c 0x6d80
395 185 m 2xad80
 395 230 l 1
 277 230 229 201 229 162 c 0
 229 121 263 112 297 112 c 0
 348 112 395 142 395 185 c 2xad80
688 413 m 0
 630 413 603 379 597 324 c 1
 771 324 l 1
 771 379 741 413 688 413 c 0
EndSplineSet
Validated: 1
EndChar

StartChar: ccedilla
Encoding: 231 231 196
Width: 667
Flags: MW
HStem: -211 62<314.5 341 302.5 360.5> -86 57<292 363> -11 21G<304 304 365 365> -11 134<304 304 365 365> 405 135<298 364>
VStem: 36 199<200 235 235 292 200 356.5> 369 87<-129.5 -108> 439 185<182.5 215>
LayerCount: 2
Fore
SplineSet
333 540 m 0xad
 494 540 624 476 624 315 c 1
 431 315 l 1
 431 377 395 405 333 405 c 0
 263 405 235 362 235 292 c 2
 235 235 l 2
 235 165 264 123 337 123 c 0
 402 123 439 150 439 215 c 1
 624 215 l 1x9d
 624 65 511 -2 365 -11 c 1xae
 363 -29 l 1
 412 -34 456 -56 456 -118 c 0
 456 -194 384 -211 337 -211 c 0
 292 -211 241 -205 211 -195 c 1
 211 -141 l 1
 211 -141 276 -149 329 -149 c 0
 353 -149 369 -141 369 -118 c 0
 369 -98 359 -86 331 -86 c 2
 292 -86 l 1xee
 304 -11 l 1
 140 -1 36 89 36 264 c 0
 36 449 153 540 333 540 c 0xad
EndSplineSet
Validated: 1
EndChar

StartChar: egrave
Encoding: 232 232 197
Width: 667
Flags: HMW
HStem: -12 127<303 376.5 303 440> 230 94<236 430 236 631 235 430> 413 127<307.5 369> 592 133<303 337 145 430 303 303>
VStem: 36 199<193.5 230 193.5 356.5> 430 201<129 351.5> 438 193<170.5 192>
LayerCount: 2
Fore
SplineSet
430 592 m 1xfc
 337 725 l 1
 145 725 l 1
 143 721 l 1
 303 592 l 1
 430 592 l 1xfc
333 540 m 0
 523 540 631 454 631 264 c 2
 631 230 l 1xfc
 291 230 l 1
 235 230 l 1
 235 157 265 115 341 115 c 0
 412 115 438 149 438 192 c 1xfa
 631 192 l 1
 631 66 535 -12 345 -12 c 0
 155 -12 36 74 36 264 c 0
 36 414 113 502 238 530 c 1
 235 230 l 1
 291 230 l 1
 292 324 l 1
 430 324 l 1
 430 379 397 413 341 413 c 0
 322 413 306 410 293 405 c 1
 294 538 l 1
 307 539 320 540 333 540 c 0
EndSplineSet
Validated: 5
EndChar

StartChar: eacute
Encoding: 233 233 198
Width: 667
Flags: HMW
HStem: -12 127<303 376.5 303 440> 230 94<236 430 236 631 235 430> 413 127<307.5 369> 592 133<330 365 237 522>
VStem: 36 199<193.5 230 193.5 356.5> 430 201<129 351.5> 438 193<170.5 192>
LayerCount: 2
Fore
SplineSet
524 721 m 1xf8
 522 725 l 1
 330 725 l 1
 237 592 l 1
 365 592 l 1
 524 721 l 1xf8
333 540 m 0
 523 540 631 454 631 264 c 2
 631 230 l 1xfc
 291 230 l 1
 235 230 l 1
 235 157 265 115 341 115 c 0
 412 115 438 149 438 192 c 1xfa
 631 192 l 1
 631 66 535 -12 345 -12 c 0
 155 -12 36 74 36 264 c 0
 36 413.170218024 112.068815533 501.225319296 235.897419244 529.738027556 c 1
 235 230 l 1
 291 230 l 1
 291.281437126 324 l 1
 430 324 l 1xfc
 430 379 397 413 341 413 c 0
 321.580928932 413 305.18605291 410.14381579 291.523197514 404.747969659 c 1
 291.923133374 538.326546774 l 1
 305.212317409 539.442661568 318.913233863 540 333 540 c 0
EndSplineSet
Validated: 5
EndChar

StartChar: ecircumflex
Encoding: 234 234 199
Width: 667
Flags: HMW
HStem: -12 127<303 376.5 303 440> 230 94<236 430 236 631 235 430> 413 127<307.5 369> 580 145<130 397 130 397 270 537 270 407> 657 68<333 333>
VStem: 36 199<193.5 230 193.5 356.5> 430 201<129 351.5> 438 193<170.5 192>
LayerCount: 2
Fore
SplineSet
397 725 m 1xf4
 270 725 l 1
 130 580 l 1
 258 580 l 1xf4
 333 657 l 1xec
 407 580 l 1
 537 580 l 1
 397 725 l 1xf4
333 540 m 0
 523 540 631 454 631 264 c 2
 631 230 l 1xe6
 291 230 l 1
 235 230 l 1
 235 157 265 115 341 115 c 0
 412 115 438 149 438 192 c 1xe5
 631 192 l 1
 631 66 535 -12 345 -12 c 0
 155 -12 36 74 36 264 c 0
 36 412.809522559 111.701389584 500.799125282 235 529.530150876 c 1
 235 230 l 1
 291 230 l 1
 291 324 l 1
 430 324 l 1xe6
 430 379 397 413 341 413 c 0
 321.332419064 413 304.76693094 410.070245677 291 404.539567296 c 1
 291 538.248060034 l 1
 304.577578941 539.416533418 318.586820269 540 333 540 c 0
EndSplineSet
Validated: 5
EndChar

StartChar: edieresis
Encoding: 235 235 200
Width: 667
Flags: HMW
HStem: -12 127<303 376.5 303 440> 230 94<236 430 236 631 235 430> 413 127<307.5 369> 586 139<147 299 147 299 368 520 147 368>
VStem: 36 199<193.5 230 193.5 356.5> 147 152<586 725 586 725> 368 152<586 725 586 725> 430 201<129 351.5> 438 193<170.5 192>
LayerCount: 2
Fore
SplineSet
299 725 m 1xf4
 147 725 l 1
 147 586 l 1
 299 586 l 1
 299 725 l 1xf4
520 725 m 1xf2
 368 725 l 1
 368 586 l 1
 520 586 l 1
 520 725 l 1xf2
333 540 m 0
 523 540 631 454 631 264 c 2
 631 230 l 1xf9
 291 230 l 1
 235 230 l 1
 235 157 265 115 341 115 c 0
 412 115 438 149 438 192 c 1xf880
 631 192 l 1
 631 66 535 -12 345 -12 c 0
 155 -12 36 74 36 264 c 0
 36 412.809522559 111.701389584 500.799125282 235 529.530150876 c 1
 235 230 l 1
 291 230 l 1
 291 324 l 1
 430 324 l 1xf9
 430 379 397 413 341 413 c 0
 321.332419064 413 304.76693094 410.070245677 291 404.539567296 c 1
 291 538.248060034 l 1
 304.577578941 539.416533418 318.586820269 540 333 540 c 0
EndSplineSet
Validated: 5
EndChar

StartChar: igrave
Encoding: 236 236 201
Width: 333
Flags: MW
HStem: 0 21G<67 266 67 67> 508 20G<67 266 266 266> 592 133<136 170 -22 263 136 136>
VStem: 67 199<0 528>
LayerCount: 2
Fore
SplineSet
266 0 m 1
 67 0 l 1
 67 528 l 1
 266 528 l 1
 266 0 l 1
263 592 m 1
 136 592 l 1
 -24 721 l 1
 -22 725 l 1
 170 725 l 1
 263 592 l 1
EndSplineSet
Validated: 1
EndChar

StartChar: iacute
Encoding: 237 237 202
Width: 333
Flags: MW
HStem: 0 21G<67 266 67 67> 508 20G<67 266 266 266> 592 133<163 198 70 355>
VStem: 67 199<0 528>
LayerCount: 2
Fore
SplineSet
266 0 m 1
 67 0 l 1
 67 528 l 1
 266 528 l 1
 266 0 l 1
357 721 m 1
 198 592 l 1
 70 592 l 1
 163 725 l 1
 355 725 l 1
 357 721 l 1
EndSplineSet
Validated: 1
EndChar

StartChar: icircumflex
Encoding: 238 238 203
Width: 333
Flags: MW
HStem: 0 21G<67 266 67 67> 508 20G<67 266 266 266> 580 145<-37 230 -37 230 103 370 103 240> 657 68<166 166>
VStem: 67 199<0 528 0 528>
LayerCount: 2
Fore
SplineSet
266 528 m 1xe8
 266 0 l 1
 67 0 l 1
 67 528 l 1
 266 528 l 1xe8
230 725 m 1
 370 580 l 1
 240 580 l 1xe8
 166 657 l 1xd8
 91 580 l 1
 -37 580 l 1
 103 725 l 1
 230 725 l 1
EndSplineSet
Validated: 1
EndChar

StartChar: idieresis
Encoding: 239 239 204
Width: 333
Flags: MW
HStem: 0 21G<67 266 67 67> 508 20G<67 266 266 266> 586 139<-20 132 -20 132 201 353 -20 201>
VStem: -20 152<586 725 586 725> 67 199<0 528 0 528> 201 152<586 725 586 725>
LayerCount: 2
Fore
SplineSet
266 528 m 1xe8
 266 0 l 1
 67 0 l 1
 67 528 l 1
 266 528 l 1xe8
353 725 m 1xe4
 353 586 l 1xe4
 201 586 l 1
 201 725 l 1xe8
 353 725 l 1xe4
132 725 m 1xe8
 132 586 l 1xe8
 -20 586 l 1
 -20 725 l 1xf0
 132 725 l 1xe8
EndSplineSet
Validated: 1
EndChar

StartChar: eth
Encoding: 240 240 205
Width: 667
Flags: MW
HStem: -12 135<298 368 298 423> 405 119<298 308 217 368> 656 69<247 247> 674 20G<570 570>
VStem: 36 199<200 235 235 292 200 341> 432 199<235 292 292 327>
LayerCount: 2
Fore
SplineSet
165 725 m 1xec
 363 725 l 1
 363 725 392 710 431 678 c 1xec
 570 694 l 1
 570 616 l 1
 502 608 l 1xdc
 567 532 631 419 631 264 c 0
 631 79 513 -12 333 -12 c 0
 153 -12 36 79 36 264 c 0
 36 418 136 524 298 524 c 0
 318 524 343 522 364 516 c 1
 348 541 331 564 314 586 c 1
 149 567 l 1
 149 645 l 1
 247 656 l 1
 213 687 183 709 164 721 c 1
 165 725 l 1xec
333 405 m 0
 263 405 235 362 235 292 c 2
 235 235 l 2
 235 165 263 123 333 123 c 0
 403 123 432 165 432 235 c 2
 432 292 l 2
 432 362 403 405 333 405 c 0
EndSplineSet
Validated: 1
EndChar

StartChar: ntilde
Encoding: 241 241 206
Width: 667
Flags: MW
HStem: 0 21G<60 259 60 60 409 608 409 409> 393 147<317 486.5> 508 20G<60 223 223 223> 582 103<397.5 437 397.5 458> 582 143<111 283 111 283 209 458> 622 103<230 269.5>
VStem: 60 199<0 310 0 528> 409 199<0 318 318 340>
LayerCount: 2
Fore
SplineSet
424 540 m 0xcb
 549 540 608 467 608 342 c 2
 608 0 l 1
 409 0 l 1
 409 318 l 2
 409 362 386 393 342 393 c 0
 292 393 259 355 259 310 c 2xcb
 259 0 l 1
 60 0 l 1
 60 528 l 1
 223 528 l 1xab
 236 448 l 1
 277 504 349 540 424 540 c 0xcb
475 725 m 1xab
 556 725 l 1xab
 556 653 500 582 416 582 c 0xb3
 352 582 296 622 243 622 c 0xa7
 217 622 200 605 192 582 c 1
 111 582 l 1
 111 654 167 725 251 725 c 0xab
 315 725 371 685 424 685 c 0xb3
 450 685 467 702 475 725 c 1xab
EndSplineSet
Validated: 1
EndChar

StartChar: ograve
Encoding: 242 242 207
Width: 667
Flags: MW
HStem: -12 135<298 368 298 423> 405 135<298 368> 592 133<303 337 145 430 303 303>
VStem: 36 199<200 235 235 292 200 356.5> 432 199<235 292 292 327>
LayerCount: 2
Fore
SplineSet
333 540 m 0
 513 540 631 449 631 264 c 0
 631 79 513 -12 333 -12 c 0
 153 -12 36 79 36 264 c 0
 36 449 153 540 333 540 c 0
333 405 m 0
 263 405 235 362 235 292 c 2
 235 235 l 2
 235 165 263 123 333 123 c 0
 403 123 432 165 432 235 c 2
 432 292 l 2
 432 362 403 405 333 405 c 0
430 592 m 1
 303 592 l 1
 143 721 l 1
 145 725 l 1
 337 725 l 1
 430 592 l 1
EndSplineSet
Validated: 1
EndChar

StartChar: oacute
Encoding: 243 243 208
Width: 667
Flags: MW
HStem: -12 135<298 368 298 423> 405 135<298 368> 592 133<330 365 237 522>
VStem: 36 199<200 235 235 292 200 356.5> 432 199<235 292 292 327>
LayerCount: 2
Fore
SplineSet
333 540 m 0
 513 540 631 449 631 264 c 0
 631 79 513 -12 333 -12 c 0
 153 -12 36 79 36 264 c 0
 36 449 153 540 333 540 c 0
333 405 m 0
 263 405 235 362 235 292 c 2
 235 235 l 2
 235 165 263 123 333 123 c 0
 403 123 432 165 432 235 c 2
 432 292 l 2
 432 362 403 405 333 405 c 0
524 721 m 1
 365 592 l 1
 237 592 l 1
 330 725 l 1
 522 725 l 1
 524 721 l 1
EndSplineSet
Validated: 1
EndChar

StartChar: ocircumflex
Encoding: 244 244 209
Width: 667
Flags: MW
HStem: -12 135<298 368 298 423> 405 135<298 368> 580 145<130 397 130 397 270 537 270 407> 657 68<333 333>
VStem: 36 199<200 235 235 292 200 356.5> 432 199<235 292 292 327>
LayerCount: 2
Fore
SplineSet
333 540 m 0xec
 513 540 631 449 631 264 c 0
 631 79 513 -12 333 -12 c 0
 153 -12 36 79 36 264 c 0
 36 449 153 540 333 540 c 0xec
333 405 m 0
 263 405 235 362 235 292 c 2
 235 235 l 2
 235 165 263 123 333 123 c 0
 403 123 432 165 432 235 c 2
 432 292 l 2
 432 362 403 405 333 405 c 0
397 725 m 1
 537 580 l 1
 407 580 l 1xec
 333 657 l 1xdc
 258 580 l 1
 130 580 l 1
 270 725 l 1
 397 725 l 1
EndSplineSet
Validated: 1
EndChar

StartChar: otilde
Encoding: 245 245 210
Width: 667
Flags: MW
HStem: -12 135<298 368 298 423> 405 135<298 368> 582 103<397.5 437 397.5 458> 582 143<111 283 111 283 209 458> 622 103<230 269.5>
VStem: 36 199<200 235 235 292 200 356.5> 432 199<235 292 292 327>
LayerCount: 2
Fore
SplineSet
333 540 m 0xd6
 513 540 631 449 631 264 c 0
 631 79 513 -12 333 -12 c 0
 153 -12 36 79 36 264 c 0
 36 449 153 540 333 540 c 0xd6
333 405 m 0
 263 405 235 362 235 292 c 2
 235 235 l 2
 235 165 263 123 333 123 c 0
 403 123 432 165 432 235 c 2
 432 292 l 2
 432 362 403 405 333 405 c 0
475 725 m 1
 556 725 l 1xd6
 556 653 500 582 416 582 c 0xe6
 352 582 296 622 243 622 c 0xce
 217 622 200 605 192 582 c 1
 111 582 l 1
 111 654 167 725 251 725 c 0xd6
 315 725 371 685 424 685 c 0xe6
 450 685 467 702 475 725 c 1
EndSplineSet
Validated: 1
EndChar

StartChar: odieresis
Encoding: 246 246 211
Width: 667
Flags: MW
HStem: -12 135<298 368 298 423> 405 135<298 368> 586 139<147 299 147 299 368 520 147 368>
VStem: 36 199<200 235 235 292 200 356.5> 147 152<586 725 586 725> 368 152<586 725 586 725> 432 199<235 292 292 327>
LayerCount: 2
Fore
SplineSet
333 540 m 0xf2
 513 540 631 449 631 264 c 0
 631 79 513 -12 333 -12 c 0
 153 -12 36 79 36 264 c 0
 36 449 153 540 333 540 c 0xf2
333 405 m 0
 263 405 235 362 235 292 c 2
 235 235 l 2
 235 165 263 123 333 123 c 0
 403 123 432 165 432 235 c 2
 432 292 l 2
 432 362 403 405 333 405 c 0
520 725 m 1xec
 520 586 l 1
 368 586 l 1
 368 725 l 1
 520 725 l 1xec
299 725 m 1
 299 586 l 1
 147 586 l 1
 147 725 l 1
 299 725 l 1
EndSplineSet
Validated: 1
EndChar

StartChar: divide
Encoding: 247 247 212
Width: 660
Flags: MW
HStem: 15 131<266 397 266 397> 196 132<66 594 66 594> 377 131<266 397 266 397>
VStem: 266 131<15 146 15 146 377 508>
LayerCount: 2
Fore
SplineSet
594 328 m 1
 594 196 l 1
 66 196 l 1
 66 328 l 1
 594 328 l 1
397 146 m 1
 397 15 l 1
 266 15 l 1
 266 146 l 1
 397 146 l 1
397 508 m 1
 397 377 l 1
 266 377 l 1
 266 508 l 1
 397 508 l 1
EndSplineSet
Validated: 1
EndChar

StartChar: oslash
Encoding: 248 248 213
Width: 667
Flags: MW
HStem: -12 135<322.5 368 322.5 423> 405 135<298 345.5>
VStem: 36 199<227.5 235 235 292 227.5 356.5> 432 199<235 292 292 297>
LayerCount: 2
Fore
SplineSet
622 559 m 1
 551 470 l 1
 602 424 631 355 631 264 c 0
 631 79 513 -12 333 -12 c 0
 277 -12 227 -3 185 14 c 1
 138 -45 l 1
 46 -45 l 1
 123 51 l 1
 68 97 36 168 36 264 c 0
 36 449 153 540 333 540 c 0
 393 540 446 530 490 509 c 1
 530 559 l 1
 622 559 l 1
430 320 m 1
 281 134 l 1
 295 127 312 123 333 123 c 0
 403 123 432 165 432 235 c 2
 432 292 l 2
 432 302 431 311 430 320 c 1
333 405 m 0
 263 405 235 362 235 292 c 2
 235 235 l 2
 235 220 236 207 238 195 c 1
 393 389 l 1
 378 399 358 405 333 405 c 0
EndSplineSet
Validated: 1
EndChar

StartChar: ugrave
Encoding: 249 249 214
Width: 667
Flags: MW
HStem: -12 147<179.5 349> 0 21G<443 606 443 443> 508 20G<58 257 257 257 407 606 606 606> 592 133<303 337 145 430 303 303>
VStem: 58 199<188 210 210 528> 407 199<218 528>
LayerCount: 2
Fore
SplineSet
606 0 m 1x7c
 443 0 l 1x7c
 430 80 l 1
 389 23 317 -12 242 -12 c 0
 117 -12 58 61 58 186 c 2
 58 528 l 1
 257 528 l 1
 257 210 l 2
 257 166 280 135 324 135 c 0
 374 135 407 173 407 218 c 2xbc
 407 528 l 1
 606 528 l 1
 606 0 l 1x7c
430 592 m 1
 303 592 l 1
 143 721 l 1
 145 725 l 1
 337 725 l 1
 430 592 l 1
EndSplineSet
Validated: 1
EndChar

StartChar: uacute
Encoding: 250 250 215
Width: 667
Flags: MW
HStem: -12 147<179.5 349> 0 21G<443 606 443 443> 508 20G<58 257 257 257 407 606 606 606> 592 133<330 365 237 522>
VStem: 58 199<188 210 210 528> 407 199<218 528>
LayerCount: 2
Fore
SplineSet
606 0 m 1x7c
 443 0 l 1x7c
 430 80 l 1
 389 23 317 -12 242 -12 c 0
 117 -12 58 61 58 186 c 2
 58 528 l 1
 257 528 l 1
 257 210 l 2
 257 166 280 135 324 135 c 0
 374 135 407 173 407 218 c 2xbc
 407 528 l 1
 606 528 l 1
 606 0 l 1x7c
524 721 m 1
 365 592 l 1
 237 592 l 1
 330 725 l 1
 522 725 l 1
 524 721 l 1
EndSplineSet
Validated: 1
EndChar

StartChar: ucircumflex
Encoding: 251 251 216
Width: 667
Flags: MW
HStem: -12 147<179.5 349> 0 21G<443 606 443 443> 508 20G<58 257 257 257 407 606 606 606> 580 145<130 397 130 397 270 537 270 407> 657 68<333 333>
VStem: 58 199<188 210 210 528> 407 199<218 528 0 528 0 580>
LayerCount: 2
Fore
SplineSet
606 528 m 1x76
 606 0 l 1
 443 0 l 1x76
 430 80 l 1
 389 23 317 -12 242 -12 c 0
 117 -12 58 61 58 186 c 2
 58 528 l 1
 257 528 l 1
 257 210 l 2
 257 166 280 135 324 135 c 0
 374 135 407 173 407 218 c 2xb6
 407 528 l 1
 606 528 l 1x76
397 725 m 1
 537 580 l 1
 407 580 l 1x76
 333 657 l 1x6e
 258 580 l 1
 130 580 l 1
 270 725 l 1
 397 725 l 1
EndSplineSet
Validated: 1
EndChar

StartChar: udieresis
Encoding: 252 252 217
Width: 667
Flags: MW
HStem: -12 147<179.5 349> 0 21G<443 606 443 443> 508 20G<58 257 257 257 407 606 606 606> 586 139<147 299 147 299 368 520 147 368>
VStem: 58 199<188 210 210 528> 147 152<586 725 586 725> 368 152<586 725 586 725> 407 199<218 528 0 528>
LayerCount: 2
Fore
SplineSet
606 528 m 1x79
 606 0 l 1
 443 0 l 1x79
 430 80 l 1
 389 23 317 -12 242 -12 c 0
 117 -12 58 61 58 186 c 2
 58 528 l 1
 257 528 l 1
 257 210 l 2
 257 166 280 135 324 135 c 0
 374 135 407 173 407 218 c 2xb9
 407 528 l 1
 606 528 l 1x79
520 725 m 1x76
 520 586 l 1
 368 586 l 1
 368 725 l 1
 520 725 l 1x76
299 725 m 1
 299 586 l 1x75
 147 586 l 1
 147 725 l 1x79
 299 725 l 1
EndSplineSet
Validated: 1
EndChar

StartChar: yacute
Encoding: 253 253 218
Width: 611
Flags: MW
HStem: -210 137<132 156 41 233> 508 20G<0 214 214 214 415 611 611 611> 592 133<302 337 209 495>
VStem: 0 611<528 528>
LayerCount: 2
Fore
SplineSet
611 528 m 1
 423 16 l 2
 375 -115 310 -210 156 -210 c 0
 108 -210 66 -201 41 -192 c 1
 41 -73 l 1
 121 -73 l 2
 191 -73 205 -26 210 0 c 1
 0 528 l 1
 214 528 l 1
 315 177 l 1
 322 177 l 1
 415 528 l 1
 611 528 l 1
497 721 m 1
 337 592 l 1
 209 592 l 1
 302 725 l 1
 495 725 l 1
 497 721 l 1
EndSplineSet
Validated: 1
EndChar

StartChar: thorn
Encoding: 254 254 219
Width: 667
Flags: MW
HStem: -197 21G<61 260 61 61> -12 147<315 478> 393 147<315 478> 705 20G<61 260 260 260>
VStem: 61 199<-197 48 478 725> 432 199<238 291 291 322>
LayerCount: 2
Fore
SplineSet
260 725 m 1
 260 478 l 1
 298 520 348 540 408 540 c 0
 548 540 631 449 631 263 c 0
 631 79 548 -12 408 -12 c 0
 348 -12 298 7 260 48 c 1
 260 -197 l 1
 61 -197 l 1
 61 725 l 1
 260 725 l 1
346 393 m 0
 284 393 258 343 258 281 c 2
 258 248 l 2
 258 186 284 135 346 135 c 0
 408 135 432 176 432 238 c 2
 432 291 l 2
 432 353 408 393 346 393 c 0
EndSplineSet
Validated: 1
EndChar

StartChar: ydieresis
Encoding: 255 255 220
Width: 611
Flags: MW
HStem: -210 137<132 156 41 233> 508 20G<0 214 214 214 415 611 611 611> 586 139<120 271 120 271 340 492 120 340>
VStem: 120 151<586 725 586 725> 340 152<586 725 586 725>
LayerCount: 2
Fore
SplineSet
611 528 m 1
 423 16 l 2
 375 -115 310 -210 156 -210 c 0
 108 -210 66 -201 41 -192 c 1
 41 -73 l 1
 121 -73 l 2
 191 -73 205 -26 210 0 c 1
 0 528 l 1
 214 528 l 1
 315 177 l 1
 322 177 l 1
 415 528 l 1
 611 528 l 1
492 725 m 1
 492 586 l 1
 340 586 l 1
 340 725 l 1
 492 725 l 1
271 725 m 1
 271 586 l 1
 120 586 l 1
 120 725 l 1
 271 725 l 1
EndSplineSet
Validated: 1
EndChar

StartChar: Amacron
Encoding: 256 256 221
Width: 778
Flags: MW
HStem: 0 21G<10 236 10 10 535 769 535 535> 97 154<311 460 311 506 265 460> 496 192<384 388 384 384> 668 20G<261 518 518 518> 765 100<231 547 231 547>
VStem: 10 759<0 0> 231 316<765 865 765 865>
LayerCount: 2
Fore
SplineSet
518 688 m 1xdc
 769 0 l 1
 535 0 l 1
 506 97 l 1
 265 97 l 1
 236 0 l 1
 10 0 l 1
 261 688 l 1
 518 688 l 1xdc
388 496 m 1xea
 384 496 l 1
 311 251 l 1
 460 251 l 1
 388 496 l 1xea
547 865 m 1
 547 765 l 1
 231 765 l 1
 231 865 l 1
 547 865 l 1
EndSplineSet
Validated: 1
EndChar

StartChar: amacron
Encoding: 257 257 222
Width: 667
Flags: MW
HStem: -12 124<161 322.5> -12 135<518 662> 230 94<336 395> 363 177<230.5 242> 413 127<300.5 339.5> 605 100<175 492 175 492>
VStem: 30 199<141.5 181.5 141.5 215> 45 197<363 425.5> 175 317<605 705 605 705> 395 199<185 230 230 230 324 350 350 368>
LayerCount: 2
Fore
SplineSet
321 540 m 0xb640
 466 540 594 498 594 368 c 2
 594 162 l 2
 594 140 604 123 626 123 c 2
 662 123 l 1x7640
 662 8 l 1
 662 8 625 -12 558 -12 c 0
 478 -12 429 14 411 54 c 1
 367 19 308 -12 216 -12 c 0
 106 -12 30 26 30 136 c 0xb640
 30 294 164 324 395 324 c 1
 395 350 l 2
 395 393 361 413 318 413 c 0xad40
 283 413 242 402 242 367 c 2
 242 363 l 1
 46 363 l 1
 45 368 45 372 45 377 c 0xb540
 45 474 140 540 321 540 c 0xb640
395 185 m 2
 395 230 l 1
 277 230 229 201 229 162 c 0
 229 121 263 112 297 112 c 0
 348 112 395 142 395 185 c 2
492 705 m 1xb480
 492 605 l 1
 175 605 l 1
 175 705 l 1
 492 705 l 1xb480
EndSplineSet
Validated: 1
EndChar

StartChar: Abreve
Encoding: 258 258 223
Width: 778
Flags: MW
HStem: 0 21G<10 236 10 10 535 769 535 535> 97 154<311 460 311 506 265 460> 496 192<384 388 384 384> 668 20G<261 518 518 518> 741 94<364.5 413.5 364.5 445.5>
VStem: 10 759<0 0>
LayerCount: 2
Fore
SplineSet
518 688 m 1xdc
 769 0 l 1
 535 0 l 1
 506 97 l 1
 265 97 l 1
 236 0 l 1
 10 0 l 1
 261 688 l 1
 518 688 l 1xdc
388 496 m 1xec
 384 496 l 1
 311 251 l 1
 460 251 l 1
 388 496 l 1xec
479 885 m 1
 574 885 l 1
 574 818 502 741 389 741 c 0
 273 741 205 818 205 885 c 1
 301 885 l 1
 305 864 340 835 389 835 c 0
 438 835 475 864 479 885 c 1
EndSplineSet
Validated: 1
EndChar

StartChar: abreve
Encoding: 259 259 224
Width: 667
Flags: MW
HStem: -12 124<161 322.5> -12 135<518 662> 230 94<336 395> 363 177<230.5 242> 413 127<300.5 339.5> 581 94<321 358 321 390> 581 144<149 390>
VStem: 30 199<141.5 181.5 141.5 215> 45 197<363 425.5> 395 199<185 230 230 230 324 350 350 368>
LayerCount: 2
Fore
SplineSet
321 540 m 0xb340
 466 540 594 498 594 368 c 2
 594 162 l 2
 594 140 604 123 626 123 c 2
 662 123 l 1x7340
 662 8 l 1
 662 8 625 -12 558 -12 c 0
 478 -12 429 14 411 54 c 1
 367 19 308 -12 216 -12 c 0
 106 -12 30 26 30 136 c 0xb340
 30 294 164 324 395 324 c 1
 395 350 l 2
 395 393 361 413 318 413 c 0xaac0
 283 413 242 402 242 367 c 2
 242 363 l 1
 46 363 l 1
 45 368 45 372 45 377 c 0xb2c0
 45 474 140 540 321 540 c 0xb340
395 185 m 2
 395 230 l 1
 277 230 229 201 229 162 c 0
 229 121 263 112 297 112 c 0
 348 112 395 142 395 185 c 2
423 725 m 1
 518 725 l 1
 518 658 447 581 333 581 c 0
 218 581 149 658 149 725 c 1
 245 725 l 1xb340
 247 715 257 702 272 692 c 0
 288 682 309 675 333 675 c 0xb540
 383 675 419 704 423 725 c 1
EndSplineSet
Validated: 1
EndChar

StartChar: Aogonek
Encoding: 260 260 225
Width: 778
Flags: MW
HStem: -211 91<596.5 725> 0 21G<10 236 10 10 535 542 535 535 639 769 639 639> 97 154<311 460 311 506 265 460> 496 192<384 388 384 384> 668 20G<261 518 518 518>
VStem: 502 223<-138 -120 -196 -76>
LayerCount: 2
Fore
SplineSet
518 688 m 1xec
 769 0 l 1
 639 0 l 1
 631 -16 623 -43 623 -69 c 0
 623 -95 638 -120 683 -120 c 2
 725 -120 l 1
 725 -196 l 1
 694 -206 662 -211 629 -211 c 0
 564 -211 502 -179 502 -97 c 0
 502 -55 522 -25 542 0 c 1
 535 0 l 1
 506 97 l 1
 265 97 l 1
 236 0 l 1
 10 0 l 1
 261 688 l 1
 518 688 l 1xec
388 496 m 1xf4
 384 496 l 1
 311 251 l 1
 460 251 l 1
 388 496 l 1xf4
EndSplineSet
Validated: 1
EndChar

StartChar: aogonek
Encoding: 261 261 226
Width: 667
Flags: MW
HStem: -211 91<521.5 649> -12 124<161 322.5> -12 135<558 662> 230 94<336 395> 363 177<230.5 242> 413 127<300.5 339.5>
VStem: 30 199<141.5 181.5 141.5 215> 45 197<363 425.5> 395 199<185 230 230 230 324 350 350 368> 427 222<-138 -120 -196 -75>
LayerCount: 2
Fore
SplineSet
321 540 m 0xda80
 466 540 594 498 594 368 c 2
 594 162 l 2
 594 140 604 123 626 123 c 2
 662 123 l 1xba80
 662 8 l 1xda80
 662 8 625 -12 558 -12 c 1
 552 -28 547 -49 547 -69 c 0
 547 -95 562 -120 607 -120 c 2
 649 -120 l 1
 649 -196 l 1
 619 -206 586 -211 554 -211 c 0
 489 -211 427 -179 427 -97 c 0
 427 -53 449 -23 469 2 c 1
 440 14 421 32 411 54 c 1
 367 19 308 -12 216 -12 c 0
 106 -12 30 26 30 136 c 0xda40
 30 294 164 324 395 324 c 1
 395 350 l 2
 395 393 361 413 318 413 c 0xd580
 283 413 242 402 242 367 c 2
 242 363 l 1
 46 363 l 1
 45 368 45 372 45 377 c 0xd980
 45 474 140 540 321 540 c 0xda80
395 185 m 2
 395 230 l 1
 277 230 229 201 229 162 c 0
 229 121 263 112 297 112 c 0
 348 112 395 142 395 185 c 2
EndSplineSet
Validated: 1
EndChar

StartChar: Cacute
Encoding: 262 262 227
Width: 778
Flags: MW
HStem: -12 165<354 442.5 354 507> 535 165<354 440.5> 752 133<396 431 303 588>
VStem: 45 226<265 312 312 376 265 461.5> 529 204<239.5 279>
LayerCount: 2
Fore
SplineSet
402 700 m 0
 602 700 733 597 733 405 c 1
 522 405 l 1
 522 484 480 535 401 535 c 0
 307 535 271 470 271 376 c 2
 271 312 l 2
 271 218 309 153 399 153 c 0
 486 153 529 200 529 279 c 1
 733 279 l 1
 733 90 612 -12 402 -12 c 0
 167 -12 45 109 45 344 c 0
 45 579 167 700 402 700 c 0
590 881 m 1
 431 752 l 1
 303 752 l 1
 396 885 l 1
 588 885 l 1
 590 881 l 1
EndSplineSet
Validated: 1
EndChar

StartChar: cacute
Encoding: 263 263 228
Width: 667
Flags: MW
HStem: -12 135<300.5 369.5 300.5 413.5> 405 135<298 364> 592 133<330 365 237 522>
VStem: 36 199<200 235 235 292 200 356.5> 439 185<182.5 215>
LayerCount: 2
Fore
SplineSet
333 540 m 0
 494 540 624 476 624 315 c 1
 431 315 l 1
 431 377 395 405 333 405 c 0
 263 405 235 362 235 292 c 2
 235 235 l 2
 235 165 264 123 337 123 c 0
 402 123 439 150 439 215 c 1
 624 215 l 1
 624 54 494 -12 333 -12 c 0
 153 -12 36 79 36 264 c 0
 36 449 153 540 333 540 c 0
524 721 m 1
 365 592 l 1
 237 592 l 1
 330 725 l 1
 522 725 l 1
 524 721 l 1
EndSplineSet
Validated: 1
EndChar

StartChar: Ccircumflex
Encoding: 264 264 229
Width: 778
Flags: MW
HStem: -12 165<354 442.5 354 507> 535 165<354 440.5> 740 145<186 453 186 453 325 592 325 462>
VStem: 45 226<265 312 312 376 265 461.5> 529 204<239.5 279>
LayerCount: 2
Fore
SplineSet
402 700 m 0
 602 700 733 597 733 405 c 1
 522 405 l 1
 522 484 480 535 401 535 c 0
 307 535 271 470 271 376 c 2
 271 312 l 2
 271 218 309 153 399 153 c 0
 486 153 529 200 529 279 c 1
 733 279 l 1
 733 90 612 -12 402 -12 c 0
 167 -12 45 109 45 344 c 0
 45 579 167 700 402 700 c 0
453 885 m 1
 592 740 l 1
 462 740 l 1
 388 817 l 1
 314 740 l 1
 186 740 l 1
 325 885 l 1
 453 885 l 1
EndSplineSet
Validated: 1
EndChar

StartChar: ccircumflex
Encoding: 265 265 230
Width: 667
Flags: MW
HStem: -12 135<300.5 369.5 300.5 413.5> 405 135<298 364> 580 145<130 397 130 397 270 537 270 407> 657 68<333 333>
VStem: 36 199<200 235 235 292 200 356.5> 439 185<182.5 215>
LayerCount: 2
Fore
SplineSet
333 540 m 0xec
 494 540 624 476 624 315 c 1
 431 315 l 1
 431 377 395 405 333 405 c 0
 263 405 235 362 235 292 c 2
 235 235 l 2
 235 165 264 123 337 123 c 0
 402 123 439 150 439 215 c 1
 624 215 l 1
 624 54 494 -12 333 -12 c 0
 153 -12 36 79 36 264 c 0
 36 449 153 540 333 540 c 0xec
397 725 m 1
 537 580 l 1
 407 580 l 1xec
 333 657 l 1xdc
 258 580 l 1
 130 580 l 1
 270 725 l 1
 397 725 l 1
EndSplineSet
Validated: 1
EndChar

StartChar: Cdotaccent
Encoding: 266 266 231
Width: 778
Flags: MW
HStem: -12 165<354 442.5 354 507> 535 165<354 440.5> 746 139<313 465 313 465>
VStem: 45 226<265 312 312 376 265 461.5> 313 152<746 885 746 885> 529 204<239.5 279>
LayerCount: 2
Fore
SplineSet
402 700 m 0
 602 700 733 597 733 405 c 1
 522 405 l 1
 522 484 480 535 401 535 c 0
 307 535 271 470 271 376 c 2
 271 312 l 2
 271 218 309 153 399 153 c 0
 486 153 529 200 529 279 c 1
 733 279 l 1
 733 90 612 -12 402 -12 c 0
 167 -12 45 109 45 344 c 0
 45 579 167 700 402 700 c 0
465 885 m 1
 465 746 l 1
 313 746 l 1
 313 885 l 1
 465 885 l 1
EndSplineSet
Validated: 1
EndChar

StartChar: cdotaccent
Encoding: 267 267 232
Width: 667
Flags: MW
HStem: -12 135<300.5 369.5 300.5 413.5> 405 135<298 364> 586 139<257 410 257 410>
VStem: 36 199<200 235 235 292 200 356.5> 257 153<586 725 586 725> 439 185<182.5 215>
LayerCount: 2
Fore
SplineSet
333 540 m 0
 494 540 624 476 624 315 c 1
 431 315 l 1
 431 377 395 405 333 405 c 0
 263 405 235 362 235 292 c 2
 235 235 l 2
 235 165 264 123 337 123 c 0
 402 123 439 150 439 215 c 1
 624 215 l 1
 624 54 494 -12 333 -12 c 0
 153 -12 36 79 36 264 c 0
 36 449 153 540 333 540 c 0
410 725 m 1xfc
 410 586 l 1
 257 586 l 1
 257 725 l 1
 410 725 l 1xfc
EndSplineSet
Validated: 1
EndChar

StartChar: Ccaron
Encoding: 268 268 233
Width: 778
Flags: MW
HStem: -12 165<354 442.5 354 507> 535 165<354 440.5> 740 145<186 453 186 325>
VStem: 45 226<265 312 312 376 265 461.5> 529 204<239.5 279>
LayerCount: 2
Fore
SplineSet
402 700 m 0
 602 700 733 597 733 405 c 1
 522 405 l 1
 522 484 480 535 401 535 c 0
 307 535 271 470 271 376 c 2
 271 312 l 2
 271 218 309 153 399 153 c 0
 486 153 529 200 529 279 c 1
 733 279 l 1
 733 90 612 -12 402 -12 c 0
 167 -12 45 109 45 344 c 0
 45 579 167 700 402 700 c 0
592 885 m 1
 453 740 l 1
 325 740 l 1
 186 885 l 1
 314 885 l 1
 388 808 l 1
 462 885 l 1
 592 885 l 1
EndSplineSet
Validated: 1
EndChar

StartChar: ccaron
Encoding: 269 269 234
Width: 667
Flags: MW
HStem: -12 135<300.5 369.5 300.5 413.5> 405 135<298 364> 580 145<130 397 130 270>
VStem: 36 199<200 235 235 292 200 356.5> 439 185<182.5 215>
LayerCount: 2
Fore
SplineSet
333 540 m 0
 494 540 624 476 624 315 c 1
 431 315 l 1
 431 377 395 405 333 405 c 0
 263 405 235 362 235 292 c 2
 235 235 l 2
 235 165 264 123 337 123 c 0
 402 123 439 150 439 215 c 1
 624 215 l 1
 624 54 494 -12 333 -12 c 0
 153 -12 36 79 36 264 c 0
 36 449 153 540 333 540 c 0
537 725 m 1
 397 580 l 1
 270 580 l 1
 130 725 l 1
 258 725 l 1
 333 648 l 1
 407 725 l 1
 537 725 l 1
EndSplineSet
Validated: 1
EndChar

StartChar: Dcaron
Encoding: 270 270 235
Width: 778
Flags: MW
HStem: 0 165<295 368 368 372> 523 165<295 368 295 295> 740 145<149 417 149 289>
VStem: 74 221<165 523 165 688 165 688> 507 226<314 374 374 421>
LayerCount: 2
Fore
SplineSet
74 688 m 1
 372 688 l 2
 607 688 733 579 733 344 c 0
 733 109 607 0 372 0 c 2
 74 0 l 1
 74 688 l 1
368 523 m 2
 295 523 l 1
 295 165 l 1
 368 165 l 2
 465 165 507 220 507 314 c 2
 507 374 l 2
 507 468 465 523 368 523 c 2
556 885 m 1
 417 740 l 1
 289 740 l 1
 149 885 l 1
 277 885 l 1
 352 808 l 1
 426 885 l 1
 556 885 l 1
EndSplineSet
Validated: 1
EndChar

StartChar: dcaron
Encoding: 271 271 236
Width: 844
Flags: MW
HStem: -12 147<290 294.5> 0 21G<444 606 444 444> 393 147<189 352> 573 115<655 705 655 785> 573 152<407 705 407 655>
VStem: 36 199<206 237 237 290 206 357> 407 199<479 725 0 725> 655 130<580 688 580 688 580 688>
LayerCount: 2
Fore
SplineSet
606 725 m 1xaf
 606 0 l 1
 444 0 l 1x77
 427 75 l 1
 388 16 330 -12 259 -12 c 0
 119 -12 36 79 36 265 c 0
 36 449 119 540 259 540 c 0
 318 540 369 520 407 479 c 1
 407 725 l 1
 606 725 l 1xaf
321 393 m 0
 259 393 235 352 235 290 c 2
 235 237 l 2
 235 175 259 135 321 135 c 0xb7
 383 135 409 185 409 247 c 2
 409 280 l 2
 409 342 383 393 321 393 c 0
785 688 m 1
 785 580 l 1
 731 481 l 1
 664 481 l 1
 705 573 l 1
 655 573 l 1
 655 688 l 1
 785 688 l 1
EndSplineSet
Validated: 1
EndChar

StartChar: Dcroat
Encoding: 272 272 237
Width: 778
Flags: MW
HStem: 0 165<295 368 368 372> 304 98<1 74 1 74 295 392> 523 165<295 368 295 295>
VStem: 74 221<165 304 165 304 165 304 402 523 165 688> 507 226<314 374 374 421>
LayerCount: 2
Fore
SplineSet
1 304 m 1
 1 402 l 1
 74 402 l 1
 74 688 l 1
 372 688 l 2
 607 688 733 579 733 344 c 0
 733 109 607 0 372 0 c 2
 74 0 l 1
 74 304 l 1
 1 304 l 1
392 304 m 1
 295 304 l 1
 295 165 l 1
 368 165 l 2
 465 165 507 220 507 314 c 2
 507 374 l 2
 507 468 465 523 368 523 c 2
 295 523 l 1
 295 402 l 1
 392 402 l 1
 392 304 l 1
EndSplineSet
Validated: 1
EndChar

StartChar: dcroat
Encoding: 273 273 238
Width: 667
Flags: MW
HStem: -12 147<290 294.5> 0 21G<444 606 444 444> 393 147<189 352> 575 93<336 407 336 407 606 667> 575 150<336 606 336 606 407 667 407 606>
VStem: 36 199<206 237 237 290 206 357> 407 199<479 575 0 575 668 725 0 725>
LayerCount: 2
Fore
SplineSet
606 725 m 1x6e
 606 668 l 1
 667 668 l 1xb6
 667 575 l 1
 606 575 l 1
 606 0 l 1
 444 0 l 1x6e
 427 75 l 1
 388 16 330 -12 259 -12 c 0
 119 -12 36 79 36 265 c 0
 36 449 119 540 259 540 c 0
 318 540 369 520 407 479 c 1
 407 575 l 1
 336 575 l 1xae
 336 668 l 1
 407 668 l 1x76
 407 725 l 1
 606 725 l 1x6e
321 393 m 0
 259 393 235 352 235 290 c 2
 235 237 l 2
 235 175 259 135 321 135 c 0
 383 135 409 185 409 247 c 2
 409 280 l 2
 409 342 383 393 321 393 c 0
EndSplineSet
Validated: 1
EndChar

StartChar: Emacron
Encoding: 274 274 239
Width: 722
Flags: MW
HStem: 0 165<295 676 295 676> 270 158<295 615 295 615> 523 165<295 669 295 295> 765 100<228 544 228 544>
VStem: 74 221<165 270 428 523> 228 316<765 865 765 865>
LayerCount: 2
Fore
SplineSet
544 865 m 1xf4
 544 765 l 1
 228 765 l 1
 228 865 l 1
 544 865 l 1xf4
676 0 m 1
 74 0 l 1
 74 688 l 1
 669 688 l 1
 669 523 l 1
 295 523 l 1
 295 428 l 1
 615 428 l 1
 615 270 l 1
 295 270 l 1
 295 165 l 1xf8
 676 165 l 1
 676 0 l 1
EndSplineSet
Validated: 1
EndChar

StartChar: emacron
Encoding: 275 275 240
Width: 667
Flags: MW
HStem: -12 127<303 376.5 303 440> 230 94<236 430 236 631 235 430> 413 127<307.5 369> 605 100<175 492 175 492>
VStem: 36 199<193.5 230 193.5 356.5> 175 317<605 705 605 705> 430 201<129 351.5> 438 193<170.5 192>
LayerCount: 2
Fore
SplineSet
333 540 m 0xfa
 523 540 631 454 631 264 c 2
 631 230 l 1xfa
 235 230 l 1
 235 157 265 115 341 115 c 0
 412 115 438 149 438 192 c 1
 631 192 l 1xf9
 631 66 535 -12 345 -12 c 0
 155 -12 36 74 36 264 c 0
 36 449 153 540 333 540 c 0xfa
341 413 m 0
 274 413 243 379 236 324 c 1
 430 324 l 1
 430 379 397 413 341 413 c 0
492 705 m 1xf4
 492 605 l 1
 175 605 l 1
 175 705 l 1
 492 705 l 1xf4
EndSplineSet
Validated: 1
EndChar

StartChar: Ebreve
Encoding: 276 276 241
Width: 722
Flags: MW
HStem: 0 165<295 676 295 676> 270 158<295 615 295 615> 523 165<295 669 295 295> 741 94<360.5 410 360.5 442>
VStem: 74 221<165 270 428 523>
LayerCount: 2
Fore
SplineSet
475 885 m 1
 570 885 l 1
 570 818 499 741 385 741 c 0
 270 741 201 818 201 885 c 1
 297 885 l 1
 301 864 336 835 385 835 c 0
 435 835 471 864 475 885 c 1
676 0 m 1
 74 0 l 1
 74 688 l 1
 669 688 l 1
 669 523 l 1
 295 523 l 1
 295 428 l 1
 615 428 l 1
 615 270 l 1
 295 270 l 1
 295 165 l 1
 676 165 l 1
 676 0 l 1
EndSplineSet
Validated: 1
EndChar

StartChar: ebreve
Encoding: 277 277 242
Width: 667
Flags: MW
HStem: -12 127<303 376.5 303 440> 230 94<236 430 236 631 235 430> 413 127<307.5 369> 581 94<321 358 321 390> 581 144<149 390>
VStem: 36 199<193.5 230 193.5 356.5> 430 201<129 351.5> 438 193<170.5 192>
LayerCount: 2
Fore
SplineSet
333 540 m 0xee
 523 540 631 454 631 264 c 2
 631 230 l 1xee
 235 230 l 1
 235 157 265 115 341 115 c 0
 412 115 438 149 438 192 c 1
 631 192 l 1xed
 631 66 535 -12 345 -12 c 0
 155 -12 36 74 36 264 c 0
 36 449 153 540 333 540 c 0xee
341 413 m 0
 274 413 243 379 236 324 c 1
 430 324 l 1
 430 379 397 413 341 413 c 0
423 725 m 1
 518 725 l 1
 518 658 447 581 333 581 c 0
 218 581 149 658 149 725 c 1
 245 725 l 1xee
 247 715 257 702 272 692 c 0
 288 682 309 675 333 675 c 0xf6
 383 675 419 704 423 725 c 1
EndSplineSet
Validated: 1
EndChar

StartChar: Edotaccent
Encoding: 278 278 243
Width: 722
Flags: MW
HStem: 0 165<295 676 295 676> 270 158<295 615 295 615> 523 165<295 669 295 295> 746 139<310 462 310 462>
VStem: 74 221<165 270 428 523> 310 152<746 885 746 885>
LayerCount: 2
Fore
SplineSet
462 885 m 1
 462 746 l 1
 310 746 l 1
 310 885 l 1
 462 885 l 1
676 0 m 1
 74 0 l 1
 74 688 l 1
 669 688 l 1
 669 523 l 1
 295 523 l 1
 295 428 l 1
 615 428 l 1
 615 270 l 1
 295 270 l 1
 295 165 l 1xf8
 676 165 l 1
 676 0 l 1
EndSplineSet
Validated: 1
EndChar

StartChar: edotaccent
Encoding: 279 279 244
Width: 667
Flags: MW
HStem: -12 127<303 376.5 303 440> 230 94<236 430 236 631 235 430> 413 127<307.5 369> 586 139<257 410 257 410>
VStem: 36 199<193.5 230 193.5 356.5> 257 153<586 725 586 725> 430 201<129 351.5> 438 193<170.5 192>
LayerCount: 2
Fore
SplineSet
333 540 m 0xfa
 523 540 631 454 631 264 c 2
 631 230 l 1xfa
 235 230 l 1
 235 157 265 115 341 115 c 0
 412 115 438 149 438 192 c 1
 631 192 l 1xf9
 631 66 535 -12 345 -12 c 0
 155 -12 36 74 36 264 c 0
 36 449 153 540 333 540 c 0xfa
341 413 m 0
 274 413 243 379 236 324 c 1
 430 324 l 1
 430 379 397 413 341 413 c 0
410 725 m 1xfe
 410 586 l 1
 257 586 l 1
 257 725 l 1
 410 725 l 1xfe
EndSplineSet
Validated: 1
EndChar

StartChar: Eogonek
Encoding: 280 280 245
Width: 722
Flags: MW
HStem: -211 91<585 713> 0 165<295 531 627 676 627 627> 270 158<295 615 295 615> 523 165<295 669 295 295>
VStem: 74 221<165 270 428 523> 491 185<-138 165>
LayerCount: 2
Fore
SplineSet
669 688 m 1
 669 523 l 1
 295 523 l 1
 295 428 l 1
 615 428 l 1
 615 270 l 1
 295 270 l 1
 295 165 l 1
 676 165 l 1
 676 0 l 1
 627 0 l 1
 620 -16 611 -43 611 -69 c 0
 611 -95 626 -120 671 -120 c 2
 713 -120 l 1
 713 -196 l 1
 682 -206 650 -211 617 -211 c 0
 553 -211 491 -179 491 -97 c 0
 491 -55 511 -25 531 0 c 1
 74 0 l 1
 74 688 l 1
 669 688 l 1
EndSplineSet
Validated: 1
EndChar

StartChar: eogonek
Encoding: 281 281 246
Width: 667
Flags: MW
HStem: -211 91<437.5 565> -12 127<303 345 345 375> 230 94<236 430 236 631 235 430> 413 127<307.5 369>
VStem: 36 199<193.5 230 193.5 356.5> 343 222<-138 -120 -196 -79> 430 201<146.5 351.5>
LayerCount: 2
Fore
SplineSet
333 540 m 0xfa
 523 540 631 454 631 264 c 2
 631 230 l 1
 235 230 l 1
 235 157 265 115 341 115 c 0
 412 115 438 149 438 192 c 1
 631 192 l 1xfa
 631 101 581 35 482 5 c 1
 474 -9 463 -41 463 -69 c 0
 463 -95 479 -120 523 -120 c 2
 565 -120 l 1
 565 -196 l 1
 535 -206 502 -211 470 -211 c 0
 405 -211 343 -179 343 -97 c 0
 343 -61 358 -34 375 -12 c 1xfc
 345 -12 l 2
 155 -12 36 74 36 264 c 0
 36 449 153 540 333 540 c 0xfa
341 413 m 0
 274 413 243 379 236 324 c 1
 430 324 l 1
 430 379 397 413 341 413 c 0
EndSplineSet
Validated: 1
EndChar

StartChar: Ecaron
Encoding: 282 282 247
Width: 722
Flags: MW
HStem: 0 165<295 676 295 676> 270 158<295 615 295 615> 523 165<295 669 295 295> 740 145<183 450 183 322>
VStem: 74 221<165 270 428 523>
LayerCount: 2
Fore
SplineSet
589 885 m 1
 450 740 l 1
 322 740 l 1
 183 885 l 1
 311 885 l 1
 385 808 l 1
 459 885 l 1
 589 885 l 1
676 0 m 1
 74 0 l 1
 74 688 l 1
 669 688 l 1
 669 523 l 1
 295 523 l 1
 295 428 l 1
 615 428 l 1
 615 270 l 1
 295 270 l 1
 295 165 l 1
 676 165 l 1
 676 0 l 1
EndSplineSet
Validated: 1
EndChar

StartChar: ecaron
Encoding: 283 283 248
Width: 667
Flags: MW
HStem: -12 127<303 376.5 303 440> 230 94<236 430 236 631 235 430> 413 127<307.5 369> 580 145<130 397 130 270>
VStem: 36 199<193.5 230 193.5 356.5> 430 201<129 351.5> 438 193<170.5 192>
LayerCount: 2
Fore
SplineSet
333 540 m 0xfc
 523 540 631 454 631 264 c 2
 631 230 l 1xfc
 235 230 l 1
 235 157 265 115 341 115 c 0
 412 115 438 149 438 192 c 1
 631 192 l 1xfa
 631 66 535 -12 345 -12 c 0
 155 -12 36 74 36 264 c 0
 36 449 153 540 333 540 c 0xfc
341 413 m 0
 274 413 243 379 236 324 c 1
 430 324 l 1
 430 379 397 413 341 413 c 0
537 725 m 1
 397 580 l 1
 270 580 l 1
 130 725 l 1
 258 725 l 1
 333 648 l 1
 407 725 l 1
 537 725 l 1
EndSplineSet
Validated: 1
EndChar

StartChar: Gcircumflex
Encoding: 284 284 249
Width: 833
Flags: MW
HStem: -12 165<376.5 440.5> 0 21G<656 770 656 656> 244 140<403 559 403 770> 535 165<376.5 464> 740 145<213 480 213 480 353 620 353 490>
VStem: 45 226<262 312 312 376 262 461.5> 559 211<216.5 244 439 468.5>
LayerCount: 2
Fore
SplineSet
420 700 m 0xbe
 613 700 770 612 770 439 c 1
 559 439 l 1
 559 498 499 535 429 535 c 0
 324 535 271 476 271 376 c 2
 271 312 l 2
 271 212 324 153 429 153 c 0xbe
 499 153 559 189 559 244 c 1
 403 244 l 1
 403 384 l 1
 770 384 l 1
 770 0 l 1
 656 0 l 1x7e
 634 68 l 1
 572 15 493 -12 388 -12 c 0
 159 -12 45 109 45 344 c 0
 45 579 182 700 420 700 c 0xbe
480 885 m 1
 620 740 l 1
 490 740 l 1
 416 817 l 1
 341 740 l 1
 213 740 l 1
 353 885 l 1
 480 885 l 1
EndSplineSet
Validated: 1
EndChar

StartChar: gcircumflex
Encoding: 285 285 250
Width: 667
Flags: HMW
HStem: -210 111<101.5 402 246 402 402 416.5 246 432> 0 140<231.5 476 296 402> 200 104<273 346.5 299.5 346.5 299.5 372> 436 104<302 345 251 346.5> 514 20G<412 473> 580 47<359 654> 580 145<242 250 122 370 359 370 242 489 359 359> 657 68<305 305>
VStem: 5 189<-63.5 -53.5> 53 195<347.5 392.5 347.5 434.5> 400 194<347.5 392 311 392.5> 455 199<-64.5 -33.5>
LayerCount: 2
Fore
SplineSet
521 627 m 5xec50
 654 627 l 1xf490
 654 541 608 504 532 484 c 1
 571 455 594 414 594 370 c 0xf260
 594 252 490 200 372 200 c 2
 296 200 l 2
 250 200 233 188 233 171 c 0
 233 154 245 140 296 140 c 2
 476 140 l 2
 598 140 654 69 654 -29 c 0
 654 -147 550 -210 432 -210 c 2
 138 -210 l 2
 65 -210 5 -154 5 -81 c 0
 5 -26 45 17 89 37 c 1
 57 59 37 92 37 130 c 0xf290
 37 183 82 229 138 243 c 1
 90 274 53 318 53 369 c 0
 53 500 177 540 325 540 c 0xf250
 365 540 390 538 412 534 c 1
 512.567567568 534 521.401205259 597.194485026 521.401205259 619.397952737 c 0
 521.401205259 624.129839299 521 627 521 627 c 5xec50
402 0 m 2
 246 0 l 2
 217 0 194 -17 194 -48 c 0
 194 -79 217 -99 246 -99 c 2
 402 -99 l 2
 431 -99 455 -80 455 -49 c 0
 455 -18 431 0 402 0 c 2
323 436 m 0xf260
 281 436 248 415 248 370 c 0
 248 325 276 304 323 304 c 0
 370 304 400 325 400 370 c 0
 400 415 370 436 323 436 c 0xf260
370 725 m 1
 489 580 l 1
 359 580 l 1xf250
 305 657 l 1xf150
 250 580 l 1
 122 580 l 1
 242 725 l 1
 370 725 l 1
EndSplineSet
Validated: 1
EndChar

StartChar: Gbreve
Encoding: 286 286 251
Width: 833
Flags: MW
HStem: -12 165<376.5 440.5> 0 21G<656 770 656 656> 244 140<403 559 403 770> 535 165<376.5 464> 741 94<391.5 441 391.5 473>
VStem: 45 226<262 312 312 376 262 461.5> 559 211<216.5 244 439 468.5>
LayerCount: 2
Fore
SplineSet
420 700 m 0xbe
 613 700 770 612 770 439 c 1
 559 439 l 1
 559 498 499 535 429 535 c 0
 324 535 271 476 271 376 c 2
 271 312 l 2
 271 212 324 153 429 153 c 0xbe
 499 153 559 189 559 244 c 1
 403 244 l 1
 403 384 l 1
 770 384 l 1
 770 0 l 1
 656 0 l 1x7e
 634 68 l 1
 572 15 493 -12 388 -12 c 0
 159 -12 45 109 45 344 c 0
 45 579 182 700 420 700 c 0xbe
506 885 m 1
 601 885 l 1
 601 818 530 741 416 741 c 0
 301 741 232 818 232 885 c 1
 328 885 l 1
 332 864 367 835 416 835 c 0
 466 835 502 864 506 885 c 1
EndSplineSet
Validated: 1
EndChar

StartChar: gbreve
Encoding: 287 287 252
Width: 667
Flags: MW
HStem: -210 111<101.5 402 246 402 402 416.5 246 432> 0 140<231.5 476 296 402> 200 104<273 346.5 299.5 346.5 299.5 372> 436 104<302 345 251 346.5> 514 20G<412 460.5> 581 94<318 354.5 318 386.5> 581 144<146 386.5>
VStem: 5 189<-63.5 -53.5> 53 195<347.5 392.5 347.5 434.5> 400 194<347.5 392 311 392.5> 455 199<-64.5 -33.5>
LayerCount: 2
Fore
SplineSet
521 627 m 1xeaa0
 654 627 l 1xeb20
 654 541 608 504 532 484 c 1
 571 455 594 414 594 370 c 0xeac0
 594 252 490 200 372 200 c 2
 296 200 l 2
 250 200 233 188 233 171 c 0
 233 154 245 140 296 140 c 2
 476 140 l 2
 598 140 654 69 654 -29 c 0
 654 -147 550 -210 432 -210 c 2
 138 -210 l 2
 65 -210 5 -154 5 -81 c 0
 5 -26 45 17 89 37 c 1
 57 59 37 92 37 130 c 0xf320
 37 183 82 229 138 243 c 1
 90 274 53 318 53 369 c 0
 53 500 177 540 325 540 c 0xf2a0
 365 540 390 538 412 534 c 1
 509 534 521 627 521 627 c 1xeaa0
402 0 m 2
 246 0 l 2
 217 0 194 -17 194 -48 c 0
 194 -79 217 -99 246 -99 c 2
 402 -99 l 2
 431 -99 455 -80 455 -49 c 0
 455 -18 431 0 402 0 c 2
323 436 m 0xf2c0
 281 436 248 415 248 370 c 0
 248 325 276 304 323 304 c 0
 370 304 400 325 400 370 c 0
 400 415 370 436 323 436 c 0xf2c0
419 725 m 1
 515 725 l 1
 515 658 443 581 330 581 c 0
 214 581 146 658 146 725 c 1
 242 725 l 1xf2a0
 244 715 254 702 269 692 c 0
 285 682 306 675 330 675 c 0xf4c0
 379 675 416 704 419 725 c 1
EndSplineSet
Validated: 1
EndChar

StartChar: Gdotaccent
Encoding: 288 288 253
Width: 833
Flags: MW
HStem: -12 165<376.5 440.5> 0 21G<656 770 656 656> 244 140<403 559 403 770> 535 165<376.5 464> 746 139<340 493 340 493>
VStem: 45 226<262 312 312 376 262 461.5> 340 153<746 885 746 885> 559 211<216.5 244 439 468.5>
LayerCount: 2
Fore
SplineSet
420 700 m 0xbf
 613 700 770 612 770 439 c 1
 559 439 l 1
 559 498 499 535 429 535 c 0
 324 535 271 476 271 376 c 2
 271 312 l 2
 271 212 324 153 429 153 c 0xbf
 499 153 559 189 559 244 c 1
 403 244 l 1
 403 384 l 1
 770 384 l 1
 770 0 l 1
 656 0 l 1x7f
 634 68 l 1
 572 15 493 -12 388 -12 c 0
 159 -12 45 109 45 344 c 0
 45 579 182 700 420 700 c 0xbf
493 885 m 1
 493 746 l 1
 340 746 l 1
 340 885 l 1
 493 885 l 1
EndSplineSet
Validated: 1
EndChar

StartChar: gdotaccent
Encoding: 289 289 254
Width: 667
Flags: MW
HStem: -210 111<101.5 402 246 402 402 416.5 246 432> 0 140<231.5 476 296 402> 200 104<273 346.5 299.5 346.5 299.5 372> 436 104<302 345 251 346.5> 514 20G 586 41 586 139<227 379 227 379>
VStem: 5 189<-63.5 -53.5> 53 195<347.5 392.5 347.5 434.5> 227 152<586 725 586 725> 400 194<347.5 392 311 392.5> 455 199<-64.5 -33.5>
LayerCount: 2
Fore
SplineSet
490 627 m 1xec50
 654 627 l 1xf550
 654 541 608 504 532 484 c 1
 571 455 594 414 594 370 c 0xf260
 594 252 490 200 372 200 c 2
 296 200 l 2
 250 200 233 188 233 171 c 0
 233 154 245 140 296 140 c 2
 476 140 l 2
 598 140 654 69 654 -29 c 0
 654 -147 550 -210 432 -210 c 2
 138 -210 l 2
 65 -210 5 -154 5 -81 c 0
 5 -26 45 17 89 37 c 1
 57 59 37 92 37 130 c 0xf350
 37 183 82 229 138 243 c 1
 90 274 53 318 53 369 c 0
 53 500 177 540 325 540 c 0xf290
 365 540 390 538 412 534 c 1
 491 583 490 627 490 627 c 1xec50
402 0 m 2
 246 0 l 2
 217 0 194 -17 194 -48 c 0
 194 -79 217 -99 246 -99 c 2
 402 -99 l 2
 431 -99 455 -80 455 -49 c 0
 455 -18 431 0 402 0 c 2
323 436 m 0xf2a0
 281 436 248 415 248 370 c 0
 248 325 276 304 323 304 c 0
 370 304 400 325 400 370 c 0
 400 415 370 436 323 436 c 0xf2a0
379 725 m 1xf250
 379 586 l 1
 227 586 l 1
 227 725 l 1
 379 725 l 1xf250
EndSplineSet
Validated: 33
EndChar

StartChar: Gcommaaccent
Encoding: 290 290 255
Width: 833
Flags: MW
HStem: -175 116<352 401 352 481> -12 165<376.5 440.5> 0 21G<656 770 656 656> 244 140<403 559 403 770> 535 165<376.5 464>
VStem: 45 226<262 312 312 376 262 461.5> 352 129<-168 -59 -168 -59 -168 -59> 559 211<216.5 244 439 468.5>
LayerCount: 2
Fore
SplineSet
420 700 m 0xdf
 613 700 770 612 770 439 c 1
 559 439 l 1
 559 498 499 535 429 535 c 0
 324 535 271 476 271 376 c 2
 271 312 l 2
 271 212 324 153 429 153 c 0xdf
 499 153 559 189 559 244 c 1
 403 244 l 1
 403 384 l 1
 770 384 l 1
 770 0 l 1
 656 0 l 1xbf
 634 68 l 1
 572 15 493 -12 388 -12 c 0
 159 -12 45 109 45 344 c 0
 45 579 182 700 420 700 c 0xdf
481 -59 m 1
 481 -168 l 1
 427 -267 l 1
 360 -267 l 1
 401 -175 l 1
 352 -175 l 1
 352 -59 l 1
 481 -59 l 1
EndSplineSet
Validated: 1
EndChar

StartChar: gcommaaccent
Encoding: 291 291 256
Width: 667
Flags: MW
HStem: -210 111<101.5 402 246 402 402 416.5 246 432> 0 140<231.5 476 296 402> 200 104<273 346.5 299.5 346.5 299.5 372> 436 104<302 345 251 346.5> 514 20G 572 55 572 116<258 388 338 388 338 388>
VStem: 5 189<-63.5 -53.5> 53 195<347.5 392.5 347.5 434.5> 258 130<572 681 681 681> 400 194<347.5 392 311 392.5> 455 199<-64.5 -33.5>
LayerCount: 2
Fore
SplineSet
490 627 m 1xec50
 654 627 l 1xf450
 654 541 608 504 532 484 c 1
 571 455 594 414 594 370 c 0xf260
 594 252 490 200 372 200 c 2
 296 200 l 2
 250 200 233 188 233 171 c 0
 233 154 245 140 296 140 c 2
 476 140 l 2
 598 140 654 69 654 -29 c 0
 654 -147 550 -210 432 -210 c 2
 138 -210 l 2
 65 -210 5 -154 5 -81 c 0
 5 -26 45 17 89 37 c 1
 57 59 37 92 37 130 c 0xf350
 37 183 82 229 138 243 c 1
 90 274 53 318 53 369 c 0
 53 500 177 540 325 540 c 0xf2d0
 365 540 390 538 412 534 c 1
 491 583 490 627 490 627 c 1xec50
258 572 m 1xf350
 258 681 l 1
 312 780 l 1
 379 780 l 1
 338 688 l 1
 388 688 l 1
 388 572 l 1
 258 572 l 1xf350
402 0 m 2
 246 0 l 2
 217 0 194 -17 194 -48 c 0
 194 -79 217 -99 246 -99 c 2
 402 -99 l 2
 431 -99 455 -80 455 -49 c 0
 455 -18 431 0 402 0 c 2
323 436 m 0xf2e0
 281 436 248 415 248 370 c 0
 248 325 276 304 323 304 c 0
 370 304 400 325 400 370 c 0
 400 415 370 436 323 436 c 0xf2e0
EndSplineSet
Validated: 33
EndChar

StartChar: Hcircumflex
Encoding: 292 292 257
Width: 833
Flags: MW
HStem: 0 21G<74 295 74 74 538 759 538 538> 261 176<295 538 295 538> 668 20G<74 295 295 295 538 759 759 759> 740 145<213 480 213 480 353 620 353 490>
VStem: 74 221<0 261 0 437 437 688> 538 221<0 261 261 261 437 688 0 688>
LayerCount: 2
Fore
SplineSet
759 688 m 1
 759 0 l 1
 538 0 l 1
 538 261 l 1
 295 261 l 1
 295 0 l 1
 74 0 l 1
 74 688 l 1
 295 688 l 1
 295 437 l 1
 538 437 l 1
 538 688 l 1
 759 688 l 1
480 885 m 1
 620 740 l 1
 490 740 l 1
 416 817 l 1
 341 740 l 1
 213 740 l 1
 353 885 l 1
 480 885 l 1
EndSplineSet
Validated: 1
EndChar

StartChar: hcircumflex
Encoding: 293 293 258
Width: 667
Flags: MW
HStem: 0 21G<60 259 60 60 409 608 409 409> 393 147<317 486.5> 705 20G<60 259 259 259> 740 145<-43 224 -43 224 96 363 96 233>
VStem: 60 199<0 310 473 725> 409 199<0 318 318 340>
LayerCount: 2
Fore
SplineSet
259 725 m 1
 259 473 l 1
 301 515 361 540 424 540 c 0
 549 540 608 467 608 342 c 2
 608 0 l 1
 409 0 l 1
 409 318 l 2
 409 362 386 393 342 393 c 0
 292 393 259 355 259 310 c 2
 259 0 l 1
 60 0 l 1
 60 725 l 1
 259 725 l 1
224 885 m 1xfc
 363 740 l 1
 233 740 l 1
 159 817 l 1
 84 740 l 1
 -43 740 l 1
 96 885 l 1
 224 885 l 1xfc
EndSplineSet
Validated: 1
EndChar

StartChar: Hbar
Encoding: 294 294 259
Width: 833
Flags: MW
HStem: 0 21G<74 295 74 74 538 759 538 538> 251 176<295 538 295 538> 502 98<1 74 1 74 295 538 759 831> 502 186<1 295 1 295 74 295 74 538>
VStem: 74 221<0 251 427 502 600 688> 538 221<0 251 251 251 427 502 0 502 600 688 0 688>
LayerCount: 2
Fore
SplineSet
831 502 m 1xdc
 759 502 l 1
 759 0 l 1
 538 0 l 1
 538 251 l 1
 295 251 l 1
 295 0 l 1
 74 0 l 1
 74 502 l 1
 1 502 l 1xdc
 1 600 l 1
 74 600 l 1xec
 74 688 l 1
 295 688 l 1xdc
 295 600 l 1
 538 600 l 1xec
 538 688 l 1
 759 688 l 1xdc
 759 600 l 1
 831 600 l 1xec
 831 502 l 1xdc
295 427 m 1
 538 427 l 1
 538 502 l 1
 295 502 l 1
 295 427 l 1
EndSplineSet
Validated: 1
EndChar

StartChar: hbar
Encoding: 295 295 260
Width: 667
Flags: MW
HStem: 0 21G<60 259 60 60 409 608 409 409> 393 147<317 486.5> 575 93<-2 60 -2 60 259 329> 575 150<-2 259 -2 259 60 329 60 259>
VStem: 60 199<0 310 473 575 668 725> 409 199<0 318 318 340>
LayerCount: 2
Fore
SplineSet
259 725 m 1xdc
 259 668 l 1
 329 668 l 1xec
 329 575 l 1
 259 575 l 1
 259 473 l 1
 301 515 361 540 424 540 c 0
 549 540 608 467 608 342 c 2
 608 0 l 1
 409 0 l 1
 409 318 l 2
 409 362 386 393 342 393 c 0
 292 393 259 355 259 310 c 2
 259 0 l 1
 60 0 l 1
 60 575 l 1
 -2 575 l 1xdc
 -2 668 l 1
 60 668 l 1xec
 60 725 l 1
 259 725 l 1xdc
EndSplineSet
Validated: 1
EndChar

StartChar: Itilde
Encoding: 296 296 261
Width: 389
Flags: MW
HStem: 0 21G<84 305 84 84> 668 20G<84 305 305 305> 742 143<-27 145 -27 145 71 319>
VStem: 84 221<0 688 0 688>
LayerCount: 2
Fore
SplineSet
305 688 m 1
 305 0 l 1
 84 0 l 1
 84 688 l 1
 305 688 l 1
336 885 m 1
 417 885 l 1
 417 813 361 742 277 742 c 0
 213 742 158 782 104 782 c 0
 79 782 61 765 54 742 c 1
 -27 742 l 1
 -27 814 29 885 113 885 c 0
 177 885 232 845 286 845 c 0
 311 845 329 862 336 885 c 1
EndSplineSet
Validated: 1
EndChar

StartChar: itilde
Encoding: 297 297 262
Width: 333
Flags: MW
HStem: 0 21G<67 266 67 67> 508 20G<67 266 266 266> 582 103<230.5 270 230.5 291> 582 143<-56 116 -56 116 42 291> 622 103<63 102.5>
VStem: 67 199<0 528 0 528>
LayerCount: 2
Fore
SplineSet
266 528 m 1xd4
 266 0 l 1
 67 0 l 1
 67 528 l 1
 266 528 l 1xd4
308 725 m 1
 389 725 l 1xd4
 389 653 333 582 249 582 c 0xe4
 185 582 129 622 76 622 c 0xcc
 50 622 33 605 25 582 c 1
 -56 582 l 1
 -56 654 0 725 84 725 c 0xd4
 148 725 204 685 257 685 c 0xe4
 283 685 300 702 308 725 c 1
EndSplineSet
Validated: 1
EndChar

StartChar: Imacron
Encoding: 298 298 263
Width: 389
Flags: MW
HStem: 0 21G<84 305 84 84> 668 20G<84 305 305 305> 765 100<37 353 37 353>
VStem: 84 221<0 688 0 688>
LayerCount: 2
Fore
SplineSet
305 688 m 1
 305 0 l 1
 84 0 l 1
 84 688 l 1
 305 688 l 1
353 865 m 1
 353 765 l 1
 37 765 l 1
 37 865 l 1
 353 865 l 1
EndSplineSet
Validated: 1
EndChar

StartChar: imacron
Encoding: 299 299 264
Width: 333
Flags: MW
HStem: 0 21G<67 266 67 67> 508 20G<67 266 266 266> 605 100<8 325 8 325>
VStem: 67 199<0 528 0 528>
LayerCount: 2
Fore
SplineSet
266 528 m 1
 266 0 l 1
 67 0 l 1
 67 528 l 1
 266 528 l 1
325 705 m 1
 325 605 l 1
 8 605 l 1
 8 705 l 1
 325 705 l 1
EndSplineSet
Validated: 1
EndChar

StartChar: Ibreve
Encoding: 300 300 265
Width: 389
Flags: MW
HStem: 0 21G<84 305 84 84> 668 20G<84 305 305 305> 741 94<170 219 170 251>
VStem: 84 221<0 688 0 688>
LayerCount: 2
Fore
SplineSet
305 688 m 1
 305 0 l 1
 84 0 l 1
 84 688 l 1
 305 688 l 1
284 885 m 1
 379 885 l 1
 379 818 308 741 194 741 c 0
 79 741 10 818 10 885 c 1
 106 885 l 1
 110 864 146 835 194 835 c 0
 244 835 280 864 284 885 c 1
EndSplineSet
Validated: 1
EndChar

StartChar: ibreve
Encoding: 301 301 266
Width: 333
Flags: MW
HStem: 0 21G<67 266 67 67> 508 20G<67 266 266 266> 581 94<154 191 154 223> 581 144<-18 223>
VStem: 67 199<0 528 0 528>
LayerCount: 2
Fore
SplineSet
266 528 m 1xd8
 266 0 l 1
 67 0 l 1
 67 528 l 1
 266 528 l 1xd8
256 725 m 1
 351 725 l 1
 351 658 280 581 166 581 c 0
 51 581 -18 658 -18 725 c 1
 78 725 l 1xd8
 80 715 90 702 105 692 c 0
 121 682 142 675 166 675 c 0xe8
 216 675 252 704 256 725 c 1
EndSplineSet
Validated: 1
EndChar

StartChar: Iogonek
Encoding: 302 302 267
Width: 389
Flags: MW
HStem: -211 91<257 385> 0 21G<84 203 84 84 299 305 299 299> 668 20G<84 305 305 305>
VStem: 84 221<0 688 0 688> 163 222<-138 -120 -196 -76>
LayerCount: 2
Fore
SplineSet
305 688 m 1xf0
 305 0 l 1
 299 0 l 1
 292 -16 283 -43 283 -69 c 0
 283 -95 298 -120 343 -120 c 2xf0
 385 -120 l 1
 385 -196 l 1xe8
 354 -206 322 -211 289 -211 c 0
 225 -211 163 -179 163 -97 c 0
 163 -55 183 -25 203 0 c 1
 84 0 l 1
 84 688 l 1
 305 688 l 1xf0
EndSplineSet
Validated: 1
EndChar

StartChar: iogonek
Encoding: 303 303 268
Width: 333
Flags: MW
HStem: -211 91<200.5 329> 0 21G<67 146 67 67 243 266 243 243> 508 20G<67 266 266 266> 586 139<90 243 90 243>
VStem: 67 199<0 528 0 528> 90 153<586 725> 106 223<-138 -120 -196 -76>
LayerCount: 2
Fore
SplineSet
266 528 m 1xf8
 266 0 l 1
 243 0 l 1
 235 -16 227 -43 227 -69 c 0
 227 -95 242 -120 287 -120 c 2xf8
 329 -120 l 1
 329 -196 l 1xf2
 298 -206 266 -211 233 -211 c 0
 168 -211 106 -179 106 -97 c 0
 106 -55 126 -25 146 0 c 1
 67 0 l 1
 67 528 l 1
 266 528 l 1xf8
243 725 m 1xf4
 243 586 l 1
 90 586 l 1
 90 725 l 1
 243 725 l 1xf4
EndSplineSet
Validated: 1
EndChar

StartChar: Idotaccent
Encoding: 304 304 269
Width: 389
Flags: MW
HStem: 0 21G<84 305 84 84> 668 20G<84 305 305 305> 746 139<119 271 119 271>
VStem: 84 221<0 688 0 688> 119 152<746 885 746 885>
LayerCount: 2
Fore
SplineSet
305 688 m 1xf0
 305 0 l 1
 84 0 l 1
 84 688 l 1
 305 688 l 1xf0
271 885 m 1xe8
 271 746 l 1
 119 746 l 1
 119 885 l 1
 271 885 l 1xe8
EndSplineSet
Validated: 1
EndChar

StartChar: dotlessi
Encoding: 305 305 270
Width: 333
Flags: MW
HStem: 0 21G<67 266 67 67> 508 20G<67 266 266 266>
VStem: 67 199<0 528 0 528>
LayerCount: 2
Fore
SplineSet
266 528 m 1
 266 0 l 1
 67 0 l 1
 67 528 l 1
 266 528 l 1
EndSplineSet
Validated: 1
EndChar

StartChar: IJ
Encoding: 306 306 271
Width: 1028
Flags: MW
HStem: -12 165<638.5 685.5 638.5 758> 0 21G<84 305 84 84> 0 248<84 591> 668 20G<84 305 305 305 733 954 954 954>
VStem: 84 221<0 688 0 688> 384 207<239 240 240 248 208 248> 733 221<240 688>
LayerCount: 2
Fore
SplineSet
954 688 m 1x9e
 954 239 l 2
 954 63 847 -12 669 -12 c 0x9e
 491 -12 384 63 384 239 c 2
 384 248 l 1x3e
 591 248 l 1
 591 240 l 2
 591 176 615 153 662 153 c 0
 709 153 733 176 733 240 c 2
 733 688 l 1
 954 688 l 1x9e
305 688 m 1
 305 0 l 1
 84 0 l 1x5e
 84 688 l 1
 305 688 l 1
EndSplineSet
Validated: 1
EndChar

StartChar: ij
Encoding: 307 307 272
Width: 668
Flags: MW
HStem: -210 137<294 482> 0 21G<67 266 67 67> 508 20G<67 266 266 266 402 601 601 601> 590 135<67 266 67 266 402 601>
VStem: 67 199<0 528 0 528 590 725 0 725> 402 199<-9 528 590 725>
LayerCount: 2
Fore
SplineSet
601 528 m 1
 601 -29 l 2
 601 -157 546 -210 418 -210 c 0
 386 -210 325 -203 294 -192 c 1
 294 -73 l 1
 346 -73 l 2
 386 -73 402 -50 402 -9 c 2
 402 528 l 1
 601 528 l 1
601 725 m 1
 601 590 l 1
 402 590 l 1
 402 725 l 1
 601 725 l 1
266 528 m 1
 266 0 l 1
 67 0 l 1
 67 528 l 1
 266 528 l 1
266 725 m 1
 266 590 l 1
 67 590 l 1
 67 725 l 1
 266 725 l 1
EndSplineSet
Validated: 1
EndChar

StartChar: Jcircumflex
Encoding: 308 308 273
Width: 667
Flags: MW
HStem: -12 165<277.5 324.5 277.5 397> 668 20G<372 593 593 593> 740 145<269 536 269 536 408 675 408 545>
VStem: 23 207<239 240 240 248 208 248> 372 221<240 688>
LayerCount: 2
Fore
SplineSet
593 688 m 1
 593 239 l 2
 593 63 486 -12 308 -12 c 0
 130 -12 23 63 23 239 c 2
 23 248 l 1
 230 248 l 1
 230 240 l 2
 230 176 254 153 301 153 c 0
 348 153 372 176 372 240 c 2
 372 688 l 1
 593 688 l 1
536 885 m 1
 675 740 l 1
 545 740 l 1
 471 817 l 1
 396 740 l 1
 269 740 l 1
 408 885 l 1
 536 885 l 1
EndSplineSet
Validated: 1
EndChar

StartChar: jcircumflex
Encoding: 309 309 274
Width: 333
Flags: MW
HStem: -210 137<-41 147> 508 20G<67 266 266 266> 580 145<-35 232 -35 232 104 371 104 241> 657 68<167 167>
VStem: 67 199<-9 528>
LayerCount: 2
Fore
SplineSet
266 528 m 1xe8
 266 -29 l 2
 266 -157 211 -210 83 -210 c 0
 51 -210 -10 -203 -41 -192 c 1
 -41 -73 l 1
 11 -73 l 2
 51 -73 67 -50 67 -9 c 2
 67 528 l 1
 266 528 l 1xe8
232 725 m 1
 371 580 l 1
 241 580 l 1xe8
 167 657 l 1xd8
 93 580 l 1
 -35 580 l 1
 104 725 l 1
 232 725 l 1
EndSplineSet
Validated: 1
EndChar

StartChar: Kcommaaccent
Encoding: 310 310 275
Width: 833
Flags: MW
HStem: -175 116<352 401 352 481> 0 21G<74 295 74 74 558 819 558 558> 668 20G<74 295 295 295 540 814 814 814>
VStem: 74 221<0 154 394 688> 352 129<-168 -59 -168 -59 -168 -59>
LayerCount: 2
Fore
SplineSet
481 -59 m 1
 481 -168 l 1
 427 -267 l 1
 360 -267 l 1
 401 -175 l 1
 352 -175 l 1
 352 -59 l 1
 481 -59 l 1
295 688 m 1
 295 394 l 1
 540 688 l 1
 814 688 l 1
 567 405 l 1
 819 0 l 1
 558 0 l 1
 415 252 l 1
 295 154 l 1
 295 0 l 1
 74 0 l 1
 74 688 l 1
 295 688 l 1
EndSplineSet
Validated: 1
EndChar

StartChar: kcommaaccent
Encoding: 311 311 276
Width: 667
Flags: MW
HStem: -175 116<269 318 269 398> 0 21G<60 259 60 60 439 665 439 439> 508 20G<428 660 660 660> 706 20G<60 259 259 259>
VStem: 60 199<0 114 326 726> 269 129<-168 -59 -168 -59 -168 -59>
LayerCount: 2
Fore
SplineSet
259 726 m 1
 259 326 l 1
 428 528 l 1
 660 528 l 1
 465 315 l 1
 665 0 l 1
 439 0 l 1
 328 181 l 1
 259 114 l 1
 259 0 l 1
 60 0 l 1
 60 726 l 1
 259 726 l 1
398 -59 m 1xfc
 398 -168 l 1
 344 -267 l 1
 277 -267 l 1
 318 -175 l 1
 269 -175 l 1
 269 -59 l 1
 398 -59 l 1xfc
EndSplineSet
Validated: 1
EndChar

StartChar: kgreenlandic
Encoding: 312 312 277
Width: 667
Flags: MW
HStem: 0 21G<60 259 60 60 439 665 439 439> 508 20G<60 259 259 259 428 660 660 660>
VStem: 60 199<0 114 326 528>
LayerCount: 2
Fore
SplineSet
660 528 m 1
 465 315 l 1
 665 0 l 1
 439 0 l 1
 328 181 l 1
 259 114 l 1
 259 0 l 1
 60 0 l 1
 60 528 l 1
 259 528 l 1
 259 326 l 1
 428 528 l 1
 660 528 l 1
EndSplineSet
Validated: 1
EndChar

StartChar: Lacute
Encoding: 313 313 278
Width: 667
Flags: MW
HStem: 0 176<295 648 295 648> 668 20G<74 295 295 295> 752 133<180 215 88 373>
VStem: 74 221<176 688 176 688 176 688>
LayerCount: 2
Fore
SplineSet
375 881 m 1
 215 752 l 1
 88 752 l 1
 180 885 l 1
 373 885 l 1
 375 881 l 1
648 0 m 1
 74 0 l 1
 74 688 l 1
 295 688 l 1
 295 176 l 1
 648 176 l 1
 648 0 l 1
EndSplineSet
Validated: 1
EndChar

StartChar: lacute
Encoding: 314 314 279
Width: 333
Flags: MW
HStem: 0 21G<67 266 67 67> 705 20G<67 266 266 266> 752 133<163 198 70 355>
VStem: 67 199<0 725>
LayerCount: 2
Fore
SplineSet
266 0 m 1
 67 0 l 1
 67 725 l 1
 266 725 l 1
 266 0 l 1
357 881 m 1xf0
 198 752 l 1
 70 752 l 1
 163 885 l 1
 355 885 l 1
 357 881 l 1xf0
EndSplineSet
Validated: 1
EndChar

StartChar: Lcommaaccent
Encoding: 315 315 280
Width: 667
Flags: MW
HStem: -175 116<269 318 269 398> 0 176<295 648 295 648> 668 20G<74 295 295 295>
VStem: 74 221<176 688 176 688 176 688> 269 129<-168 -59 -168 -59 -168 -59>
LayerCount: 2
Fore
SplineSet
398 -59 m 1xe8
 398 -168 l 1
 344 -267 l 1
 277 -267 l 1
 318 -175 l 1
 269 -175 l 1
 269 -59 l 1
 398 -59 l 1xe8
648 0 m 1
 74 0 l 1
 74 688 l 1
 295 688 l 1
 295 176 l 1xf0
 648 176 l 1
 648 0 l 1
EndSplineSet
Validated: 1
EndChar

StartChar: lcommaaccent
Encoding: 316 316 281
Width: 333
Flags: MW
HStem: -175 116<102 151 102 231> 0 21G<67 266 67 67> 705 20G<67 266 266 266>
VStem: 67 199<0 725 0 725>
LayerCount: 2
Fore
SplineSet
266 725 m 1
 266 0 l 1
 67 0 l 1
 67 725 l 1
 266 725 l 1
231 -59 m 1
 231 -168 l 1
 177 -267 l 1
 110 -267 l 1
 151 -175 l 1
 102 -175 l 1
 102 -59 l 1
 231 -59 l 1
EndSplineSet
Validated: 1
EndChar

StartChar: Lcaron
Encoding: 317 317 282
Width: 667
Flags: MW
HStem: 0 176<295 648 295 648> 572 116<496 545>
VStem: 74 221<176 688 176 688 176 688> 496 129<579 688 579 688 579 688>
LayerCount: 2
Fore
SplineSet
625 688 m 1
 625 579 l 1
 571 480 l 1
 504 480 l 1
 545 572 l 1
 496 572 l 1
 496 688 l 1
 625 688 l 1
648 0 m 1
 74 0 l 1
 74 688 l 1
 295 688 l 1
 295 176 l 1
 648 176 l 1
 648 0 l 1
EndSplineSet
Validated: 1
EndChar

StartChar: lcaron
Encoding: 318 318 283
Width: 500
Flags: MW
HStem: 0 21G<67 266 67 67> 513 175<303 374 303 489> 513 212<67 374 67 303>
VStem: 67 199<0 725 0 725> 303 186<523 688 523 688 523 688>
LayerCount: 2
Fore
SplineSet
266 725 m 1xb8
 266 0 l 1
 67 0 l 1
 67 725 l 1
 266 725 l 1xb8
489 688 m 1xd8
 489 523 l 1
 398 331 l 1
 303 331 l 1
 374 513 l 1
 303 513 l 1
 303 688 l 1
 489 688 l 1xd8
EndSplineSet
Validated: 1
EndChar

StartChar: Ldot
Encoding: 319 319 284
Width: 667
Flags: MW
HStem: 0 176<295 648 295 648> 343 183<388 580 388 580> 668 20G<74 295 295 295>
VStem: 74 221<176 688 176 688 176 688> 388 192<343 526 343 526>
LayerCount: 2
Fore
SplineSet
580 526 m 1
 580 343 l 1
 388 343 l 1
 388 526 l 1
 580 526 l 1
648 0 m 1
 74 0 l 1
 74 688 l 1
 295 688 l 1
 295 176 l 1
 648 176 l 1
 648 0 l 1
EndSplineSet
Validated: 1
EndChar

StartChar: ldot
Encoding: 320 320 285
Width: 534
Flags: MW
HStem: 0 21G<67 266 67 67> 389 139<359 512 359 512> 705 20G<67 266 266 266>
VStem: 67 199<0 725 0 725> 359 153<389 528 389 528>
LayerCount: 2
Fore
SplineSet
266 725 m 1
 266 0 l 1
 67 0 l 1
 67 725 l 1
 266 725 l 1
512 528 m 1
 512 389 l 1
 359 389 l 1
 359 528 l 1
 512 528 l 1
EndSplineSet
Validated: 1
EndChar

StartChar: Lslash
Encoding: 321 321 286
Width: 667
Flags: MW
HStem: 0 176<295 648 295 648> 668 20G<74 295 295 295>
VStem: 74 221<176 229 229 229 328 364 463 688>
LayerCount: 2
Fore
SplineSet
295 688 m 1
 295 463 l 1
 444 556 l 1
 444 456 l 1
 295 364 l 1
 295 176 l 1
 648 176 l 1
 648 0 l 1
 74 0 l 1
 74 229 l 1
 0 184 l 1
 0 282 l 1
 74 328 l 1
 74 688 l 1
 295 688 l 1
EndSplineSet
Validated: 1
EndChar

StartChar: lslash
Encoding: 322 322 287
Width: 333
Flags: MW
HStem: 0 21G<67 266 67 67> 705 20G<67 266 266 266>
VStem: 67 199<0 234 234 234 333 351 450 725>
LayerCount: 2
Fore
SplineSet
266 725 m 1
 266 450 l 1
 362 509 l 1
 362 409 l 1
 266 351 l 1
 266 0 l 1
 67 0 l 1
 67 234 l 1
 -15 185 l 1
 -15 283 l 1
 67 333 l 1
 67 725 l 1
 266 725 l 1
EndSplineSet
Validated: 1
EndChar

StartChar: Nacute
Encoding: 323 323 288
Width: 833
Flags: MW
HStem: 0 21G<74 277 74 74 566 759 566 566> 668 20G<74 267 267 267 556 759 759 759> 752 133<413 448 320 605>
VStem: 74 203<0 334 0 688> 556 203<349 688>
LayerCount: 2
Fore
SplineSet
759 0 m 1
 566 0 l 1
 277 334 l 1
 277 0 l 1
 74 0 l 1
 74 688 l 1
 267 688 l 1
 556 349 l 1
 556 688 l 1
 759 688 l 1
 759 0 l 1
607 881 m 1
 448 752 l 1
 320 752 l 1
 413 885 l 1
 605 885 l 1
 607 881 l 1
EndSplineSet
Validated: 1
EndChar

StartChar: nacute
Encoding: 324 324 289
Width: 667
Flags: MW
HStem: 0 21G<60 259 60 60 409 608 409 409> 393 147<317 486.5> 508 20G<60 223 223 223> 592 133<330 365 237 522>
VStem: 60 199<0 310 0 528> 409 199<0 318 318 340>
LayerCount: 2
Fore
SplineSet
424 540 m 0xdc
 549 540 608 467 608 342 c 2
 608 0 l 1
 409 0 l 1
 409 318 l 2
 409 362 386 393 342 393 c 0
 292 393 259 355 259 310 c 2xdc
 259 0 l 1
 60 0 l 1
 60 528 l 1
 223 528 l 1xbc
 236 448 l 1
 277 504 349 540 424 540 c 0xdc
524 721 m 1xbc
 365 592 l 1
 237 592 l 1
 330 725 l 1
 522 725 l 1
 524 721 l 1xbc
EndSplineSet
Validated: 1
EndChar

StartChar: Ncommaaccent
Encoding: 325 325 290
Width: 833
Flags: MW
HStem: -175 116<352 401 352 481> 0 21G<74 277 74 74 566 759 566 566> 668 20G<74 267 267 267 556 759 759 759>
VStem: 74 203<0 334 0 688> 352 129<-168 -59 -168 -59 -168 -59> 556 203<349 688 0 688>
LayerCount: 2
Fore
SplineSet
759 688 m 1
 759 0 l 1
 566 0 l 1
 277 334 l 1
 277 0 l 1
 74 0 l 1
 74 688 l 1
 267 688 l 1
 556 349 l 1
 556 688 l 1
 759 688 l 1
481 -59 m 1
 481 -168 l 1
 427 -267 l 1
 360 -267 l 1
 401 -175 l 1
 352 -175 l 1
 352 -59 l 1
 481 -59 l 1
EndSplineSet
Validated: 1
EndChar

StartChar: ncommaaccent
Encoding: 326 326 291
Width: 667
Flags: MW
HStem: -175 116<269 318 269 398> 0 21G<60 259 60 60 409 608 409 409> 393 147<317 486.5> 508 20G<60 223 223 223>
VStem: 60 199<0 310 0 528> 269 129<-168 -59 -168 -59 -168 -59> 409 199<0 318 318 340>
LayerCount: 2
Fore
SplineSet
424 540 m 0xea
 549 540 608 467 608 342 c 2
 608 0 l 1
 409 0 l 1
 409 318 l 2
 409 362 386 393 342 393 c 0
 292 393 259 355 259 310 c 2xea
 259 0 l 1
 60 0 l 1
 60 528 l 1
 223 528 l 1xda
 236 448 l 1
 277 504 349 540 424 540 c 0xea
398 -59 m 1xde
 398 -168 l 1
 344 -267 l 1
 277 -267 l 1
 318 -175 l 1
 269 -175 l 1
 269 -59 l 1
 398 -59 l 1xde
EndSplineSet
Validated: 1
EndChar

StartChar: Ncaron
Encoding: 327 327 292
Width: 833
Flags: MW
HStem: 0 21G<74 277 74 74 566 759 566 566> 668 20G<74 267 267 267 556 759 759 759> 740 145<213 480 213 353>
VStem: 74 203<0 334 0 688> 556 203<349 688 0 688>
LayerCount: 2
Fore
SplineSet
759 688 m 1
 759 0 l 1
 566 0 l 1
 277 334 l 1
 277 0 l 1
 74 0 l 1
 74 688 l 1
 267 688 l 1
 556 349 l 1
 556 688 l 1
 759 688 l 1
620 885 m 1
 480 740 l 1
 353 740 l 1
 213 885 l 1
 341 885 l 1
 416 808 l 1
 490 885 l 1
 620 885 l 1
EndSplineSet
Validated: 1
EndChar

StartChar: ncaron
Encoding: 328 328 293
Width: 667
Flags: MW
HStem: 0 21G<60 259 60 60 409 608 409 409> 393 147<317 486.5> 508 20G<60 223 223 223> 580 145<130 397 130 270>
VStem: 60 199<0 310 0 528> 409 199<0 318 318 340>
LayerCount: 2
Fore
SplineSet
424 540 m 0xdc
 549 540 608 467 608 342 c 2
 608 0 l 1
 409 0 l 1
 409 318 l 2
 409 362 386 393 342 393 c 0
 292 393 259 355 259 310 c 2xdc
 259 0 l 1
 60 0 l 1
 60 528 l 1
 223 528 l 1xbc
 236 448 l 1
 277 504 349 540 424 540 c 0xdc
537 725 m 1xbc
 397 580 l 1
 270 580 l 1
 130 725 l 1
 258 725 l 1
 333 648 l 1
 407 725 l 1
 537 725 l 1xbc
EndSplineSet
Validated: 1
EndChar

StartChar: napostrophe
Encoding: 329 329 294
Width: 858
Flags: MW
HStem: 0 21G<251 450 251 251 600 799 600 600> 393 147<508 677.5> 480 48 572 116<81 130 81 210>
VStem: 81 129<579 688 579 688 579 688> 251 199<0 310 0 528> 600 199<0 318 318 340>
LayerCount: 2
Fore
SplineSet
210 688 m 1xbe
 210 579 l 1
 156 480 l 1
 89 480 l 1
 130 572 l 1
 81 572 l 1
 81 688 l 1
 210 688 l 1xbe
615 540 m 0xde
 740 540 799 467 799 342 c 2
 799 0 l 1
 600 0 l 1
 600 318 l 2
 600 362 577 393 533 393 c 0
 483 393 450 355 450 310 c 2xde
 450 0 l 1
 251 0 l 1
 251 528 l 1
 414 528 l 1xbe
 427 448 l 1
 468 504 540 540 615 540 c 0xde
EndSplineSet
Validated: 1
EndChar

StartChar: Eng
Encoding: 330 330 295
Width: 814
Flags: MW
HStem: -210 137<452 640> 0 21G<74 277 74 74> 668 20G<74 267 267 267 556 759 759 759>
VStem: 74 203<0 334 0 688> 556 203<349 688>
LayerCount: 2
Fore
SplineSet
759 688 m 1
 759 -29 l 2
 759 -157 704 -210 576 -210 c 0
 544 -210 483 -203 452 -192 c 1
 452 -73 l 1
 501 -73 l 2
 541 -73 557 -50 557 -9 c 2
 557 10 l 1
 277 334 l 1
 277 0 l 1
 74 0 l 1
 74 688 l 1
 267 688 l 1
 556 349 l 1
 556 688 l 1
 759 688 l 1
EndSplineSet
Validated: 1
EndChar

StartChar: eng
Encoding: 331 331 296
Width: 681
Flags: MW
HStem: -210 137<308 496> 0 21G<67 266 67 67> 393 147<324 493.5> 508 20G<67 230 230 230>
VStem: 67 199<0 310 0 528> 416 199<-9 318 318 340>
LayerCount: 2
Fore
SplineSet
431 540 m 0xec
 556 540 615 467 615 342 c 2
 615 -29 l 2
 615 -157 560 -210 432 -210 c 0
 400 -210 339 -203 308 -192 c 1
 308 -73 l 1
 360 -73 l 2
 400 -73 416 -50 416 -9 c 2
 416 318 l 2
 416 362 393 393 349 393 c 0
 299 393 266 355 266 310 c 2xec
 266 0 l 1
 67 0 l 1
 67 528 l 1
 230 528 l 1xdc
 243 448 l 1
 284 504 356 540 431 540 c 0xec
EndSplineSet
Validated: 1
EndChar

StartChar: Omacron
Encoding: 332 332 297
Width: 833
Flags: MW
HStem: -12 165<367.5 464.5 367.5 533.5> 535 165<367.5 464.5> 765 100<258 575 258 575>
VStem: 45 226<265 312 312 376 265 461.5> 258 317<765 865 765 865> 562 226<312 376 376 423>
LayerCount: 2
Fore
SplineSet
416 700 m 0xf4
 651 700 788 579 788 344 c 0
 788 109 651 -12 416 -12 c 0
 181 -12 45 109 45 344 c 0
 45 579 181 700 416 700 c 0xf4
416 535 m 0
 319 535 271 470 271 376 c 2
 271 312 l 2
 271 218 319 153 416 153 c 0
 513 153 562 218 562 312 c 2
 562 376 l 2
 562 470 513 535 416 535 c 0
575 865 m 1xe8
 575 765 l 1
 258 765 l 1
 258 865 l 1
 575 865 l 1xe8
EndSplineSet
Validated: 1
EndChar

StartChar: omacron
Encoding: 333 333 298
Width: 667
Flags: MW
HStem: -12 135<298 368 298 423> 405 135<298 368> 605 100<175 492 175 492>
VStem: 36 199<200 235 235 292 200 356.5> 175 317<605 705 605 705> 432 199<235 292 292 327>
LayerCount: 2
Fore
SplineSet
333 540 m 0xf4
 513 540 631 449 631 264 c 0
 631 79 513 -12 333 -12 c 0
 153 -12 36 79 36 264 c 0
 36 449 153 540 333 540 c 0xf4
333 405 m 0
 263 405 235 362 235 292 c 2
 235 235 l 2
 235 165 263 123 333 123 c 0
 403 123 432 165 432 235 c 2
 432 292 l 2
 432 362 403 405 333 405 c 0
492 705 m 1xe8
 492 605 l 1
 175 605 l 1
 175 705 l 1
 492 705 l 1xe8
EndSplineSet
Validated: 1
EndChar

StartChar: Obreve
Encoding: 334 334 299
Width: 833
Flags: MW
HStem: -12 165<367.5 464.5 367.5 533.5> 535 165<367.5 464.5> 741 94<391.5 441 391.5 473>
VStem: 45 226<265 312 312 376 265 461.5> 562 226<312 376 376 423>
LayerCount: 2
Fore
SplineSet
416 700 m 0
 651 700 788 579 788 344 c 0
 788 109 651 -12 416 -12 c 0
 181 -12 45 109 45 344 c 0
 45 579 181 700 416 700 c 0
416 535 m 0
 319 535 271 470 271 376 c 2
 271 312 l 2
 271 218 319 153 416 153 c 0
 513 153 562 218 562 312 c 2
 562 376 l 2
 562 470 513 535 416 535 c 0
506 885 m 1
 601 885 l 1
 601 818 530 741 416 741 c 0
 301 741 232 818 232 885 c 1
 328 885 l 1
 332 864 367 835 416 835 c 0
 466 835 502 864 506 885 c 1
EndSplineSet
Validated: 1
EndChar

StartChar: obreve
Encoding: 335 335 300
Width: 667
Flags: MW
HStem: -12 135<298 368 298 423> 405 135<298 368> 581 94<321 358 321 390> 581 144<149 390>
VStem: 36 199<200 235 235 292 200 356.5> 432 199<235 292 292 327>
LayerCount: 2
Fore
SplineSet
333 540 m 0xdc
 513 540 631 449 631 264 c 0
 631 79 513 -12 333 -12 c 0
 153 -12 36 79 36 264 c 0
 36 449 153 540 333 540 c 0xdc
333 405 m 0
 263 405 235 362 235 292 c 2
 235 235 l 2
 235 165 263 123 333 123 c 0
 403 123 432 165 432 235 c 2
 432 292 l 2
 432 362 403 405 333 405 c 0
423 725 m 1
 518 725 l 1
 518 658 447 581 333 581 c 0
 218 581 149 658 149 725 c 1
 245 725 l 1xdc
 247 715 257 702 272 692 c 0
 288 682 309 675 333 675 c 0xec
 383 675 419 704 423 725 c 1
EndSplineSet
Validated: 1
EndChar

StartChar: Ohungarumlaut
Encoding: 336 336 301
Width: 833
Flags: MW
HStem: -12 165<367.5 464.5 367.5 533.5> 535 165<367.5 464.5> 752 134<322 363 246 500 457 457 457 500 533 574>
VStem: 45 226<265 312 312 376 265 461.5> 562 226<312 376 376 423>
LayerCount: 2
Fore
SplineSet
416 700 m 0
 651 700 788 579 788 344 c 0
 788 109 651 -12 416 -12 c 0
 181 -12 45 109 45 344 c 0
 45 579 181 700 416 700 c 0
416 535 m 0
 319 535 271 470 271 376 c 2
 271 312 l 2
 271 218 319 153 416 153 c 0
 513 153 562 218 562 312 c 2
 562 376 l 2
 562 470 513 535 416 535 c 0
500 886 m 1
 502 882 l 1
 363 752 l 1
 246 752 l 1
 322 886 l 1
 500 886 l 1
711 886 m 1
 713 882 l 1
 574 752 l 1
 457 752 l 1
 533 886 l 1
 711 886 l 1
EndSplineSet
Validated: 1
EndChar

StartChar: ohungarumlaut
Encoding: 337 337 302
Width: 667
Flags: MW
HStem: -12 135<298 368 298 423> 405 135<298 368> 591 134<236 277 160 414 371 371 371 414 447 488>
VStem: 36 199<200 235 235 292 200 356.5> 432 199<235 292 292 327>
LayerCount: 2
Fore
SplineSet
333 540 m 0
 513 540 631 449 631 264 c 0
 631 79 513 -12 333 -12 c 0
 153 -12 36 79 36 264 c 0
 36 449 153 540 333 540 c 0
333 405 m 0
 263 405 235 362 235 292 c 2
 235 235 l 2
 235 165 263 123 333 123 c 0
 403 123 432 165 432 235 c 2
 432 292 l 2
 432 362 403 405 333 405 c 0
414 725 m 1
 416 721 l 1
 277 591 l 1
 160 591 l 1
 236 725 l 1
 414 725 l 1
625 725 m 1
 627 721 l 1
 488 591 l 1
 371 591 l 1
 447 725 l 1
 625 725 l 1
EndSplineSet
Validated: 1
EndChar

StartChar: Racute
Encoding: 340 340 303
Width: 778
Flags: MW
HStem: 0 21G<74 295 74 74 499 747 499 499> 251 153<295 377 295 440> 531 157<295 440 295 295> 752 133<374 409 282 567>
VStem: 74 221<0 251 0 404 404 531> 502 225<449.5 486.5>
LayerCount: 2
Fore
SplineSet
569 881 m 1
 409 752 l 1
 282 752 l 1
 374 885 l 1
 567 885 l 1
 569 881 l 1
727 477 m 0
 727 397 683 321 594 288 c 1
 747 0 l 1
 499 0 l 1
 377 251 l 1
 295 251 l 1
 295 0 l 1
 74 0 l 1
 74 688 l 1
 495 688 l 2
 648 688 727 589 727 477 c 0
502 468 m 0
 502 505 474 531 440 531 c 2
 295 531 l 1
 295 404 l 1
 440 404 l 2
 474 404 502 431 502 468 c 0
EndSplineSet
Validated: 1
EndChar

StartChar: racute
Encoding: 341 341 304
Width: 444
Flags: MW
HStem: 0 21G<60 259 60 60> 362 166<60 376 60 440> 362 179<349.5 376 376 399.5 349.5 440> 592 133<146 181 53 338>
VStem: 60 199<0 235 0 528>
LayerCount: 2
Fore
SplineSet
381 541 m 0xb8
 418 541 440 529 440 529 c 1xd8
 440 362 l 1
 376 362 l 2xb8
 290 362 259 315 259 235 c 2
 259 0 l 1
 60 0 l 1
 60 528 l 1
 223 528 l 1xd8
 236 448 l 1
 261 511 318 541 381 541 c 0xb8
340 721 m 1
 181 592 l 1
 53 592 l 1
 146 725 l 1
 338 725 l 1
 340 721 l 1
EndSplineSet
Validated: 1
EndChar

StartChar: Rcommaaccent
Encoding: 342 342 305
Width: 778
Flags: MW
HStem: -175 116<324 374 324 454> 0 21G<74 295 74 74 499 747 499 499> 251 153<295 377 295 440> 531 157<295 440 295 295>
VStem: 74 221<0 251 0 404 404 531> 324 130<-168 -59 -168 -59 -168 -59> 502 225<449.5 486.5>
LayerCount: 2
Fore
SplineSet
454 -59 m 1
 454 -168 l 1
 400 -267 l 1
 333 -267 l 1
 374 -175 l 1
 324 -175 l 1
 324 -59 l 1
 454 -59 l 1
727 477 m 0
 727 397 683 321 594 288 c 1
 747 0 l 1
 499 0 l 1
 377 251 l 1
 295 251 l 1
 295 0 l 1
 74 0 l 1
 74 688 l 1xf8
 495 688 l 2
 648 688 727 589 727 477 c 0
502 468 m 0xfa
 502 505 474 531 440 531 c 2
 295 531 l 1
 295 404 l 1
 440 404 l 2
 474 404 502 431 502 468 c 0xfa
EndSplineSet
Validated: 1
EndChar

StartChar: rcommaaccent
Encoding: 343 343 306
Width: 444
Flags: MW
HStem: -175 116<157 207 157 287> 0 21G<60 259 60 60> 362 166<60 376 60 440> 362 179<349.5 376 376 399.5 349.5 440>
VStem: 60 199<0 235 0 528> 157 130<-168 -59 -168 -59 -168 -59>
LayerCount: 2
Fore
SplineSet
381 541 m 0xd8
 418 541 440 529 440 529 c 1xe8
 440 362 l 1
 376 362 l 2xd8
 290 362 259 315 259 235 c 2
 259 0 l 1
 60 0 l 1
 60 528 l 1
 223 528 l 1xe8
 236 448 l 1
 261 511 318 541 381 541 c 0xd8
287 -59 m 1xd4
 287 -168 l 1
 233 -267 l 1
 166 -267 l 1
 207 -175 l 1
 157 -175 l 1
 157 -59 l 1
 287 -59 l 1xd4
EndSplineSet
Validated: 1
EndChar

StartChar: Rcaron
Encoding: 344 344 307
Width: 778
Flags: MW
HStem: 0 21G<74 295 74 74 499 747 499 499> 251 153<295 377 295 440> 531 157<295 440 295 295> 740 145<186 453 186 325>
VStem: 74 221<0 251 0 404 404 531> 502 225<449.5 486.5>
LayerCount: 2
Fore
SplineSet
592 885 m 1
 453 740 l 1
 325 740 l 1
 186 885 l 1
 314 885 l 1
 388 808 l 1
 462 885 l 1
 592 885 l 1
727 477 m 0
 727 397 683 321 594 288 c 1
 747 0 l 1
 499 0 l 1
 377 251 l 1
 295 251 l 1
 295 0 l 1
 74 0 l 1
 74 688 l 1
 495 688 l 2
 648 688 727 589 727 477 c 0
502 468 m 0
 502 505 474 531 440 531 c 2
 295 531 l 1
 295 404 l 1
 440 404 l 2
 474 404 502 431 502 468 c 0
EndSplineSet
Validated: 1
EndChar

StartChar: rcaron
Encoding: 345 345 308
Width: 444
Flags: MW
HStem: 0 21G<60 259 60 60> 362 166<60 376 60 440> 362 179<349.5 376 376 399.5 349.5 440> 580 145<19 286 19 158>
VStem: 60 199<0 235 0 528>
LayerCount: 2
Fore
SplineSet
381 541 m 0xb8
 418 541 440 529 440 529 c 1xd8
 440 362 l 1
 376 362 l 2xb8
 290 362 259 315 259 235 c 2
 259 0 l 1
 60 0 l 1
 60 528 l 1
 223 528 l 1xd8
 236 448 l 1
 261 511 318 541 381 541 c 0xb8
425 725 m 1
 286 580 l 1
 158 580 l 1
 19 725 l 1
 147 725 l 1
 221 648 l 1
 295 725 l 1
 425 725 l 1
EndSplineSet
Validated: 1
EndChar

StartChar: Sacute
Encoding: 346 346 309
Width: 722
Flags: MW
HStem: -12 158<329 383 329 469.5> 256.85 178.13 550 150 752 133
VStem: 43 209<196 233 196 233> 54 226<453.5 517 453.5 560> 460 207<476 480 480 488 476 498> 460 226<170.5 228 142.5 241.5>
LayerCount: 2
Fore
SplineSet
363 700 m 0xf6
 529 700 664 635 667 488 c 2
 667 476 l 1
 460 476 l 1
 460 480 l 2xf6
 460 516 435 550 371 550 c 0
 310 550 280 529 280 505 c 0xf5
 280 402 681 483 686 228 c 0
 686 57 556 -12 383 -12 c 0
 190 -12 43 37 43 233 c 1
 252 233 l 1xf9
 252 159 295 146 363 146 c 0
 403 146 460 149 460 192 c 0xf5
 460 291 54 212 54 480 c 0
 54 640 200 700 363 700 c 0xf6
552 881 m 1
 393 752 l 1
 265 752 l 1
 357 885 l 1
 550 885 l 1
 552 881 l 1
EndSplineSet
Validated: 1
EndChar

StartChar: sacute
Encoding: 347 347 310
Width: 611
Flags: MW
HStem: -12 119<289.5 318 289.5 376.5> 198.18 140.83 370 170<241.5 564 241.5 379> 421 119<299.5 315> 592 133<302 337 209 495>
VStem: 32 185<168 172 168 172> 46 190<349 404 349 430.5> 387 190<127.5 185.5>
LayerCount: 2
Fore
SplineSet
311 540 m 0xdb
 436 540 564 495 564 370 c 1
 379 370 l 1xeb
 379 391 368 404 353 411 c 0
 339 419 322 421 308 421 c 0
 291 421 236 421 236 387 c 0xdb
 236 311 577 390 577 175 c 0
 577 30 449 -12 304 -12 c 0
 172 -12 32 40 32 172 c 1
 217 172 l 1
 217 168 l 2xdd
 218 117 275 107 304 107 c 0
 332 107 387 109 387 146 c 0
 387 225 46 153 46 361 c 0
 46 500 172 540 311 540 c 0xdb
497 721 m 1
 337 592 l 1
 209 592 l 1
 302 725 l 1
 495 725 l 1
 497 721 l 1
EndSplineSet
Validated: 1
EndChar

StartChar: Scircumflex
Encoding: 348 348 311
Width: 722
Flags: MW
HStem: -12 158<329 383 329 469.5> 256.85 178.13 550 150 740 145
VStem: 43 209<196 233 196 233> 54 226<453.5 517 453.5 560> 460 207<476 480 480 488 476 498> 460 226<170.5 228 142.5 241.5>
LayerCount: 2
Fore
SplineSet
363 700 m 0xf6
 529 700 664 635 667 488 c 2
 667 476 l 1
 460 476 l 1
 460 480 l 2xf6
 460 516 435 550 371 550 c 0
 310 550 280 529 280 505 c 0xf5
 280 402 681 483 686 228 c 0
 686 57 556 -12 383 -12 c 0
 190 -12 43 37 43 233 c 1
 252 233 l 1xf9
 252 159 295 146 363 146 c 0
 403 146 460 149 460 192 c 0xf5
 460 291 54 212 54 480 c 0
 54 640 200 700 363 700 c 0xf6
425 885 m 1xf5
 564 740 l 1
 435 740 l 1
 360 817 l 1
 286 740 l 1
 158 740 l 1
 297 885 l 1
 425 885 l 1xf5
EndSplineSet
Validated: 1
EndChar

StartChar: scircumflex
Encoding: 349 349 312
Width: 611
Flags: MW
HStem: -12 119<289.5 318 289.5 376.5> 198.18 140.83 370 170<241.5 564 241.5 379> 421 119<299.5 315> 580 145<103 370 103 370 242 509 242 379> 657 68<305 305>
VStem: 32 185<168 172 168 172> 46 190<349 404 349 430.5> 387 190<127.5 185.5>
LayerCount: 2
Fore
SplineSet
311 540 m 0xd980
 436 540 564 495 564 370 c 1
 379 370 l 1xe980
 379 391 368 404 353 411 c 0
 339 419 322 421 308 421 c 0
 291 421 236 421 236 387 c 0xd980
 236 311 577 390 577 175 c 0
 577 30 449 -12 304 -12 c 0
 172 -12 32 40 32 172 c 1
 217 172 l 1
 217 168 l 2xda80
 218 117 275 107 304 107 c 0
 332 107 387 109 387 146 c 0
 387 225 46 153 46 361 c 0
 46 500 172 540 311 540 c 0xd980
370 725 m 1
 509 580 l 1
 379 580 l 1xd980
 305 657 l 1xd580
 230 580 l 1
 103 580 l 1
 242 725 l 1
 370 725 l 1
EndSplineSet
Validated: 1
EndChar

StartChar: Scedilla
Encoding: 350 350 313
Width: 722
Flags: MW
HStem: -211 62<342 368 330 388.5> -86 57<320 391> -11 157<332 332> 256.85 178.13 550 150
VStem: 43 209<196 233 196 233> 54 226<453.5 517 453.5 560> 396 87<-129.5 -108> 460 207<476 480 480 488 476 498> 460 226<170.5 228 144.5 241.5>
LayerCount: 2
Fore
SplineSet
363 700 m 0xba80
 529 700 664 635 667 488 c 2
 667 476 l 1
 460 476 l 1
 460 480 l 2xba80
 460 516 435 550 371 550 c 0
 310 550 280 529 280 505 c 0
 280 402 681 483 686 228 c 0xba40
 686 61 561 -9 393 -12 c 1xbb
 391 -29 l 1
 439 -34 483 -56 483 -118 c 0
 483 -194 412 -211 365 -211 c 0
 319 -211 269 -205 239 -195 c 1
 239 -141 l 1
 239 -141 304 -149 356 -149 c 0
 380 -149 396 -141 396 -118 c 0
 396 -98 387 -86 358 -86 c 2
 320 -86 l 1xfb
 332 -11 l 1
 165 -2 43 55 43 233 c 1
 252 233 l 1xbd
 252 159 295 146 363 146 c 0
 403 146 460 149 460 192 c 0xba40
 460 291 54 212 54 480 c 0
 54 640 200 700 363 700 c 0xba80
EndSplineSet
Validated: 1
EndChar

StartChar: scedilla
Encoding: 351 351 314
Width: 611
Flags: MW
HStem: -211 62<287 313 275 333> -86 57<265 335> -11 118<276 318 289.5 337> 198.18 140.83 370 170<241.5 564 241.5 379> 421 119<299.5 315>
VStem: 32 185<168 172 168 172> 46 190<349 404 349 430.5> 341 87<-129.5 -108> 387 190<127.5 185.5>
LayerCount: 2
Fore
SplineSet
311 540 m 0xb540
 436 540 564 495 564 370 c 1
 379 370 l 1xb940
 379 391 368 404 353 411 c 0
 339 419 322 421 308 421 c 0
 291 421 236 421 236 387 c 0
 236 311 577 390 577 175 c 0xb540
 577 41 468 -5 337 -11 c 1xb580
 335 -29 l 1
 384 -34 428 -56 428 -118 c 0
 428 -194 356 -211 310 -211 c 0
 264 -211 213 -205 184 -195 c 1
 184 -141 l 1
 184 -141 249 -149 301 -149 c 0
 325 -149 341 -141 341 -118 c 0
 341 -98 332 -86 303 -86 c 2
 265 -86 l 1xf580
 276 -11 l 1
 153 -4 32 49 32 172 c 1
 217 172 l 1
 217 168 l 2xb640
 218 117 275 107 304 107 c 0
 332 107 387 109 387 146 c 0
 387 225 46 153 46 361 c 0
 46 500 172 540 311 540 c 0xb540
EndSplineSet
Validated: 1
EndChar

StartChar: Tcommaaccent
Encoding: 354 354 315
Width: 722
Flags: MW
HStem: -175 116<296 346 296 426> 0 21G<249 470 249 249> 512 176<23 249 23 695 470 695 470 470>
VStem: 249 221<0 512 0 512> 296 130<-168 -59 -168 -59 -168 -59>
LayerCount: 2
Fore
SplineSet
695 688 m 1xf0
 695 512 l 1
 470 512 l 1
 470 0 l 1
 249 0 l 1
 249 512 l 1
 23 512 l 1
 23 688 l 1
 695 688 l 1xf0
426 -59 m 1xe8
 426 -168 l 1
 372 -267 l 1
 305 -267 l 1
 346 -175 l 1
 296 -175 l 1
 296 -59 l 1
 426 -59 l 1xe8
EndSplineSet
Validated: 1
EndChar

StartChar: tcommaaccent
Encoding: 355 355 316
Width: 444
Flags: MW
HStem: -175 116<201 250 201 331> -12 135<230 412> 393 135<27 101 27 109 300 412> 668 20G<152 300 300 300>
VStem: 101 199<169.5 192 192 393> 201 130<-168 -59 -168 -59 -168 -59>
LayerCount: 2
Fore
SplineSet
300 688 m 1xf8
 300 528 l 1
 412 528 l 1
 412 393 l 1
 300 393 l 1
 300 192 l 2
 300 147 311 123 356 123 c 2
 412 123 l 1
 412 6 l 1
 379 -5 319 -12 284 -12 c 0
 176 -12 101 21 101 129 c 2
 101 393 l 1
 27 393 l 1
 27 528 l 1
 109 528 l 1
 152 688 l 1
 300 688 l 1xf8
331 -59 m 1xf4
 331 -168 l 1
 276 -267 l 1
 209 -267 l 1
 250 -175 l 1
 201 -175 l 1
 201 -59 l 1
 331 -59 l 1xf4
EndSplineSet
Validated: 1
EndChar

StartChar: Tcaron
Encoding: 356 356 317
Width: 722
Flags: MW
HStem: 0 21G<249 470 249 249> 512 176<23 249 23 695 470 695 470 470> 740 145<158 425 158 297>
VStem: 249 221<0 512 0 512>
LayerCount: 2
Fore
SplineSet
695 688 m 1
 695 512 l 1
 470 512 l 1
 470 0 l 1
 249 0 l 1
 249 512 l 1
 23 512 l 1
 23 688 l 1
 695 688 l 1
564 885 m 1
 425 740 l 1
 297 740 l 1
 158 885 l 1
 286 885 l 1
 360 808 l 1
 435 885 l 1
 564 885 l 1
EndSplineSet
Validated: 1
EndChar

StartChar: tcaron
Encoding: 357 357 318
Width: 625
Flags: MW
HStem: -12 135<230 412> 393 135<27 101 27 109 300 412> 480 48 572 116<454 503>
VStem: 101 199<169.5 192 192 393> 454 129<579 688 579 688 579 688>
LayerCount: 2
Fore
SplineSet
583 688 m 1xdc
 583 579 l 1
 529 480 l 1
 462 480 l 1xbc
 503 572 l 1
 454 572 l 1
 454 688 l 1
 583 688 l 1xdc
300 688 m 1
 300 528 l 1
 412 528 l 1
 412 393 l 1
 300 393 l 1
 300 192 l 2
 300 147 311 123 356 123 c 2
 412 123 l 1
 412 6 l 1
 379 -5 319 -12 284 -12 c 0
 176 -12 101 21 101 129 c 2
 101 393 l 1
 27 393 l 1
 27 528 l 1
 109 528 l 1xdc
 152 688 l 1
 300 688 l 1
EndSplineSet
Validated: 1
EndChar

StartChar: Tbar
Encoding: 358 358 319
Width: 722
Flags: MW
HStem: 0 21G<249 470 249 249> 269 100<86 249 86 249 470 632> 512 176<23 249 23 695 470 470 470 695>
VStem: 249 221<0 269 0 269 369 512>
LayerCount: 2
Fore
SplineSet
632 369 m 1
 632 269 l 1
 470 269 l 1
 470 0 l 1
 249 0 l 1
 249 269 l 1
 86 269 l 1
 86 369 l 1
 249 369 l 1
 249 512 l 1
 23 512 l 1
 23 688 l 1
 695 688 l 1
 695 512 l 1
 470 512 l 1
 470 369 l 1
 632 369 l 1
EndSplineSet
Validated: 1
EndChar

StartChar: tbar
Encoding: 359 359 320
Width: 444
Flags: MW
HStem: -12 135<230 412> 209 101<31 101 31 101 300 391> 393 135<27 101 27 109 300 412> 668 20G<152 300 300 300>
VStem: 101 199<169.5 192 192 209 169.5 209 310 393>
LayerCount: 2
Fore
SplineSet
300 688 m 1
 300 528 l 1
 412 528 l 1
 412 393 l 1
 300 393 l 1
 300 310 l 1
 391 310 l 1
 391 209 l 1
 300 209 l 1
 300 192 l 2
 300 147 311 123 356 123 c 2
 412 123 l 1
 412 6 l 1
 379 -5 319 -12 284 -12 c 0
 176 -12 101 21 101 129 c 2
 101 209 l 1
 31 209 l 1
 31 310 l 1
 101 310 l 1
 101 393 l 1
 27 393 l 1
 27 528 l 1
 109 528 l 1
 152 688 l 1
 300 688 l 1
EndSplineSet
Validated: 1
EndChar

StartChar: Utilde
Encoding: 360 360 321
Width: 833
Flags: MW
HStem: -12 165<375.5 456.5 375.5 525> 668 20G<74 295 295 295 538 759 759 759> 742 143<194 366 194 366 292 541>
VStem: 74 221<277 280 280 688> 538 221<280 688>
LayerCount: 2
Fore
SplineSet
759 688 m 1
 759 277 l 2
 759 87 633 -12 417 -12 c 0
 201 -12 74 87 74 277 c 2
 74 688 l 1
 295 688 l 1
 295 280 l 2
 295 206 335 153 416 153 c 0
 497 153 538 206 538 280 c 2
 538 688 l 1
 759 688 l 1
558 885 m 1
 639 885 l 1
 639 813 583 742 499 742 c 0
 435 742 379 782 326 782 c 0
 300 782 283 765 275 742 c 1
 194 742 l 1
 194 814 250 885 334 885 c 0
 398 885 454 845 507 845 c 0
 533 845 550 862 558 885 c 1
EndSplineSet
Validated: 1
EndChar

StartChar: utilde
Encoding: 361 361 322
Width: 667
Flags: MW
HStem: -12 147<179.5 349> 0 21G<443 606 443 443> 508 20G<58 257 257 257 407 606 606 606> 582 103<397.5 437 397.5 458> 582 143<111 283 111 283 209 458> 622 103<230 269.5>
VStem: 58 199<188 210 210 528> 407 199<218 528 0 528>
LayerCount: 2
Fore
SplineSet
606 528 m 1x6b
 606 0 l 1
 443 0 l 1x6b
 430 80 l 1
 389 23 317 -12 242 -12 c 0
 117 -12 58 61 58 186 c 2
 58 528 l 1
 257 528 l 1
 257 210 l 2
 257 166 280 135 324 135 c 0
 374 135 407 173 407 218 c 2xab
 407 528 l 1
 606 528 l 1x6b
475 725 m 1
 556 725 l 1x6b
 556 653 500 582 416 582 c 0x73
 352 582 296 622 243 622 c 0x67
 217 622 200 605 192 582 c 1
 111 582 l 1
 111 654 167 725 251 725 c 0x6b
 315 725 371 685 424 685 c 0x73
 450 685 467 702 475 725 c 1
EndSplineSet
Validated: 1
EndChar

StartChar: Umacron
Encoding: 362 362 323
Width: 833
Flags: MW
HStem: -12 165<375.5 456.5 375.5 525> 668 20G<74 295 295 295 538 759 759 759> 765 100<258 575 258 575>
VStem: 74 221<277 280 280 688> 538 221<280 688>
LayerCount: 2
Fore
SplineSet
759 688 m 1
 759 277 l 2
 759 87 633 -12 417 -12 c 0
 201 -12 74 87 74 277 c 2
 74 688 l 1
 295 688 l 1
 295 280 l 2
 295 206 335 153 416 153 c 0
 497 153 538 206 538 280 c 2
 538 688 l 1
 759 688 l 1
575 865 m 1
 575 765 l 1
 258 765 l 1
 258 865 l 1
 575 865 l 1
EndSplineSet
Validated: 1
EndChar

StartChar: umacron
Encoding: 363 363 324
Width: 667
Flags: MW
HStem: -12 147<179.5 349> 0 21G<443 606 443 443> 508 20G<58 257 257 257 407 606 606 606> 605 100<175 492 175 492>
VStem: 58 199<188 210 210 528> 407 199<218 528 0 528>
LayerCount: 2
Fore
SplineSet
606 528 m 1x7c
 606 0 l 1
 443 0 l 1x7c
 430 80 l 1
 389 23 317 -12 242 -12 c 0
 117 -12 58 61 58 186 c 2
 58 528 l 1
 257 528 l 1
 257 210 l 2
 257 166 280 135 324 135 c 0
 374 135 407 173 407 218 c 2xbc
 407 528 l 1
 606 528 l 1x7c
492 705 m 1
 492 605 l 1
 175 605 l 1
 175 705 l 1
 492 705 l 1
EndSplineSet
Validated: 1
EndChar

StartChar: Ubreve
Encoding: 364 364 325
Width: 833
Flags: MW
HStem: -12 165<375.5 456.5 375.5 525> 668 20G<74 295 295 295 538 759 759 759> 741 94<391.5 441 391.5 473>
VStem: 74 221<277 280 280 688> 538 221<280 688>
LayerCount: 2
Fore
SplineSet
759 688 m 1
 759 277 l 2
 759 87 633 -12 417 -12 c 0
 201 -12 74 87 74 277 c 2
 74 688 l 1
 295 688 l 1
 295 280 l 2
 295 206 335 153 416 153 c 0
 497 153 538 206 538 280 c 2
 538 688 l 1
 759 688 l 1
506 885 m 1
 601 885 l 1
 601 818 530 741 416 741 c 0
 301 741 232 818 232 885 c 1
 328 885 l 1
 332 864 367 835 416 835 c 0
 466 835 502 864 506 885 c 1
EndSplineSet
Validated: 1
EndChar

StartChar: ubreve
Encoding: 365 365 326
Width: 667
Flags: MW
HStem: -12 147<179.5 349> 0 21G<443 606 443 443> 508 20G<58 257 257 257 407 606 606 606> 581 94<321 358 321 390> 581 144<149 390>
VStem: 58 199<188 210 210 528> 407 199<218 528 0 528>
LayerCount: 2
Fore
SplineSet
606 528 m 1x6e
 606 0 l 1
 443 0 l 1x6e
 430 80 l 1
 389 23 317 -12 242 -12 c 0
 117 -12 58 61 58 186 c 2
 58 528 l 1
 257 528 l 1
 257 210 l 2
 257 166 280 135 324 135 c 0
 374 135 407 173 407 218 c 2xae
 407 528 l 1
 606 528 l 1x6e
423 725 m 1
 518 725 l 1
 518 658 447 581 333 581 c 0
 218 581 149 658 149 725 c 1
 245 725 l 1x6e
 247 715 257 702 272 692 c 0
 288 682 309 675 333 675 c 0x76
 383 675 419 704 423 725 c 1
EndSplineSet
Validated: 1
EndChar

StartChar: Uring
Encoding: 366 366 327
Width: 833
Flags: MW
HStem: -12 165<375.5 456.5 375.5 525> 668 20G<74 295 295 295 538 759 759 759> 737 68<405.5 428.5 405.5 447> 885 69<405 428>
VStem: 74 221<277 280 280 688> 308 68<832.5 856 832.5 875> 457 68<834 857.5> 538 221<280 688>
LayerCount: 2
Fore
SplineSet
759 688 m 1
 759 277 l 2
 759 87 633 -12 417 -12 c 0
 201 -12 74 87 74 277 c 2
 74 688 l 1
 295 688 l 1
 295 280 l 2
 295 206 335 153 416 153 c 0
 497 153 538 206 538 280 c 2
 538 688 l 1
 759 688 l 1
417 954 m 0xff
 476 954 525 906 525 845 c 0
 525 786 477 737 417 737 c 0
 357 737 308 785 308 845 c 0
 308 905 356 954 417 954 c 0xff
417 885 m 0
 393 885 376 868 376 844 c 0
 376 821 394 805 417 805 c 0
 440 805 457 822 457 846 c 0
 457 869 439 885 417 885 c 0
EndSplineSet
Validated: 1
EndChar

StartChar: uring
Encoding: 367 367 328
Width: 667
Flags: MW
HStem: -12 147<179.5 349> 0 21G<443 606 443 443> 508 20G<58 257 257 257 407 606 606 606> 577 68<322 345 322 363.5> 725 69<321.5 344.5>
VStem: 58 199<188 210 210 528> 225 68<672.5 696 672.5 715> 374 68<674 697.5> 407 199<218 528 0 528>
LayerCount: 2
Fore
SplineSet
606 528 m 1x7c80
 606 0 l 1
 443 0 l 1x7c80
 430 80 l 1
 389 23 317 -12 242 -12 c 0
 117 -12 58 61 58 186 c 2
 58 528 l 1
 257 528 l 1
 257 210 l 2
 257 166 280 135 324 135 c 0
 374 135 407 173 407 218 c 2xbc80
 407 528 l 1
 606 528 l 1x7c80
333 794 m 0x7b
 393 794 442 746 442 685 c 0
 442 626 394 577 333 577 c 0
 274 577 225 625 225 685 c 0
 225 745 273 794 333 794 c 0x7b
333 725 m 0
 310 725 293 708 293 684 c 0
 293 661 311 645 333 645 c 0
 357 645 374 662 374 686 c 0
 374 709 356 725 333 725 c 0
EndSplineSet
Validated: 1
EndChar

StartChar: Uhungarumlaut
Encoding: 368 368 329
Width: 833
Flags: MW
HStem: -12 165<375.5 456.5 375.5 525> 668 20G<74 295 295 295 538 759 759 759> 752 134<322 363 246 500 457 457 457 500 533 574>
VStem: 74 221<277 280 280 688> 538 221<280 688>
LayerCount: 2
Fore
SplineSet
759 688 m 1
 759 277 l 2
 759 87 633 -12 417 -12 c 0
 201 -12 74 87 74 277 c 2
 74 688 l 1
 295 688 l 1
 295 280 l 2
 295 206 335 153 416 153 c 0
 497 153 538 206 538 280 c 2
 538 688 l 1
 759 688 l 1
500 886 m 1
 502 882 l 1
 363 752 l 1
 246 752 l 1
 322 886 l 1
 500 886 l 1
711 886 m 1
 713 882 l 1
 574 752 l 1
 457 752 l 1
 533 886 l 1
 711 886 l 1
EndSplineSet
Validated: 1
EndChar

StartChar: uhungarumlaut
Encoding: 369 369 330
Width: 667
Flags: MW
HStem: -12 147<179.5 349> 0 21G<443 606 443 443> 508 20G<58 257 257 257 407 606 606 606> 591 134<231 272 155 409 366 366 366 409 442 483>
VStem: 58 199<188 210 210 528> 407 199<218 528 0 528>
LayerCount: 2
Fore
SplineSet
606 528 m 1x7c
 606 0 l 1
 443 0 l 1x7c
 430 80 l 1
 389 23 317 -12 242 -12 c 0
 117 -12 58 61 58 186 c 2
 58 528 l 1
 257 528 l 1
 257 210 l 2
 257 166 280 135 324 135 c 0
 374 135 407 173 407 218 c 2xbc
 407 528 l 1
 606 528 l 1x7c
409 725 m 1
 411 721 l 1
 272 591 l 1
 155 591 l 1
 231 725 l 1
 409 725 l 1
620 725 m 1
 622 721 l 1
 483 591 l 1
 366 591 l 1
 442 725 l 1
 620 725 l 1
EndSplineSet
Validated: 1
EndChar

StartChar: Uogonek
Encoding: 370 370 331
Width: 833
Flags: MW
HStem: -211 91<518 646> -12 165<375.5 423.5> 668 20G<74 295 295 295 538 759 759 759>
VStem: 74 221<277 280 280 688> 424 222<-138 -120 -196 -79> 538 221<280 688>
LayerCount: 2
Fore
SplineSet
759 688 m 1xf4
 759 277 l 2xf4
 759 135 688 44 563 7 c 1
 556 -7 544 -40 544 -69 c 0
 544 -95 559 -120 604 -120 c 2
 646 -120 l 1
 646 -196 l 1
 615 -206 583 -211 550 -211 c 0
 486 -211 424 -179 424 -97 c 0
 424 -61 438 -34 456 -11 c 1xf8
 443 -12 430 -12 417 -12 c 0
 201 -12 74 87 74 277 c 2
 74 688 l 1
 295 688 l 1
 295 280 l 2
 295 206 335 153 416 153 c 0
 497 153 538 206 538 280 c 2
 538 688 l 1
 759 688 l 1xf4
EndSplineSet
Validated: 1
EndChar

